M48
;DRILL file {KiCad 4.0.1-stable} date 2018/11/10 20:41:07
;FORMAT={-:-/ absolute / metric / decimal}
FMAT,2
METRIC,TZ
T1C0.400
T2C0.600
T3C0.750
T4C0.762
T5C0.800
T6C1.000
T7C1.050
%
G90
G05
M71
T1
X26.5Y-77.
X27.Y-62.
X27.Y-66.5
X27.Y-111.
X27.Y-114.
X27.Y-117.
X27.Y-120.
X27.Y-122.
X27.Y-125.
X27.Y-129.
X27.Y-132.
X27.Y-138.
X28.Y-83.
X28.Y-86.
X30.Y-111.
X30.Y-114.
X30.Y-117.
X30.Y-120.
X30.Y-122.
X30.Y-138.5
X31.Y-83.
X31.Y-86.
X31.Y-126.
X31.Y-129.
X31.Y-132.
X31.Y-135.
X32.Y-62.
X33.Y-76.
X33.Y-111.
X33.Y-114.
X33.Y-117.
X33.Y-120.
X33.Y-122.
X33.Y-138.5
X34.Y-70.
X34.Y-83.
X34.Y-86.
X35.2Y-74.
X35.7Y-72.1
X36.Y-62.
X36.Y-68.
X36.Y-76.
X36.Y-114.
X36.Y-117.
X36.Y-120.
X36.Y-123.
X36.Y-126.
X36.Y-129.
X36.Y-132.
X36.Y-138.5
X37.Y-80.
X37.Y-83.
X37.Y-86.
X37.Y-107.
X37.Y-110.
X37.7Y-132.9
X38.Y-69.
X38.Y-72.
X38.Y-136.5
X38.Y-138.5
X38.6Y-132.9
X39.Y-62.
X39.8Y-133.6
X40.Y-80.
X40.Y-83.
X40.Y-86.
X40.Y-89.
X40.Y-92.
X40.Y-95.
X40.Y-98.
X40.Y-101.
X40.Y-104.
X40.Y-107.
X40.Y-110.
X41.Y-69.
X41.Y-72.
X41.Y-75.
X41.Y-78.4
X41.Y-136.5
X41.Y-138.5
X41.1Y-77.5
X41.3Y-133.8
X42.Y-62.
X42.Y-64.
X42.Y-118.
X42.5Y-121.5
X42.7Y-134.
X43.Y-83.
X43.Y-86.
X43.Y-89.
X43.Y-92.
X43.Y-95.
X43.Y-98.
X43.Y-101.
X43.Y-104.
X43.Y-107.
X43.Y-110.
X43.Y-113.
X43.Y-116.
X43.Y-127.5
X43.3Y-129.1
X43.3Y-130.7
X43.5Y-74.5
X44.Y-69.
X44.Y-72.
X44.Y-136.5
X44.Y-138.5
X45.Y-62.
X45.Y-64.
X45.Y-121.5
X45.3Y-65.8
X45.3Y-67.2
X46.Y-83.
X46.Y-86.
X46.Y-89.
X46.Y-92.
X46.Y-95.
X46.Y-98.
X46.Y-101.
X46.Y-104.
X46.Y-107.
X46.Y-110.
X46.Y-125.
X46.1Y-66.5
X47.Y-69.
X47.Y-72.
X47.Y-74.
X47.Y-75.5
X47.5Y-134.
X48.Y-123.5
X48.Y-126.5
X48.Y-129.1
X48.1Y-130.7
X49.Y-83.
X49.Y-86.
X49.Y-89.
X49.Y-92.
X49.Y-95.
X49.Y-98.
X49.Y-101.
X49.Y-104.
X49.Y-107.
X49.Y-110.
X49.Y-116.
X49.Y-119.
X50.Y-62.
X50.Y-64.
X50.Y-74.
X50.Y-75.5
X51.Y-125.5
X52.Y-75.5
X52.Y-83.
X52.Y-86.
X52.Y-89.
X52.Y-92.
X52.Y-95.
X52.Y-98.
X52.Y-101.
X52.Y-104.
X52.Y-107.
X52.Y-110.
X52.Y-116.
X52.Y-119.
X53.Y-69.
X53.Y-70.
X53.Y-71.
X53.Y-72.
X53.Y-73.
X53.Y-74.
X53.5Y-77.
X53.5Y-80.
X53.5Y-83.
X54.2Y-111.3
X54.8Y-112.
X55.Y-116.
X55.Y-119.
X56.Y-113.
X58.Y-116.
X58.Y-119.
X58.1Y-126.2
X58.1Y-127.2
X58.1Y-128.2
X58.1Y-129.2
X58.1Y-130.2
X58.5Y-71.
X58.5Y-75.25
X58.75Y-72.75
X59.Y-83.
X59.Y-86.
X59.Y-89.
X59.Y-92.
X59.Y-95.
X59.Y-98.
X59.Y-101.
X59.Y-104.
X59.Y-107.
X60.Y-109.
X61.Y-67.1
X61.2Y-128.
X61.3Y-130.3
X62.Y-104.
X62.Y-107.
X62.Y-111.
X62.3Y-125.4
X63.Y-66.5
X63.Y-72.
X63.Y-113.
X63.5Y-116.
X63.5Y-118.5
X64.Y-83.
X64.Y-86.
X64.Y-89.
X64.Y-92.
X64.Y-95.
X64.Y-98.
X64.Y-101.
X64.Y-121.
X65.1Y-133.
X65.1Y-134.4
X65.3Y-77.6
X65.6Y-76.3
X65.8Y-133.7
X66.Y-72.
X67.Y-66.5
X67.Y-90.5
X67.Y-92.5
X67.Y-108.
X67.Y-111.
X67.Y-114.
X67.Y-117.
X67.Y-120.
X67.Y-123.
X67.Y-125.5
X68.8Y-87.9
X68.8Y-88.8
X69.Y-72.
X69.Y-75.
X69.Y-78.
X69.Y-81.
X69.Y-84.
X69.2Y-95.4
X69.6Y-104.4
X70.Y-90.5
X70.Y-92.5
X70.Y-108.
X70.Y-111.
X70.Y-114.
X70.Y-117.
X70.Y-120.
X70.Y-123.
X70.Y-125.5
X70.5Y-86.5
X70.8Y-95.4
X71.Y-66.5
X72.Y-72.
X72.Y-75.
X72.Y-78.
X72.Y-81.
X72.Y-84.
X73.Y-90.5
X73.Y-92.5
X73.Y-108.
X73.Y-111.
X73.Y-114.
X73.Y-117.
X73.Y-120.
X73.Y-123.
X73.Y-125.5
X73.5Y-86.5
X75.Y-66.5
X75.Y-84.
X75.4Y-104.5
X75.7Y-71.
X75.7Y-77.
X75.76Y-127.07
X76.Y-90.5
X76.Y-92.5
X76.Y-96.
X76.Y-101.
X76.Y-108.
X76.Y-111.
X76.Y-114.
X76.Y-117.
X76.Y-120.
X76.Y-123.
X76.Y-125.5
X76.4Y-78.8
X76.8Y-87.9
X77.9Y-80.3
X78.Y-99.5
X78.5Y-87.9
X78.5Y-92.9
X79.Y-66.5
X79.Y-74.
X79.4Y-88.8
X79.5Y-61.5
X79.5Y-98.
X79.8Y-85.3
X79.9Y-126.
X80.Y-90.5
X80.Y-93.
X80.Y-133.7
X80.Y-136.
X80.Y-138.5
X80.5Y-68.9
X80.5Y-75.5
X80.6Y-133.
X81.Y-72.
X81.Y-97.
X81.6Y-68.9
X82.Y-78.75
X82.5Y-73.5
X82.5Y-90.5
X82.5Y-93.
X84.Y-65.
X84.Y-77.5
X84.Y-124.5
X84.Y-126.5
X84.Y-129.5
X84.Y-131.5
X84.4Y-119.4
X84.5Y-61.5
X84.5Y-121.5
X85.Y-109.7
X85.Y-136.
X85.Y-138.
X86.Y-111.8
X86.4Y-72.3
X86.5Y-81.5
X86.5Y-84.
X86.5Y-86.5
X86.7Y-95.2
X87.3Y-107.6
X87.4Y-109.4
X87.5Y-90.6
X87.7Y-111.2
X87.8Y-89.6
X88.Y-61.5
X88.Y-63.
X88.Y-73.
X88.Y-116.7
X88.Y-121.7
X88.Y-126.7
X88.Y-136.
X88.Y-138.
X88.4Y-104.3
X88.5Y-91.6
X88.8Y-132.5
X89.Y-84.
X89.4Y-80.7
X89.7Y-132.7
X89.75Y-95.7
X90.Y-71.
X90.Y-75.
X90.Y-91.3
X90.4Y-80.7
X90.4Y-89.4
X90.7Y-108.1
X90.75Y-95.7
X90.8Y-103.9
X91.Y-136.
X91.Y-138.
X91.5Y-61.5
X91.5Y-63.
X91.5Y-78.5
X91.5Y-133.5
X92.3Y-103.7
X92.4Y-102.8
X92.5Y-81.
X93.Y-98.
X93.Y-99.5
X93.1Y-86.7
X93.2Y-107.4
X93.9Y-62.9
X93.9Y-67.1
X93.9Y-118.9
X94.Y-85.9
X94.Y-136.
X94.2Y-101.8
X94.3Y-122.9
X94.5Y-70.5
X94.5Y-98.
X94.5Y-99.5
X94.6Y-118.1
X95.2Y-73.8
X95.25Y-95.7
X95.4Y-67.
X95.4Y-108.2
X95.4Y-132.9
X95.5Y-77.
X95.5Y-79.5
X95.5Y-127.8
X95.5Y-129.6
X95.8Y-87.9
X96.Y-70.5
X96.Y-91.8
X96.Y-138.
X96.5Y-110.
X96.5Y-113.
X96.5Y-116.
X96.5Y-119.5
X96.9Y-95.1
X97.Y-121.5
X97.4Y-66.9
X97.4Y-133.4
X97.5Y-77.
X97.5Y-92.7
X98.8Y-62.9
X98.8Y-67.1
X99.3Y-94.
X99.6Y-129.8
X99.8Y-96.3
X99.9Y-69.8
X99.9Y-70.7
X99.9Y-76.6
X99.9Y-105.
X100.Y-73.8
X100.Y-122.5
X100.2Y-108.8
X100.3Y-97.
X100.3Y-134.9
X101.Y-82.
X101.Y-85.
X101.Y-88.
X101.Y-91.
X102.1Y-136.7
X102.2Y-99.2
X102.9Y-98.6
X103.Y-82.
X103.Y-85.
X103.Y-88.
X103.Y-91.
X103.75Y-79.75
X103.8Y-96.5
X103.8Y-138.4
X106.5Y-57.6
X111.1Y-54.5
X111.1Y-145.5
X111.8Y-52.9
X111.8Y-147.1
X112.5Y-51.3
X112.5Y-148.7
X113.2Y-49.7
X113.2Y-150.3
X113.9Y-48.1
X113.9Y-151.9
X114.6Y-46.5
X114.6Y-153.5
X125.7Y-167.9
X128.1Y-33.5
X173.Y-149.7
X173.1Y-51.3
T2
X43.85Y-119.7
X43.85Y-123.4
X45.35Y-119.7
X45.35Y-123.4
T3
X28.Y-64.
X30.Y-64.
X32.Y-64.
X34.Y-64.
X50.Y-121.
X50.Y-123.
X50.Y-128.
X50.Y-130.
T4
X91.19Y-110.42
X91.19Y-112.96
X91.19Y-115.5
X91.19Y-118.04
X91.19Y-120.58
X98.81Y-110.42
X98.81Y-112.96
X98.81Y-115.5
X98.81Y-118.04
X98.81Y-120.58
X119.73Y-31.73
X119.73Y-34.27
X119.73Y-165.73
X119.73Y-168.27
X122.27Y-31.73
X122.27Y-34.27
X122.27Y-165.73
X122.27Y-168.27
X174.166Y-54.038
X174.166Y-145.962
X175.962Y-52.242
X175.962Y-55.834
X175.962Y-144.166
X175.962Y-147.758
X177.758Y-54.038
X177.758Y-145.962
X181.476Y-62.406
X181.476Y-137.594
X182.933Y-64.486
X182.933Y-135.514
X183.557Y-60.949
X183.557Y-139.051
X185.014Y-63.029
X185.014Y-136.971
X187.222Y-71.916
X187.222Y-128.084
X188.296Y-74.218
X188.296Y-125.782
X189.524Y-70.842
X189.524Y-129.158
X190.598Y-73.144
X190.598Y-126.856
X191.23Y-82.279
X191.23Y-117.721
X191.887Y-84.732
X191.887Y-115.268
X193.377Y-93.18
X193.377Y-106.82
X193.598Y-95.711
X193.598Y-104.289
X193.683Y-81.621
X193.683Y-118.379
X194.341Y-84.075
X194.341Y-115.925
X195.907Y-92.959
X195.907Y-107.041
X196.129Y-95.489
X196.129Y-104.511
T5
X38.Y-111.69
X38.Y-114.23
X38.Y-116.77
X38.Y-119.31
T6
X48.Y-37.
X48.Y-147.
X50.5Y-37.
X50.5Y-147.
X53.Y-37.
X53.Y-147.
X77.54Y-148.5
X80.04Y-148.5
X82.54Y-148.5
X88.Y-37.
X90.5Y-37.
X93.Y-37.
T7
X45.Y-75.865
X45.Y-78.365
X78.77Y-162.5
X81.27Y-162.5
T0
M30
