M48
;DRILL file {KiCad 4.0.1-stable} date 2018/11/10 20:41:07
;FORMAT={-:-/ absolute / metric / decimal}
FMAT,2
METRIC,TZ
T1C1.200
T2C2.000
T3C3.200
T4C5.100
%
G90
G05
M71
T1
X37.75Y-50.5
X37.75Y-160.5
X46.25Y-50.5
X46.25Y-160.5
X77.75Y-50.5
X86.25Y-50.5
T2
X47.8Y-62.5
X47.8Y-137.5
X82.2Y-62.5
X82.2Y-137.5
T3
X30.Y-45.
X30.Y-155.
X54.Y-45.
X54.Y-155.
X70.Y-45.
X70.Y-155.
X90.Y-155.
X94.Y-45.
T4
X42.Y-45.
X42.Y-155.
X82.Y-45.
T0
M30
