%FSLAX45Y45*%
G04 Gerber Fmt 4.5, Leading zero omitted, Abs format (unit mm)*
G04 Created by KiCad (PCBNEW 4.0.1-stable) date 2018/11/10 20:41:08*
%MOMM*%
G01*
G04 APERTURE LIST*
%ADD10C,0.127000*%
%ADD11C,0.100000*%
%ADD12C,0.200000*%
%ADD13C,0.300000*%
G04 APERTURE END LIST*
D10*
D11*
X8200000Y-14400000D02*
X7200000Y-14400000D01*
X8200000Y-14400000D02*
X8200000Y-14000000D01*
X8200000Y-14000000D02*
X7800000Y-14000000D01*
X8500000Y-14400000D02*
X8800000Y-14400000D01*
X8500000Y-14000000D02*
X8500000Y-14400000D01*
X9868696Y-14000000D02*
X8500000Y-14000000D01*
X7200000Y-14400000D02*
G75*
G03X6600000Y-15000000I0J-600000D01*
G01*
X6600000Y-16000000D02*
G75*
G03X7200000Y-16600000I600000J0D01*
G01*
X8800000Y-16600000D02*
G75*
G03X9400000Y-16000000I0J600000D01*
G01*
X9400000Y-15000000D02*
G75*
G03X8800000Y-14400000I-600000J0D01*
G01*
X9400000Y-16000000D02*
X9400000Y-15000000D01*
X7200000Y-16600000D02*
X8800000Y-16600000D01*
X6600000Y-15000000D02*
X6600000Y-16000000D01*
X8050000Y-6000000D02*
X7800000Y-6000000D01*
X8050000Y-5800000D02*
X8050000Y-6000000D01*
X8350000Y-6000000D02*
X8350000Y-5800000D01*
X8350000Y-6000000D02*
X9868696Y-6000000D01*
X9400000Y-3200000D02*
X7000000Y-3200000D01*
X6600000Y-5400000D02*
G75*
G03X7000000Y-5800000I400000J0D01*
G01*
X9400000Y-5800000D02*
G75*
G03X9800000Y-5400000I0J400000D01*
G01*
X9800000Y-3600000D02*
G75*
G03X9400000Y-3200000I-400000J0D01*
G01*
X7000000Y-3200000D02*
G75*
G03X6600000Y-3600000I0J-400000D01*
G01*
X9800000Y-3600000D02*
X9800000Y-5400000D01*
X6600000Y-5400000D02*
X6600000Y-3600000D01*
X8050000Y-5800000D02*
X7000000Y-5800000D01*
X8350000Y-5800000D02*
X9400000Y-5800000D01*
X4050000Y-6000000D02*
X2700000Y-6000000D01*
X4050000Y-5800000D02*
X4050000Y-6000000D01*
X4350000Y-6000000D02*
X4350000Y-5800000D01*
X5200000Y-6000000D02*
X4350000Y-6000000D01*
X4350000Y-5800000D02*
X5400000Y-5800000D01*
X4050000Y-5800000D02*
X3000000Y-5800000D01*
X2600000Y-5400000D02*
X2600000Y-3600000D01*
X5800000Y-3600000D02*
X5800000Y-5400000D01*
X3000000Y-3200000D02*
G75*
G03X2600000Y-3600000I0J-400000D01*
G01*
X5800000Y-3600000D02*
G75*
G03X5400000Y-3200000I-400000J0D01*
G01*
X5400000Y-5800000D02*
G75*
G03X5800000Y-5400000I0J400000D01*
G01*
X2600000Y-5400000D02*
G75*
G03X3000000Y-5800000I400000J0D01*
G01*
X5400000Y-3200000D02*
X3000000Y-3200000D01*
X4050000Y-14000000D02*
X2700000Y-14000000D01*
X4050000Y-14200000D02*
X4050000Y-14000000D01*
X4350000Y-14200000D02*
X5400000Y-14200000D01*
X4350000Y-14000000D02*
X5200000Y-14000000D01*
X4350000Y-14200000D02*
X4350000Y-14000000D01*
X4050000Y-14200000D02*
X3000000Y-14200000D01*
X2600000Y-16400000D02*
G75*
G03X3000000Y-16800000I400000J0D01*
G01*
X5400000Y-16800000D02*
G75*
G03X5800000Y-16400000I0J400000D01*
G01*
X5800000Y-14600000D02*
G75*
G03X5400000Y-14200000I-400000J0D01*
G01*
X3000000Y-14200000D02*
G75*
G03X2600000Y-14600000I0J-400000D01*
G01*
X5400000Y-16800000D02*
X4200000Y-16800000D01*
X5800000Y-14600000D02*
X5800000Y-16400000D01*
X2600000Y-16400000D02*
X2600000Y-14600000D01*
X4200000Y-16800000D02*
X3000000Y-16800000D01*
X11500000Y-16500000D02*
G75*
G02X11600000Y-16600000I0J-100000D01*
G01*
X13000000Y-3000000D02*
G75*
G02X13000000Y-17000000I0J-7000000D01*
G01*
X13113497Y-4001074D02*
G75*
G02X13113497Y-15998926I-113497J-5998926D01*
G01*
X12345044Y-15619914D02*
G75*
G02X12198518Y-15472406I200771J345964D01*
G01*
X13113497Y-15998926D02*
G75*
G02X12905160Y-15944962I-7567J399928D01*
G01*
X11700000Y-17000000D02*
G75*
G02X11600000Y-16900000I0J100000D01*
G01*
X11148985Y-16500000D02*
G75*
G02X11057230Y-16439761I0J100000D01*
G01*
X9868696Y-14000000D02*
G75*
G02X10052207Y-14120478I0J-200000D01*
G01*
X10565878Y-12615287D02*
G75*
G02X10500000Y-12367218I434122J248070D01*
G01*
X10500000Y-7632782D02*
G75*
G02X10565878Y-7384713I500000J0D01*
G01*
X12198518Y-4527594D02*
G75*
G02X12345044Y-4380086I347297J-198456D01*
G01*
X12905160Y-4055038D02*
G75*
G02X13113497Y-4001074I200771J-345964D01*
G01*
X11600000Y-3100000D02*
G75*
G02X11700000Y-3000000I100000J0D01*
G01*
X11600000Y-3400000D02*
G75*
G02X11500000Y-3500000I-100000J0D01*
G01*
X11057230Y-3560239D02*
G75*
G02X11148985Y-3500000I91756J-39761D01*
G01*
X10052207Y-5879521D02*
G75*
G02X9868696Y-6000000I-183511J79522D01*
G01*
X2500000Y-6200000D02*
G75*
G02X2700000Y-6000000I200000J0D01*
G01*
X2600000Y-7875000D02*
G75*
G02X2500000Y-7775000I0J100000D01*
G01*
X3271432Y-7852778D02*
G75*
G02X3208579Y-7875000I-62854J77778D01*
G01*
X3208579Y-8025000D02*
G75*
G02X3271433Y-8047222I0J-100000D01*
G01*
X3271433Y-7852778D02*
G75*
G02X3271433Y-8047222I78567J-97222D01*
G01*
X2500000Y-8125000D02*
G75*
G02X2600000Y-8025000I100000J0D01*
G01*
X2600000Y-8900000D02*
G75*
G02X2500000Y-8800000I0J100000D01*
G01*
X3600000Y-8900000D02*
G75*
G02X3700000Y-9000000I0J-100000D01*
G01*
X3700000Y-10300000D02*
G75*
G02X3600000Y-10400000I-100000J0D01*
G01*
X2500000Y-10500000D02*
G75*
G02X2600000Y-10400000I100000J0D01*
G01*
X2600000Y-10775000D02*
G75*
G02X2500000Y-10675000I0J100000D01*
G01*
X3208579Y-10925000D02*
G75*
G02X3271433Y-10947222I0J-100000D01*
G01*
X3271432Y-10752778D02*
G75*
G02X3208579Y-10775000I-62854J77778D01*
G01*
X3271433Y-10752778D02*
G75*
G02X3271433Y-10947222I78567J-97222D01*
G01*
X2500000Y-11025000D02*
G75*
G02X2600000Y-10925000I100000J0D01*
G01*
X2700000Y-14000000D02*
G75*
G02X2500000Y-13800000I0J200000D01*
G01*
X12198518Y-4527594D02*
X10565878Y-7384713D01*
X12905160Y-4055038D02*
X12345044Y-4380086D01*
X12345044Y-15619914D02*
X12905160Y-15944962D01*
X12198518Y-15472406D02*
X12345044Y-15619914D01*
X10565878Y-12615287D02*
X12198518Y-15472406D01*
X10500000Y-7632782D02*
X10500000Y-12367218D01*
X3208579Y-8025000D02*
X3271433Y-8047222D01*
X2600000Y-8025000D02*
X3208579Y-8025000D01*
X2500000Y-8800000D02*
X2500000Y-8125000D01*
X3600000Y-8900000D02*
X2600000Y-8900000D01*
X3700000Y-10300000D02*
X3700000Y-9000000D01*
X2600000Y-10400000D02*
X3600000Y-10400000D01*
X2500000Y-10675000D02*
X2500000Y-10500000D01*
X3208579Y-10775000D02*
X2600000Y-10775000D01*
X3271433Y-10752778D02*
X3208579Y-10775000D01*
X3208579Y-10925000D02*
X3271433Y-10947222D01*
X2600000Y-10925000D02*
X3208579Y-10925000D01*
X2500000Y-13800000D02*
X2500000Y-11025000D01*
X5200000Y-13500000D02*
X5200000Y-14000000D01*
X7800000Y-13500000D02*
X5200000Y-13500000D01*
X7800000Y-14000000D02*
X7800000Y-13500000D01*
X11057230Y-16439761D02*
X10052207Y-14120478D01*
X11500000Y-16500000D02*
X11148985Y-16500000D01*
X11600000Y-16900000D02*
X11600000Y-16600000D01*
X13000000Y-17000000D02*
X11700000Y-17000000D01*
X11700000Y-3000000D02*
X13000000Y-3000000D01*
X11600000Y-3400000D02*
X11600000Y-3100000D01*
X11148985Y-3500000D02*
X11500000Y-3500000D01*
X10052207Y-5879521D02*
X11057230Y-3560239D01*
X7800000Y-6500000D02*
X7800000Y-6000000D01*
X5200000Y-6500000D02*
X7800000Y-6500000D01*
X5200000Y-6000000D02*
X5200000Y-6500000D01*
X2500000Y-7775000D02*
X2500000Y-6200000D01*
X3208579Y-7875000D02*
X2600000Y-7875000D01*
X3271433Y-7852778D02*
X3208579Y-7875000D01*
D12*
X2630000Y-7680000D02*
X2670000Y-7720000D01*
X2670000Y-7680000D02*
X2630000Y-7720000D01*
X2680000Y-6180000D02*
X2720000Y-6220000D01*
X2720000Y-6180000D02*
X2680000Y-6220000D01*
X2680000Y-6630000D02*
X2720000Y-6670000D01*
X2720000Y-6630000D02*
X2680000Y-6670000D01*
X2680000Y-11080000D02*
X2720000Y-11120000D01*
X2720000Y-11080000D02*
X2680000Y-11120000D01*
X2680000Y-11380000D02*
X2720000Y-11420000D01*
X2720000Y-11380000D02*
X2680000Y-11420000D01*
X2680000Y-11680000D02*
X2720000Y-11720000D01*
X2720000Y-11680000D02*
X2680000Y-11720000D01*
X2680000Y-11980000D02*
X2720000Y-12020000D01*
X2720000Y-11980000D02*
X2680000Y-12020000D01*
X2680000Y-12180000D02*
X2720000Y-12220000D01*
X2720000Y-12180000D02*
X2680000Y-12220000D01*
X2680000Y-12480000D02*
X2720000Y-12520000D01*
X2720000Y-12480000D02*
X2680000Y-12520000D01*
X2680000Y-12880000D02*
X2720000Y-12920000D01*
X2720000Y-12880000D02*
X2680000Y-12920000D01*
X2680000Y-13180000D02*
X2720000Y-13220000D01*
X2720000Y-13180000D02*
X2680000Y-13220000D01*
X2680000Y-13780000D02*
X2720000Y-13820000D01*
X2720000Y-13780000D02*
X2680000Y-13820000D01*
X2780000Y-8280000D02*
X2820000Y-8320000D01*
X2820000Y-8280000D02*
X2780000Y-8320000D01*
X2780000Y-8580000D02*
X2820000Y-8620000D01*
X2820000Y-8580000D02*
X2780000Y-8620000D01*
X2980000Y-11080000D02*
X3020000Y-11120000D01*
X3020000Y-11080000D02*
X2980000Y-11120000D01*
X2980000Y-11380000D02*
X3020000Y-11420000D01*
X3020000Y-11380000D02*
X2980000Y-11420000D01*
X2980000Y-11680000D02*
X3020000Y-11720000D01*
X3020000Y-11680000D02*
X2980000Y-11720000D01*
X2980000Y-11980000D02*
X3020000Y-12020000D01*
X3020000Y-11980000D02*
X2980000Y-12020000D01*
X2980000Y-12180000D02*
X3020000Y-12220000D01*
X3020000Y-12180000D02*
X2980000Y-12220000D01*
X2980000Y-13830000D02*
X3020000Y-13870000D01*
X3020000Y-13830000D02*
X2980000Y-13870000D01*
X3080000Y-8280000D02*
X3120000Y-8320000D01*
X3120000Y-8280000D02*
X3080000Y-8320000D01*
X3080000Y-8580000D02*
X3120000Y-8620000D01*
X3120000Y-8580000D02*
X3080000Y-8620000D01*
X3080000Y-12580000D02*
X3120000Y-12620000D01*
X3120000Y-12580000D02*
X3080000Y-12620000D01*
X3080000Y-12880000D02*
X3120000Y-12920000D01*
X3120000Y-12880000D02*
X3080000Y-12920000D01*
X3080000Y-13180000D02*
X3120000Y-13220000D01*
X3120000Y-13180000D02*
X3080000Y-13220000D01*
X3080000Y-13480000D02*
X3120000Y-13520000D01*
X3120000Y-13480000D02*
X3080000Y-13520000D01*
X3180000Y-6180000D02*
X3220000Y-6220000D01*
X3220000Y-6180000D02*
X3180000Y-6220000D01*
X3280000Y-7580000D02*
X3320000Y-7620000D01*
X3320000Y-7580000D02*
X3280000Y-7620000D01*
X3280000Y-11080000D02*
X3320000Y-11120000D01*
X3320000Y-11080000D02*
X3280000Y-11120000D01*
X3280000Y-11380000D02*
X3320000Y-11420000D01*
X3320000Y-11380000D02*
X3280000Y-11420000D01*
X3280000Y-11680000D02*
X3320000Y-11720000D01*
X3320000Y-11680000D02*
X3280000Y-11720000D01*
X3280000Y-11980000D02*
X3320000Y-12020000D01*
X3320000Y-11980000D02*
X3280000Y-12020000D01*
X3280000Y-12180000D02*
X3320000Y-12220000D01*
X3320000Y-12180000D02*
X3280000Y-12220000D01*
X3280000Y-13830000D02*
X3320000Y-13870000D01*
X3320000Y-13830000D02*
X3280000Y-13870000D01*
X3380000Y-6980000D02*
X3420000Y-7020000D01*
X3420000Y-6980000D02*
X3380000Y-7020000D01*
X3380000Y-8280000D02*
X3420000Y-8320000D01*
X3420000Y-8280000D02*
X3380000Y-8320000D01*
X3380000Y-8580000D02*
X3420000Y-8620000D01*
X3420000Y-8580000D02*
X3380000Y-8620000D01*
X3500000Y-7380000D02*
X3540000Y-7420000D01*
X3540000Y-7380000D02*
X3500000Y-7420000D01*
X3550000Y-7190000D02*
X3590000Y-7230000D01*
X3590000Y-7190000D02*
X3550000Y-7230000D01*
X3580000Y-6180000D02*
X3620000Y-6220000D01*
X3620000Y-6180000D02*
X3580000Y-6220000D01*
X3580000Y-6780000D02*
X3620000Y-6820000D01*
X3620000Y-6780000D02*
X3580000Y-6820000D01*
X3580000Y-7580000D02*
X3620000Y-7620000D01*
X3620000Y-7580000D02*
X3580000Y-7620000D01*
X3580000Y-11380000D02*
X3620000Y-11420000D01*
X3620000Y-11380000D02*
X3580000Y-11420000D01*
X3580000Y-11680000D02*
X3620000Y-11720000D01*
X3620000Y-11680000D02*
X3580000Y-11720000D01*
X3580000Y-11980000D02*
X3620000Y-12020000D01*
X3620000Y-11980000D02*
X3580000Y-12020000D01*
X3580000Y-12280000D02*
X3620000Y-12320000D01*
X3620000Y-12280000D02*
X3580000Y-12320000D01*
X3580000Y-12580000D02*
X3620000Y-12620000D01*
X3620000Y-12580000D02*
X3580000Y-12620000D01*
X3580000Y-12880000D02*
X3620000Y-12920000D01*
X3620000Y-12880000D02*
X3580000Y-12920000D01*
X3580000Y-13180000D02*
X3620000Y-13220000D01*
X3620000Y-13180000D02*
X3580000Y-13220000D01*
X3580000Y-13830000D02*
X3620000Y-13870000D01*
X3620000Y-13830000D02*
X3580000Y-13870000D01*
X3680000Y-7980000D02*
X3720000Y-8020000D01*
X3720000Y-7980000D02*
X3680000Y-8020000D01*
X3680000Y-8280000D02*
X3720000Y-8320000D01*
X3720000Y-8280000D02*
X3680000Y-8320000D01*
X3680000Y-8580000D02*
X3720000Y-8620000D01*
X3720000Y-8580000D02*
X3680000Y-8620000D01*
X3680000Y-10680000D02*
X3720000Y-10720000D01*
X3720000Y-10680000D02*
X3680000Y-10720000D01*
X3680000Y-10980000D02*
X3720000Y-11020000D01*
X3720000Y-10980000D02*
X3680000Y-11020000D01*
X3750000Y-13270000D02*
X3790000Y-13310000D01*
X3790000Y-13270000D02*
X3750000Y-13310000D01*
X3780000Y-6880000D02*
X3820000Y-6920000D01*
X3820000Y-6880000D02*
X3780000Y-6920000D01*
X3780000Y-7180000D02*
X3820000Y-7220000D01*
X3820000Y-7180000D02*
X3780000Y-7220000D01*
X3780000Y-13630000D02*
X3820000Y-13670000D01*
X3820000Y-13630000D02*
X3780000Y-13670000D01*
X3780000Y-13830000D02*
X3820000Y-13870000D01*
X3820000Y-13830000D02*
X3780000Y-13870000D01*
X3840000Y-13270000D02*
X3880000Y-13310000D01*
X3880000Y-13270000D02*
X3840000Y-13310000D01*
X3880000Y-6180000D02*
X3920000Y-6220000D01*
X3920000Y-6180000D02*
X3880000Y-6220000D01*
X3960000Y-13340000D02*
X4000000Y-13380000D01*
X4000000Y-13340000D02*
X3960000Y-13380000D01*
X3980000Y-7980000D02*
X4020000Y-8020000D01*
X4020000Y-7980000D02*
X3980000Y-8020000D01*
X3980000Y-8280000D02*
X4020000Y-8320000D01*
X4020000Y-8280000D02*
X3980000Y-8320000D01*
X3980000Y-8580000D02*
X4020000Y-8620000D01*
X4020000Y-8580000D02*
X3980000Y-8620000D01*
X3980000Y-8880000D02*
X4020000Y-8920000D01*
X4020000Y-8880000D02*
X3980000Y-8920000D01*
X3980000Y-9180000D02*
X4020000Y-9220000D01*
X4020000Y-9180000D02*
X3980000Y-9220000D01*
X3980000Y-9480000D02*
X4020000Y-9520000D01*
X4020000Y-9480000D02*
X3980000Y-9520000D01*
X3980000Y-9780000D02*
X4020000Y-9820000D01*
X4020000Y-9780000D02*
X3980000Y-9820000D01*
X3980000Y-10080000D02*
X4020000Y-10120000D01*
X4020000Y-10080000D02*
X3980000Y-10120000D01*
X3980000Y-10380000D02*
X4020000Y-10420000D01*
X4020000Y-10380000D02*
X3980000Y-10420000D01*
X3980000Y-10680000D02*
X4020000Y-10720000D01*
X4020000Y-10680000D02*
X3980000Y-10720000D01*
X3980000Y-10980000D02*
X4020000Y-11020000D01*
X4020000Y-10980000D02*
X3980000Y-11020000D01*
X4080000Y-6880000D02*
X4120000Y-6920000D01*
X4120000Y-6880000D02*
X4080000Y-6920000D01*
X4080000Y-7180000D02*
X4120000Y-7220000D01*
X4120000Y-7180000D02*
X4080000Y-7220000D01*
X4080000Y-7480000D02*
X4120000Y-7520000D01*
X4120000Y-7480000D02*
X4080000Y-7520000D01*
X4080000Y-7820000D02*
X4120000Y-7860000D01*
X4120000Y-7820000D02*
X4080000Y-7860000D01*
X4080000Y-13630000D02*
X4120000Y-13670000D01*
X4120000Y-13630000D02*
X4080000Y-13670000D01*
X4080000Y-13830000D02*
X4120000Y-13870000D01*
X4120000Y-13830000D02*
X4080000Y-13870000D01*
X4090000Y-7730000D02*
X4130000Y-7770000D01*
X4130000Y-7730000D02*
X4090000Y-7770000D01*
X4110000Y-13360000D02*
X4150000Y-13400000D01*
X4150000Y-13360000D02*
X4110000Y-13400000D01*
X4180000Y-6180000D02*
X4220000Y-6220000D01*
X4220000Y-6180000D02*
X4180000Y-6220000D01*
X4180000Y-6380000D02*
X4220000Y-6420000D01*
X4220000Y-6380000D02*
X4180000Y-6420000D01*
X4180000Y-11780000D02*
X4220000Y-11820000D01*
X4220000Y-11780000D02*
X4180000Y-11820000D01*
X4230000Y-12130000D02*
X4270000Y-12170000D01*
X4270000Y-12130000D02*
X4230000Y-12170000D01*
X4250000Y-13380000D02*
X4290000Y-13420000D01*
X4290000Y-13380000D02*
X4250000Y-13420000D01*
X4280000Y-8280000D02*
X4320000Y-8320000D01*
X4320000Y-8280000D02*
X4280000Y-8320000D01*
X4280000Y-8580000D02*
X4320000Y-8620000D01*
X4320000Y-8580000D02*
X4280000Y-8620000D01*
X4280000Y-8880000D02*
X4320000Y-8920000D01*
X4320000Y-8880000D02*
X4280000Y-8920000D01*
X4280000Y-9180000D02*
X4320000Y-9220000D01*
X4320000Y-9180000D02*
X4280000Y-9220000D01*
X4280000Y-9480000D02*
X4320000Y-9520000D01*
X4320000Y-9480000D02*
X4280000Y-9520000D01*
X4280000Y-9780000D02*
X4320000Y-9820000D01*
X4320000Y-9780000D02*
X4280000Y-9820000D01*
X4280000Y-10080000D02*
X4320000Y-10120000D01*
X4320000Y-10080000D02*
X4280000Y-10120000D01*
X4280000Y-10380000D02*
X4320000Y-10420000D01*
X4320000Y-10380000D02*
X4280000Y-10420000D01*
X4280000Y-10680000D02*
X4320000Y-10720000D01*
X4320000Y-10680000D02*
X4280000Y-10720000D01*
X4280000Y-10980000D02*
X4320000Y-11020000D01*
X4320000Y-10980000D02*
X4280000Y-11020000D01*
X4280000Y-11280000D02*
X4320000Y-11320000D01*
X4320000Y-11280000D02*
X4280000Y-11320000D01*
X4280000Y-11580000D02*
X4320000Y-11620000D01*
X4320000Y-11580000D02*
X4280000Y-11620000D01*
X4280000Y-12730000D02*
X4320000Y-12770000D01*
X4320000Y-12730000D02*
X4280000Y-12770000D01*
X4310000Y-12890000D02*
X4350000Y-12930000D01*
X4350000Y-12890000D02*
X4310000Y-12930000D01*
X4310000Y-13050000D02*
X4350000Y-13090000D01*
X4350000Y-13050000D02*
X4310000Y-13090000D01*
X4330000Y-7430000D02*
X4370000Y-7470000D01*
X4370000Y-7430000D02*
X4330000Y-7470000D01*
X4380000Y-6880000D02*
X4420000Y-6920000D01*
X4420000Y-6880000D02*
X4380000Y-6920000D01*
X4380000Y-7180000D02*
X4420000Y-7220000D01*
X4420000Y-7180000D02*
X4380000Y-7220000D01*
X4380000Y-13630000D02*
X4420000Y-13670000D01*
X4420000Y-13630000D02*
X4380000Y-13670000D01*
X4380000Y-13830000D02*
X4420000Y-13870000D01*
X4420000Y-13830000D02*
X4380000Y-13870000D01*
X4480000Y-6180000D02*
X4520000Y-6220000D01*
X4520000Y-6180000D02*
X4480000Y-6220000D01*
X4480000Y-6380000D02*
X4520000Y-6420000D01*
X4520000Y-6380000D02*
X4480000Y-6420000D01*
X4480000Y-12130000D02*
X4520000Y-12170000D01*
X4520000Y-12130000D02*
X4480000Y-12170000D01*
X4510000Y-6560000D02*
X4550000Y-6600000D01*
X4550000Y-6560000D02*
X4510000Y-6600000D01*
X4510000Y-6700000D02*
X4550000Y-6740000D01*
X4550000Y-6700000D02*
X4510000Y-6740000D01*
X4580000Y-8280000D02*
X4620000Y-8320000D01*
X4620000Y-8280000D02*
X4580000Y-8320000D01*
X4580000Y-8580000D02*
X4620000Y-8620000D01*
X4620000Y-8580000D02*
X4580000Y-8620000D01*
X4580000Y-8880000D02*
X4620000Y-8920000D01*
X4620000Y-8880000D02*
X4580000Y-8920000D01*
X4580000Y-9180000D02*
X4620000Y-9220000D01*
X4620000Y-9180000D02*
X4580000Y-9220000D01*
X4580000Y-9480000D02*
X4620000Y-9520000D01*
X4620000Y-9480000D02*
X4580000Y-9520000D01*
X4580000Y-9780000D02*
X4620000Y-9820000D01*
X4620000Y-9780000D02*
X4580000Y-9820000D01*
X4580000Y-10080000D02*
X4620000Y-10120000D01*
X4620000Y-10080000D02*
X4580000Y-10120000D01*
X4580000Y-10380000D02*
X4620000Y-10420000D01*
X4620000Y-10380000D02*
X4580000Y-10420000D01*
X4580000Y-10680000D02*
X4620000Y-10720000D01*
X4620000Y-10680000D02*
X4580000Y-10720000D01*
X4580000Y-10980000D02*
X4620000Y-11020000D01*
X4620000Y-10980000D02*
X4580000Y-11020000D01*
X4580000Y-12480000D02*
X4620000Y-12520000D01*
X4620000Y-12480000D02*
X4580000Y-12520000D01*
X4590000Y-6630000D02*
X4630000Y-6670000D01*
X4630000Y-6630000D02*
X4590000Y-6670000D01*
X4680000Y-6880000D02*
X4720000Y-6920000D01*
X4720000Y-6880000D02*
X4680000Y-6920000D01*
X4680000Y-7180000D02*
X4720000Y-7220000D01*
X4720000Y-7180000D02*
X4680000Y-7220000D01*
X4680000Y-7380000D02*
X4720000Y-7420000D01*
X4720000Y-7380000D02*
X4680000Y-7420000D01*
X4680000Y-7530000D02*
X4720000Y-7570000D01*
X4720000Y-7530000D02*
X4680000Y-7570000D01*
X4730000Y-13380000D02*
X4770000Y-13420000D01*
X4770000Y-13380000D02*
X4730000Y-13420000D01*
X4780000Y-12330000D02*
X4820000Y-12370000D01*
X4820000Y-12330000D02*
X4780000Y-12370000D01*
X4780000Y-12630000D02*
X4820000Y-12670000D01*
X4820000Y-12630000D02*
X4780000Y-12670000D01*
X4780000Y-12890000D02*
X4820000Y-12930000D01*
X4820000Y-12890000D02*
X4780000Y-12930000D01*
X4790000Y-13050000D02*
X4830000Y-13090000D01*
X4830000Y-13050000D02*
X4790000Y-13090000D01*
X4880000Y-8280000D02*
X4920000Y-8320000D01*
X4920000Y-8280000D02*
X4880000Y-8320000D01*
X4880000Y-8580000D02*
X4920000Y-8620000D01*
X4920000Y-8580000D02*
X4880000Y-8620000D01*
X4880000Y-8880000D02*
X4920000Y-8920000D01*
X4920000Y-8880000D02*
X4880000Y-8920000D01*
X4880000Y-9180000D02*
X4920000Y-9220000D01*
X4920000Y-9180000D02*
X4880000Y-9220000D01*
X4880000Y-9480000D02*
X4920000Y-9520000D01*
X4920000Y-9480000D02*
X4880000Y-9520000D01*
X4880000Y-9780000D02*
X4920000Y-9820000D01*
X4920000Y-9780000D02*
X4880000Y-9820000D01*
X4880000Y-10080000D02*
X4920000Y-10120000D01*
X4920000Y-10080000D02*
X4880000Y-10120000D01*
X4880000Y-10380000D02*
X4920000Y-10420000D01*
X4920000Y-10380000D02*
X4880000Y-10420000D01*
X4880000Y-10680000D02*
X4920000Y-10720000D01*
X4920000Y-10680000D02*
X4880000Y-10720000D01*
X4880000Y-10980000D02*
X4920000Y-11020000D01*
X4920000Y-10980000D02*
X4880000Y-11020000D01*
X4880000Y-11580000D02*
X4920000Y-11620000D01*
X4920000Y-11580000D02*
X4880000Y-11620000D01*
X4880000Y-11880000D02*
X4920000Y-11920000D01*
X4920000Y-11880000D02*
X4880000Y-11920000D01*
X4980000Y-6180000D02*
X5020000Y-6220000D01*
X5020000Y-6180000D02*
X4980000Y-6220000D01*
X4980000Y-6380000D02*
X5020000Y-6420000D01*
X5020000Y-6380000D02*
X4980000Y-6420000D01*
X4980000Y-7380000D02*
X5020000Y-7420000D01*
X5020000Y-7380000D02*
X4980000Y-7420000D01*
X4980000Y-7530000D02*
X5020000Y-7570000D01*
X5020000Y-7530000D02*
X4980000Y-7570000D01*
X5080000Y-12530000D02*
X5120000Y-12570000D01*
X5120000Y-12530000D02*
X5080000Y-12570000D01*
X5180000Y-7530000D02*
X5220000Y-7570000D01*
X5220000Y-7530000D02*
X5180000Y-7570000D01*
X5180000Y-8280000D02*
X5220000Y-8320000D01*
X5220000Y-8280000D02*
X5180000Y-8320000D01*
X5180000Y-8580000D02*
X5220000Y-8620000D01*
X5220000Y-8580000D02*
X5180000Y-8620000D01*
X5180000Y-8880000D02*
X5220000Y-8920000D01*
X5220000Y-8880000D02*
X5180000Y-8920000D01*
X5180000Y-9180000D02*
X5220000Y-9220000D01*
X5220000Y-9180000D02*
X5180000Y-9220000D01*
X5180000Y-9480000D02*
X5220000Y-9520000D01*
X5220000Y-9480000D02*
X5180000Y-9520000D01*
X5180000Y-9780000D02*
X5220000Y-9820000D01*
X5220000Y-9780000D02*
X5180000Y-9820000D01*
X5180000Y-10080000D02*
X5220000Y-10120000D01*
X5220000Y-10080000D02*
X5180000Y-10120000D01*
X5180000Y-10380000D02*
X5220000Y-10420000D01*
X5220000Y-10380000D02*
X5180000Y-10420000D01*
X5180000Y-10680000D02*
X5220000Y-10720000D01*
X5220000Y-10680000D02*
X5180000Y-10720000D01*
X5180000Y-10980000D02*
X5220000Y-11020000D01*
X5220000Y-10980000D02*
X5180000Y-11020000D01*
X5180000Y-11580000D02*
X5220000Y-11620000D01*
X5220000Y-11580000D02*
X5180000Y-11620000D01*
X5180000Y-11880000D02*
X5220000Y-11920000D01*
X5220000Y-11880000D02*
X5180000Y-11920000D01*
X5280000Y-6880000D02*
X5320000Y-6920000D01*
X5320000Y-6880000D02*
X5280000Y-6920000D01*
X5280000Y-6980000D02*
X5320000Y-7020000D01*
X5320000Y-6980000D02*
X5280000Y-7020000D01*
X5280000Y-7080000D02*
X5320000Y-7120000D01*
X5320000Y-7080000D02*
X5280000Y-7120000D01*
X5280000Y-7180000D02*
X5320000Y-7220000D01*
X5320000Y-7180000D02*
X5280000Y-7220000D01*
X5280000Y-7280000D02*
X5320000Y-7320000D01*
X5320000Y-7280000D02*
X5280000Y-7320000D01*
X5280000Y-7380000D02*
X5320000Y-7420000D01*
X5320000Y-7380000D02*
X5280000Y-7420000D01*
X5330000Y-7680000D02*
X5370000Y-7720000D01*
X5370000Y-7680000D02*
X5330000Y-7720000D01*
X5330000Y-7980000D02*
X5370000Y-8020000D01*
X5370000Y-7980000D02*
X5330000Y-8020000D01*
X5330000Y-8280000D02*
X5370000Y-8320000D01*
X5370000Y-8280000D02*
X5330000Y-8320000D01*
X5400000Y-11110000D02*
X5440000Y-11150000D01*
X5440000Y-11110000D02*
X5400000Y-11150000D01*
X5460000Y-11180000D02*
X5500000Y-11220000D01*
X5500000Y-11180000D02*
X5460000Y-11220000D01*
X5480000Y-11580000D02*
X5520000Y-11620000D01*
X5520000Y-11580000D02*
X5480000Y-11620000D01*
X5480000Y-11880000D02*
X5520000Y-11920000D01*
X5520000Y-11880000D02*
X5480000Y-11920000D01*
X5580000Y-11280000D02*
X5620000Y-11320000D01*
X5620000Y-11280000D02*
X5580000Y-11320000D01*
X5780000Y-11580000D02*
X5820000Y-11620000D01*
X5820000Y-11580000D02*
X5780000Y-11620000D01*
X5780000Y-11880000D02*
X5820000Y-11920000D01*
X5820000Y-11880000D02*
X5780000Y-11920000D01*
X5790000Y-12600000D02*
X5830000Y-12640000D01*
X5830000Y-12600000D02*
X5790000Y-12640000D01*
X5790000Y-12700000D02*
X5830000Y-12740000D01*
X5830000Y-12700000D02*
X5790000Y-12740000D01*
X5790000Y-12800000D02*
X5830000Y-12840000D01*
X5830000Y-12800000D02*
X5790000Y-12840000D01*
X5790000Y-12900000D02*
X5830000Y-12940000D01*
X5830000Y-12900000D02*
X5790000Y-12940000D01*
X5790000Y-13000000D02*
X5830000Y-13040000D01*
X5830000Y-13000000D02*
X5790000Y-13040000D01*
X5830000Y-7080000D02*
X5870000Y-7120000D01*
X5870000Y-7080000D02*
X5830000Y-7120000D01*
X5830000Y-7505000D02*
X5870000Y-7545000D01*
X5870000Y-7505000D02*
X5830000Y-7545000D01*
X5855000Y-7255000D02*
X5895000Y-7295000D01*
X5895000Y-7255000D02*
X5855000Y-7295000D01*
X5880000Y-8280000D02*
X5920000Y-8320000D01*
X5920000Y-8280000D02*
X5880000Y-8320000D01*
X5880000Y-8580000D02*
X5920000Y-8620000D01*
X5920000Y-8580000D02*
X5880000Y-8620000D01*
X5880000Y-8880000D02*
X5920000Y-8920000D01*
X5920000Y-8880000D02*
X5880000Y-8920000D01*
X5880000Y-9180000D02*
X5920000Y-9220000D01*
X5920000Y-9180000D02*
X5880000Y-9220000D01*
X5880000Y-9480000D02*
X5920000Y-9520000D01*
X5920000Y-9480000D02*
X5880000Y-9520000D01*
X5880000Y-9780000D02*
X5920000Y-9820000D01*
X5920000Y-9780000D02*
X5880000Y-9820000D01*
X5880000Y-10080000D02*
X5920000Y-10120000D01*
X5920000Y-10080000D02*
X5880000Y-10120000D01*
X5880000Y-10380000D02*
X5920000Y-10420000D01*
X5920000Y-10380000D02*
X5880000Y-10420000D01*
X5880000Y-10680000D02*
X5920000Y-10720000D01*
X5920000Y-10680000D02*
X5880000Y-10720000D01*
X5980000Y-10880000D02*
X6020000Y-10920000D01*
X6020000Y-10880000D02*
X5980000Y-10920000D01*
X6080000Y-6690000D02*
X6120000Y-6730000D01*
X6120000Y-6690000D02*
X6080000Y-6730000D01*
X6100000Y-12780000D02*
X6140000Y-12820000D01*
X6140000Y-12780000D02*
X6100000Y-12820000D01*
X6110000Y-13010000D02*
X6150000Y-13050000D01*
X6150000Y-13010000D02*
X6110000Y-13050000D01*
X6180000Y-10380000D02*
X6220000Y-10420000D01*
X6220000Y-10380000D02*
X6180000Y-10420000D01*
X6180000Y-10680000D02*
X6220000Y-10720000D01*
X6220000Y-10680000D02*
X6180000Y-10720000D01*
X6180000Y-11080000D02*
X6220000Y-11120000D01*
X6220000Y-11080000D02*
X6180000Y-11120000D01*
X6210000Y-12520000D02*
X6250000Y-12560000D01*
X6250000Y-12520000D02*
X6210000Y-12560000D01*
X6280000Y-6630000D02*
X6320000Y-6670000D01*
X6320000Y-6630000D02*
X6280000Y-6670000D01*
X6280000Y-7180000D02*
X6320000Y-7220000D01*
X6320000Y-7180000D02*
X6280000Y-7220000D01*
X6280000Y-11280000D02*
X6320000Y-11320000D01*
X6320000Y-11280000D02*
X6280000Y-11320000D01*
X6330000Y-11580000D02*
X6370000Y-11620000D01*
X6370000Y-11580000D02*
X6330000Y-11620000D01*
X6330000Y-11830000D02*
X6370000Y-11870000D01*
X6370000Y-11830000D02*
X6330000Y-11870000D01*
X6380000Y-8280000D02*
X6420000Y-8320000D01*
X6420000Y-8280000D02*
X6380000Y-8320000D01*
X6380000Y-8580000D02*
X6420000Y-8620000D01*
X6420000Y-8580000D02*
X6380000Y-8620000D01*
X6380000Y-8880000D02*
X6420000Y-8920000D01*
X6420000Y-8880000D02*
X6380000Y-8920000D01*
X6380000Y-9180000D02*
X6420000Y-9220000D01*
X6420000Y-9180000D02*
X6380000Y-9220000D01*
X6380000Y-9480000D02*
X6420000Y-9520000D01*
X6420000Y-9480000D02*
X6380000Y-9520000D01*
X6380000Y-9780000D02*
X6420000Y-9820000D01*
X6420000Y-9780000D02*
X6380000Y-9820000D01*
X6380000Y-10080000D02*
X6420000Y-10120000D01*
X6420000Y-10080000D02*
X6380000Y-10120000D01*
X6380000Y-12080000D02*
X6420000Y-12120000D01*
X6420000Y-12080000D02*
X6380000Y-12120000D01*
X6490000Y-13280000D02*
X6530000Y-13320000D01*
X6530000Y-13280000D02*
X6490000Y-13320000D01*
X6490000Y-13420000D02*
X6530000Y-13460000D01*
X6530000Y-13420000D02*
X6490000Y-13460000D01*
X6510000Y-7740000D02*
X6550000Y-7780000D01*
X6550000Y-7740000D02*
X6510000Y-7780000D01*
X6540000Y-7610000D02*
X6580000Y-7650000D01*
X6580000Y-7610000D02*
X6540000Y-7650000D01*
X6560000Y-13350000D02*
X6600000Y-13390000D01*
X6600000Y-13350000D02*
X6560000Y-13390000D01*
X6580000Y-7180000D02*
X6620000Y-7220000D01*
X6620000Y-7180000D02*
X6580000Y-7220000D01*
X6680000Y-6630000D02*
X6720000Y-6670000D01*
X6720000Y-6630000D02*
X6680000Y-6670000D01*
X6680000Y-9030000D02*
X6720000Y-9070000D01*
X6720000Y-9030000D02*
X6680000Y-9070000D01*
X6680000Y-9230000D02*
X6720000Y-9270000D01*
X6720000Y-9230000D02*
X6680000Y-9270000D01*
X6680000Y-10780000D02*
X6720000Y-10820000D01*
X6720000Y-10780000D02*
X6680000Y-10820000D01*
X6680000Y-11080000D02*
X6720000Y-11120000D01*
X6720000Y-11080000D02*
X6680000Y-11120000D01*
X6680000Y-11380000D02*
X6720000Y-11420000D01*
X6720000Y-11380000D02*
X6680000Y-11420000D01*
X6680000Y-11680000D02*
X6720000Y-11720000D01*
X6720000Y-11680000D02*
X6680000Y-11720000D01*
X6680000Y-11980000D02*
X6720000Y-12020000D01*
X6720000Y-11980000D02*
X6680000Y-12020000D01*
X6680000Y-12280000D02*
X6720000Y-12320000D01*
X6720000Y-12280000D02*
X6680000Y-12320000D01*
X6680000Y-12530000D02*
X6720000Y-12570000D01*
X6720000Y-12530000D02*
X6680000Y-12570000D01*
X6860000Y-8770000D02*
X6900000Y-8810000D01*
X6900000Y-8770000D02*
X6860000Y-8810000D01*
X6860000Y-8860000D02*
X6900000Y-8900000D01*
X6900000Y-8860000D02*
X6860000Y-8900000D01*
X6880000Y-7180000D02*
X6920000Y-7220000D01*
X6920000Y-7180000D02*
X6880000Y-7220000D01*
X6880000Y-7480000D02*
X6920000Y-7520000D01*
X6920000Y-7480000D02*
X6880000Y-7520000D01*
X6880000Y-7780000D02*
X6920000Y-7820000D01*
X6920000Y-7780000D02*
X6880000Y-7820000D01*
X6880000Y-8080000D02*
X6920000Y-8120000D01*
X6920000Y-8080000D02*
X6880000Y-8120000D01*
X6880000Y-8380000D02*
X6920000Y-8420000D01*
X6920000Y-8380000D02*
X6880000Y-8420000D01*
X6900000Y-9520000D02*
X6940000Y-9560000D01*
X6940000Y-9520000D02*
X6900000Y-9560000D01*
X6940000Y-10420000D02*
X6980000Y-10460000D01*
X6980000Y-10420000D02*
X6940000Y-10460000D01*
X6980000Y-9030000D02*
X7020000Y-9070000D01*
X7020000Y-9030000D02*
X6980000Y-9070000D01*
X6980000Y-9230000D02*
X7020000Y-9270000D01*
X7020000Y-9230000D02*
X6980000Y-9270000D01*
X6980000Y-10780000D02*
X7020000Y-10820000D01*
X7020000Y-10780000D02*
X6980000Y-10820000D01*
X6980000Y-11080000D02*
X7020000Y-11120000D01*
X7020000Y-11080000D02*
X6980000Y-11120000D01*
X6980000Y-11380000D02*
X7020000Y-11420000D01*
X7020000Y-11380000D02*
X6980000Y-11420000D01*
X6980000Y-11680000D02*
X7020000Y-11720000D01*
X7020000Y-11680000D02*
X6980000Y-11720000D01*
X6980000Y-11980000D02*
X7020000Y-12020000D01*
X7020000Y-11980000D02*
X6980000Y-12020000D01*
X6980000Y-12280000D02*
X7020000Y-12320000D01*
X7020000Y-12280000D02*
X6980000Y-12320000D01*
X6980000Y-12530000D02*
X7020000Y-12570000D01*
X7020000Y-12530000D02*
X6980000Y-12570000D01*
X7030000Y-8630000D02*
X7070000Y-8670000D01*
X7070000Y-8630000D02*
X7030000Y-8670000D01*
X7060000Y-9520000D02*
X7100000Y-9560000D01*
X7100000Y-9520000D02*
X7060000Y-9560000D01*
X7080000Y-6630000D02*
X7120000Y-6670000D01*
X7120000Y-6630000D02*
X7080000Y-6670000D01*
X7180000Y-7180000D02*
X7220000Y-7220000D01*
X7220000Y-7180000D02*
X7180000Y-7220000D01*
X7180000Y-7480000D02*
X7220000Y-7520000D01*
X7220000Y-7480000D02*
X7180000Y-7520000D01*
X7180000Y-7780000D02*
X7220000Y-7820000D01*
X7220000Y-7780000D02*
X7180000Y-7820000D01*
X7180000Y-8080000D02*
X7220000Y-8120000D01*
X7220000Y-8080000D02*
X7180000Y-8120000D01*
X7180000Y-8380000D02*
X7220000Y-8420000D01*
X7220000Y-8380000D02*
X7180000Y-8420000D01*
X7280000Y-9030000D02*
X7320000Y-9070000D01*
X7320000Y-9030000D02*
X7280000Y-9070000D01*
X7280000Y-9230000D02*
X7320000Y-9270000D01*
X7320000Y-9230000D02*
X7280000Y-9270000D01*
X7280000Y-10780000D02*
X7320000Y-10820000D01*
X7320000Y-10780000D02*
X7280000Y-10820000D01*
X7280000Y-11080000D02*
X7320000Y-11120000D01*
X7320000Y-11080000D02*
X7280000Y-11120000D01*
X7280000Y-11380000D02*
X7320000Y-11420000D01*
X7320000Y-11380000D02*
X7280000Y-11420000D01*
X7280000Y-11680000D02*
X7320000Y-11720000D01*
X7320000Y-11680000D02*
X7280000Y-11720000D01*
X7280000Y-11980000D02*
X7320000Y-12020000D01*
X7320000Y-11980000D02*
X7280000Y-12020000D01*
X7280000Y-12280000D02*
X7320000Y-12320000D01*
X7320000Y-12280000D02*
X7280000Y-12320000D01*
X7280000Y-12530000D02*
X7320000Y-12570000D01*
X7320000Y-12530000D02*
X7280000Y-12570000D01*
X7330000Y-8630000D02*
X7370000Y-8670000D01*
X7370000Y-8630000D02*
X7330000Y-8670000D01*
X7480000Y-6630000D02*
X7520000Y-6670000D01*
X7520000Y-6630000D02*
X7480000Y-6670000D01*
X7480000Y-8380000D02*
X7520000Y-8420000D01*
X7520000Y-8380000D02*
X7480000Y-8420000D01*
X7520000Y-10430000D02*
X7560000Y-10470000D01*
X7560000Y-10430000D02*
X7520000Y-10470000D01*
X7550000Y-7080000D02*
X7590000Y-7120000D01*
X7590000Y-7080000D02*
X7550000Y-7120000D01*
X7550000Y-7680000D02*
X7590000Y-7720000D01*
X7590000Y-7680000D02*
X7550000Y-7720000D01*
X7556000Y-12687000D02*
X7596000Y-12727000D01*
X7596000Y-12687000D02*
X7556000Y-12727000D01*
X7580000Y-9030000D02*
X7620000Y-9070000D01*
X7620000Y-9030000D02*
X7580000Y-9070000D01*
X7580000Y-9230000D02*
X7620000Y-9270000D01*
X7620000Y-9230000D02*
X7580000Y-9270000D01*
X7580000Y-9580000D02*
X7620000Y-9620000D01*
X7620000Y-9580000D02*
X7580000Y-9620000D01*
X7580000Y-10080000D02*
X7620000Y-10120000D01*
X7620000Y-10080000D02*
X7580000Y-10120000D01*
X7580000Y-10780000D02*
X7620000Y-10820000D01*
X7620000Y-10780000D02*
X7580000Y-10820000D01*
X7580000Y-11080000D02*
X7620000Y-11120000D01*
X7620000Y-11080000D02*
X7580000Y-11120000D01*
X7580000Y-11380000D02*
X7620000Y-11420000D01*
X7620000Y-11380000D02*
X7580000Y-11420000D01*
X7580000Y-11680000D02*
X7620000Y-11720000D01*
X7620000Y-11680000D02*
X7580000Y-11720000D01*
X7580000Y-11980000D02*
X7620000Y-12020000D01*
X7620000Y-11980000D02*
X7580000Y-12020000D01*
X7580000Y-12280000D02*
X7620000Y-12320000D01*
X7620000Y-12280000D02*
X7580000Y-12320000D01*
X7580000Y-12530000D02*
X7620000Y-12570000D01*
X7620000Y-12530000D02*
X7580000Y-12570000D01*
X7620000Y-7860000D02*
X7660000Y-7900000D01*
X7660000Y-7860000D02*
X7620000Y-7900000D01*
X7660000Y-8770000D02*
X7700000Y-8810000D01*
X7700000Y-8770000D02*
X7660000Y-8810000D01*
X7770000Y-8010000D02*
X7810000Y-8050000D01*
X7810000Y-8010000D02*
X7770000Y-8050000D01*
X7780000Y-9930000D02*
X7820000Y-9970000D01*
X7820000Y-9930000D02*
X7780000Y-9970000D01*
X7830000Y-8770000D02*
X7870000Y-8810000D01*
X7870000Y-8770000D02*
X7830000Y-8810000D01*
X7830000Y-9270000D02*
X7870000Y-9310000D01*
X7870000Y-9270000D02*
X7830000Y-9310000D01*
X7880000Y-6630000D02*
X7920000Y-6670000D01*
X7920000Y-6630000D02*
X7880000Y-6670000D01*
X7880000Y-7380000D02*
X7920000Y-7420000D01*
X7920000Y-7380000D02*
X7880000Y-7420000D01*
X7920000Y-8860000D02*
X7960000Y-8900000D01*
X7960000Y-8860000D02*
X7920000Y-8900000D01*
X7930000Y-6130000D02*
X7970000Y-6170000D01*
X7970000Y-6130000D02*
X7930000Y-6170000D01*
X7930000Y-9780000D02*
X7970000Y-9820000D01*
X7970000Y-9780000D02*
X7930000Y-9820000D01*
X7960000Y-8510000D02*
X8000000Y-8550000D01*
X8000000Y-8510000D02*
X7960000Y-8550000D01*
X7970000Y-12580000D02*
X8010000Y-12620000D01*
X8010000Y-12580000D02*
X7970000Y-12620000D01*
X7980000Y-9030000D02*
X8020000Y-9070000D01*
X8020000Y-9030000D02*
X7980000Y-9070000D01*
X7980000Y-9280000D02*
X8020000Y-9320000D01*
X8020000Y-9280000D02*
X7980000Y-9320000D01*
X7980000Y-13350000D02*
X8020000Y-13390000D01*
X8020000Y-13350000D02*
X7980000Y-13390000D01*
X7980000Y-13580000D02*
X8020000Y-13620000D01*
X8020000Y-13580000D02*
X7980000Y-13620000D01*
X7980000Y-13830000D02*
X8020000Y-13870000D01*
X8020000Y-13830000D02*
X7980000Y-13870000D01*
X8030000Y-6870000D02*
X8070000Y-6910000D01*
X8070000Y-6870000D02*
X8030000Y-6910000D01*
X8030000Y-7530000D02*
X8070000Y-7570000D01*
X8070000Y-7530000D02*
X8030000Y-7570000D01*
X8040000Y-13280000D02*
X8080000Y-13320000D01*
X8080000Y-13280000D02*
X8040000Y-13320000D01*
X8080000Y-7180000D02*
X8120000Y-7220000D01*
X8120000Y-7180000D02*
X8080000Y-7220000D01*
X8080000Y-9680000D02*
X8120000Y-9720000D01*
X8120000Y-9680000D02*
X8080000Y-9720000D01*
X8140000Y-6870000D02*
X8180000Y-6910000D01*
X8180000Y-6870000D02*
X8140000Y-6910000D01*
X8180000Y-7855000D02*
X8220000Y-7895000D01*
X8220000Y-7855000D02*
X8180000Y-7895000D01*
X8230000Y-7330000D02*
X8270000Y-7370000D01*
X8270000Y-7330000D02*
X8230000Y-7370000D01*
X8230000Y-9030000D02*
X8270000Y-9070000D01*
X8270000Y-9030000D02*
X8230000Y-9070000D01*
X8230000Y-9280000D02*
X8270000Y-9320000D01*
X8270000Y-9280000D02*
X8230000Y-9320000D01*
X8380000Y-6480000D02*
X8420000Y-6520000D01*
X8420000Y-6480000D02*
X8380000Y-6520000D01*
X8380000Y-7730000D02*
X8420000Y-7770000D01*
X8420000Y-7730000D02*
X8380000Y-7770000D01*
X8380000Y-12430000D02*
X8420000Y-12470000D01*
X8420000Y-12430000D02*
X8380000Y-12470000D01*
X8380000Y-12630000D02*
X8420000Y-12670000D01*
X8420000Y-12630000D02*
X8380000Y-12670000D01*
X8380000Y-12930000D02*
X8420000Y-12970000D01*
X8420000Y-12930000D02*
X8380000Y-12970000D01*
X8380000Y-13130000D02*
X8420000Y-13170000D01*
X8420000Y-13130000D02*
X8380000Y-13170000D01*
X8420000Y-11920000D02*
X8460000Y-11960000D01*
X8460000Y-11920000D02*
X8420000Y-11960000D01*
X8430000Y-6130000D02*
X8470000Y-6170000D01*
X8470000Y-6130000D02*
X8430000Y-6170000D01*
X8430000Y-12130000D02*
X8470000Y-12170000D01*
X8470000Y-12130000D02*
X8430000Y-12170000D01*
X8480000Y-10950000D02*
X8520000Y-10990000D01*
X8520000Y-10950000D02*
X8480000Y-10990000D01*
X8480000Y-13580000D02*
X8520000Y-13620000D01*
X8520000Y-13580000D02*
X8480000Y-13620000D01*
X8480000Y-13780000D02*
X8520000Y-13820000D01*
X8520000Y-13780000D02*
X8480000Y-13820000D01*
X8580000Y-11160000D02*
X8620000Y-11200000D01*
X8620000Y-11160000D02*
X8580000Y-11200000D01*
X8620000Y-7210000D02*
X8660000Y-7250000D01*
X8660000Y-7210000D02*
X8620000Y-7250000D01*
X8630000Y-8130000D02*
X8670000Y-8170000D01*
X8670000Y-8130000D02*
X8630000Y-8170000D01*
X8630000Y-8380000D02*
X8670000Y-8420000D01*
X8670000Y-8380000D02*
X8630000Y-8420000D01*
X8630000Y-8630000D02*
X8670000Y-8670000D01*
X8670000Y-8630000D02*
X8630000Y-8670000D01*
X8650000Y-9500000D02*
X8690000Y-9540000D01*
X8690000Y-9500000D02*
X8650000Y-9540000D01*
X8710000Y-10740000D02*
X8750000Y-10780000D01*
X8750000Y-10740000D02*
X8710000Y-10780000D01*
X8720000Y-10920000D02*
X8760000Y-10960000D01*
X8760000Y-10920000D02*
X8720000Y-10960000D01*
X8730000Y-9040000D02*
X8770000Y-9080000D01*
X8770000Y-9040000D02*
X8730000Y-9080000D01*
X8750000Y-11100000D02*
X8790000Y-11140000D01*
X8790000Y-11100000D02*
X8750000Y-11140000D01*
X8760000Y-8940000D02*
X8800000Y-8980000D01*
X8800000Y-8940000D02*
X8760000Y-8980000D01*
X8780000Y-6130000D02*
X8820000Y-6170000D01*
X8820000Y-6130000D02*
X8780000Y-6170000D01*
X8780000Y-6280000D02*
X8820000Y-6320000D01*
X8820000Y-6280000D02*
X8780000Y-6320000D01*
X8780000Y-7280000D02*
X8820000Y-7320000D01*
X8820000Y-7280000D02*
X8780000Y-7320000D01*
X8780000Y-11650000D02*
X8820000Y-11690000D01*
X8820000Y-11650000D02*
X8780000Y-11690000D01*
X8780000Y-12150000D02*
X8820000Y-12190000D01*
X8820000Y-12150000D02*
X8780000Y-12190000D01*
X8780000Y-12650000D02*
X8820000Y-12690000D01*
X8820000Y-12650000D02*
X8780000Y-12690000D01*
X8780000Y-13580000D02*
X8820000Y-13620000D01*
X8820000Y-13580000D02*
X8780000Y-13620000D01*
X8780000Y-13780000D02*
X8820000Y-13820000D01*
X8820000Y-13780000D02*
X8780000Y-13820000D01*
X8820000Y-10410000D02*
X8860000Y-10450000D01*
X8860000Y-10410000D02*
X8820000Y-10450000D01*
X8830000Y-9140000D02*
X8870000Y-9180000D01*
X8870000Y-9140000D02*
X8830000Y-9180000D01*
X8860000Y-13230000D02*
X8900000Y-13270000D01*
X8900000Y-13230000D02*
X8860000Y-13270000D01*
X8880000Y-8380000D02*
X8920000Y-8420000D01*
X8920000Y-8380000D02*
X8880000Y-8420000D01*
X8920000Y-8050000D02*
X8960000Y-8090000D01*
X8960000Y-8050000D02*
X8920000Y-8090000D01*
X8950000Y-13250000D02*
X8990000Y-13290000D01*
X8990000Y-13250000D02*
X8950000Y-13290000D01*
X8955000Y-9550000D02*
X8995000Y-9590000D01*
X8995000Y-9550000D02*
X8955000Y-9590000D01*
X8980000Y-7080000D02*
X9020000Y-7120000D01*
X9020000Y-7080000D02*
X8980000Y-7120000D01*
X8980000Y-7480000D02*
X9020000Y-7520000D01*
X9020000Y-7480000D02*
X8980000Y-7520000D01*
X8980000Y-9110000D02*
X9020000Y-9150000D01*
X9020000Y-9110000D02*
X8980000Y-9150000D01*
X9020000Y-8050000D02*
X9060000Y-8090000D01*
X9060000Y-8050000D02*
X9020000Y-8090000D01*
X9020000Y-8920000D02*
X9060000Y-8960000D01*
X9060000Y-8920000D02*
X9020000Y-8960000D01*
X9050000Y-10790000D02*
X9090000Y-10830000D01*
X9090000Y-10790000D02*
X9050000Y-10830000D01*
X9055000Y-9550000D02*
X9095000Y-9590000D01*
X9095000Y-9550000D02*
X9055000Y-9590000D01*
X9060000Y-10370000D02*
X9100000Y-10410000D01*
X9100000Y-10370000D02*
X9060000Y-10410000D01*
X9080000Y-13580000D02*
X9120000Y-13620000D01*
X9120000Y-13580000D02*
X9080000Y-13620000D01*
X9080000Y-13780000D02*
X9120000Y-13820000D01*
X9120000Y-13780000D02*
X9080000Y-13820000D01*
X9130000Y-6130000D02*
X9170000Y-6170000D01*
X9170000Y-6130000D02*
X9130000Y-6170000D01*
X9130000Y-6280000D02*
X9170000Y-6320000D01*
X9170000Y-6280000D02*
X9130000Y-6320000D01*
X9130000Y-7830000D02*
X9170000Y-7870000D01*
X9170000Y-7830000D02*
X9130000Y-7870000D01*
X9130000Y-13330000D02*
X9170000Y-13370000D01*
X9170000Y-13330000D02*
X9130000Y-13370000D01*
X9210000Y-10350000D02*
X9250000Y-10390000D01*
X9250000Y-10350000D02*
X9210000Y-10390000D01*
X9220000Y-10260000D02*
X9260000Y-10300000D01*
X9260000Y-10260000D02*
X9220000Y-10300000D01*
X9230000Y-8080000D02*
X9270000Y-8120000D01*
X9270000Y-8080000D02*
X9230000Y-8120000D01*
X9280000Y-9780000D02*
X9320000Y-9820000D01*
X9320000Y-9780000D02*
X9280000Y-9820000D01*
X9280000Y-9930000D02*
X9320000Y-9970000D01*
X9320000Y-9930000D02*
X9280000Y-9970000D01*
X9290000Y-8650000D02*
X9330000Y-8690000D01*
X9330000Y-8650000D02*
X9290000Y-8690000D01*
X9300000Y-10720000D02*
X9340000Y-10760000D01*
X9340000Y-10720000D02*
X9300000Y-10760000D01*
X9370000Y-6270000D02*
X9410000Y-6310000D01*
X9410000Y-6270000D02*
X9370000Y-6310000D01*
X9370000Y-6690000D02*
X9410000Y-6730000D01*
X9410000Y-6690000D02*
X9370000Y-6730000D01*
X9370000Y-11870000D02*
X9410000Y-11910000D01*
X9410000Y-11870000D02*
X9370000Y-11910000D01*
X9380000Y-8570000D02*
X9420000Y-8610000D01*
X9420000Y-8570000D02*
X9380000Y-8610000D01*
X9380000Y-13580000D02*
X9420000Y-13620000D01*
X9420000Y-13580000D02*
X9380000Y-13620000D01*
X9400000Y-10160000D02*
X9440000Y-10200000D01*
X9440000Y-10160000D02*
X9400000Y-10200000D01*
X9410000Y-12270000D02*
X9450000Y-12310000D01*
X9450000Y-12270000D02*
X9410000Y-12310000D01*
X9430000Y-7030000D02*
X9470000Y-7070000D01*
X9470000Y-7030000D02*
X9430000Y-7070000D01*
X9430000Y-9780000D02*
X9470000Y-9820000D01*
X9470000Y-9780000D02*
X9430000Y-9820000D01*
X9430000Y-9930000D02*
X9470000Y-9970000D01*
X9470000Y-9930000D02*
X9430000Y-9970000D01*
X9440000Y-11790000D02*
X9480000Y-11830000D01*
X9480000Y-11790000D02*
X9440000Y-11830000D01*
X9500000Y-7360000D02*
X9540000Y-7400000D01*
X9540000Y-7360000D02*
X9500000Y-7400000D01*
X9505000Y-9550000D02*
X9545000Y-9590000D01*
X9545000Y-9550000D02*
X9505000Y-9590000D01*
X9520000Y-6680000D02*
X9560000Y-6720000D01*
X9560000Y-6680000D02*
X9520000Y-6720000D01*
X9520000Y-10800000D02*
X9560000Y-10840000D01*
X9560000Y-10800000D02*
X9520000Y-10840000D01*
X9520000Y-13270000D02*
X9560000Y-13310000D01*
X9560000Y-13270000D02*
X9520000Y-13310000D01*
X9530000Y-7680000D02*
X9570000Y-7720000D01*
X9570000Y-7680000D02*
X9530000Y-7720000D01*
X9530000Y-7930000D02*
X9570000Y-7970000D01*
X9570000Y-7930000D02*
X9530000Y-7970000D01*
X9530000Y-12760000D02*
X9570000Y-12800000D01*
X9570000Y-12760000D02*
X9530000Y-12800000D01*
X9530000Y-12940000D02*
X9570000Y-12980000D01*
X9570000Y-12940000D02*
X9530000Y-12980000D01*
X9560000Y-8770000D02*
X9600000Y-8810000D01*
X9600000Y-8770000D02*
X9560000Y-8810000D01*
X9580000Y-7030000D02*
X9620000Y-7070000D01*
X9620000Y-7030000D02*
X9580000Y-7070000D01*
X9580000Y-9160000D02*
X9620000Y-9200000D01*
X9620000Y-9160000D02*
X9580000Y-9200000D01*
X9580000Y-13780000D02*
X9620000Y-13820000D01*
X9620000Y-13780000D02*
X9580000Y-13820000D01*
X9630000Y-10980000D02*
X9670000Y-11020000D01*
X9670000Y-10980000D02*
X9630000Y-11020000D01*
X9630000Y-11280000D02*
X9670000Y-11320000D01*
X9670000Y-11280000D02*
X9630000Y-11320000D01*
X9630000Y-11580000D02*
X9670000Y-11620000D01*
X9670000Y-11580000D02*
X9630000Y-11620000D01*
X9630000Y-11930000D02*
X9670000Y-11970000D01*
X9670000Y-11930000D02*
X9630000Y-11970000D01*
X9670000Y-9490000D02*
X9710000Y-9530000D01*
X9710000Y-9490000D02*
X9670000Y-9530000D01*
X9680000Y-12130000D02*
X9720000Y-12170000D01*
X9720000Y-12130000D02*
X9680000Y-12170000D01*
X9720000Y-6670000D02*
X9760000Y-6710000D01*
X9760000Y-6670000D02*
X9720000Y-6710000D01*
X9720000Y-13320000D02*
X9760000Y-13360000D01*
X9760000Y-13320000D02*
X9720000Y-13360000D01*
X9730000Y-7680000D02*
X9770000Y-7720000D01*
X9770000Y-7680000D02*
X9730000Y-7720000D01*
X9730000Y-9250000D02*
X9770000Y-9290000D01*
X9770000Y-9250000D02*
X9730000Y-9290000D01*
X9860000Y-6270000D02*
X9900000Y-6310000D01*
X9900000Y-6270000D02*
X9860000Y-6310000D01*
X9860000Y-6690000D02*
X9900000Y-6730000D01*
X9900000Y-6690000D02*
X9860000Y-6730000D01*
X9910000Y-9380000D02*
X9950000Y-9420000D01*
X9950000Y-9380000D02*
X9910000Y-9420000D01*
X9940000Y-12960000D02*
X9980000Y-13000000D01*
X9980000Y-12960000D02*
X9940000Y-13000000D01*
X9960000Y-9610000D02*
X10000000Y-9650000D01*
X10000000Y-9610000D02*
X9960000Y-9650000D01*
X9970000Y-6960000D02*
X10010000Y-7000000D01*
X10010000Y-6960000D02*
X9970000Y-7000000D01*
X9970000Y-7050000D02*
X10010000Y-7090000D01*
X10010000Y-7050000D02*
X9970000Y-7090000D01*
X9970000Y-7640000D02*
X10010000Y-7680000D01*
X10010000Y-7640000D02*
X9970000Y-7680000D01*
X9970000Y-10480000D02*
X10010000Y-10520000D01*
X10010000Y-10480000D02*
X9970000Y-10520000D01*
X9980000Y-7360000D02*
X10020000Y-7400000D01*
X10020000Y-7360000D02*
X9980000Y-7400000D01*
X9980000Y-12230000D02*
X10020000Y-12270000D01*
X10020000Y-12230000D02*
X9980000Y-12270000D01*
X10000000Y-10860000D02*
X10040000Y-10900000D01*
X10040000Y-10860000D02*
X10000000Y-10900000D01*
X10010000Y-9680000D02*
X10050000Y-9720000D01*
X10050000Y-9680000D02*
X10010000Y-9720000D01*
X10010000Y-13470000D02*
X10050000Y-13510000D01*
X10050000Y-13470000D02*
X10010000Y-13510000D01*
X10080000Y-8180000D02*
X10120000Y-8220000D01*
X10120000Y-8180000D02*
X10080000Y-8220000D01*
X10080000Y-8480000D02*
X10120000Y-8520000D01*
X10120000Y-8480000D02*
X10080000Y-8520000D01*
X10080000Y-8780000D02*
X10120000Y-8820000D01*
X10120000Y-8780000D02*
X10080000Y-8820000D01*
X10080000Y-9080000D02*
X10120000Y-9120000D01*
X10120000Y-9080000D02*
X10080000Y-9120000D01*
X10190000Y-13650000D02*
X10230000Y-13690000D01*
X10230000Y-13650000D02*
X10190000Y-13690000D01*
X10200000Y-9900000D02*
X10240000Y-9940000D01*
X10240000Y-9900000D02*
X10200000Y-9940000D01*
X10270000Y-9840000D02*
X10310000Y-9880000D01*
X10310000Y-9840000D02*
X10270000Y-9880000D01*
X10280000Y-8180000D02*
X10320000Y-8220000D01*
X10320000Y-8180000D02*
X10280000Y-8220000D01*
X10280000Y-8480000D02*
X10320000Y-8520000D01*
X10320000Y-8480000D02*
X10280000Y-8520000D01*
X10280000Y-8780000D02*
X10320000Y-8820000D01*
X10320000Y-8780000D02*
X10280000Y-8820000D01*
X10280000Y-9080000D02*
X10320000Y-9120000D01*
X10320000Y-9080000D02*
X10280000Y-9120000D01*
X10355000Y-7955000D02*
X10395000Y-7995000D01*
X10395000Y-7955000D02*
X10355000Y-7995000D01*
X10360000Y-9630000D02*
X10400000Y-9670000D01*
X10400000Y-9630000D02*
X10360000Y-9670000D01*
X10360000Y-13820000D02*
X10400000Y-13860000D01*
X10400000Y-13820000D02*
X10360000Y-13860000D01*
X10630000Y-5740000D02*
X10670000Y-5780000D01*
X10670000Y-5740000D02*
X10630000Y-5780000D01*
X11090000Y-5430000D02*
X11130000Y-5470000D01*
X11130000Y-5430000D02*
X11090000Y-5470000D01*
X11090000Y-14530000D02*
X11130000Y-14570000D01*
X11130000Y-14530000D02*
X11090000Y-14570000D01*
X11160000Y-5270000D02*
X11200000Y-5310000D01*
X11200000Y-5270000D02*
X11160000Y-5310000D01*
X11160000Y-14690000D02*
X11200000Y-14730000D01*
X11200000Y-14690000D02*
X11160000Y-14730000D01*
X11230000Y-5110000D02*
X11270000Y-5150000D01*
X11270000Y-5110000D02*
X11230000Y-5150000D01*
X11230000Y-14850000D02*
X11270000Y-14890000D01*
X11270000Y-14850000D02*
X11230000Y-14890000D01*
X11300000Y-4950000D02*
X11340000Y-4990000D01*
X11340000Y-4950000D02*
X11300000Y-4990000D01*
X11300000Y-15010000D02*
X11340000Y-15050000D01*
X11340000Y-15010000D02*
X11300000Y-15050000D01*
X11370000Y-4790000D02*
X11410000Y-4830000D01*
X11410000Y-4790000D02*
X11370000Y-4830000D01*
X11370000Y-15170000D02*
X11410000Y-15210000D01*
X11410000Y-15170000D02*
X11370000Y-15210000D01*
X11440000Y-4630000D02*
X11480000Y-4670000D01*
X11480000Y-4630000D02*
X11440000Y-4670000D01*
X11440000Y-15330000D02*
X11480000Y-15370000D01*
X11480000Y-15330000D02*
X11440000Y-15370000D01*
X12550000Y-16770000D02*
X12590000Y-16810000D01*
X12590000Y-16770000D02*
X12550000Y-16810000D01*
X12790000Y-3330000D02*
X12830000Y-3370000D01*
X12830000Y-3330000D02*
X12790000Y-3370000D01*
X17280000Y-14950000D02*
X17320000Y-14990000D01*
X17320000Y-14950000D02*
X17280000Y-14990000D01*
X17290000Y-5110000D02*
X17330000Y-5150000D01*
X17330000Y-5110000D02*
X17290000Y-5150000D01*
X4415000Y-11970000D02*
G75*
G03X4415000Y-11970000I-30000J0D01*
G01*
X4415000Y-12340000D02*
G75*
G03X4415000Y-12340000I-30000J0D01*
G01*
X4565000Y-11970000D02*
G75*
G03X4565000Y-11970000I-30000J0D01*
G01*
X4565000Y-12340000D02*
G75*
G03X4565000Y-12340000I-30000J0D01*
G01*
X2800000Y-6362500D02*
X2800000Y-6437500D01*
X2762500Y-6400000D02*
X2837500Y-6400000D01*
X3000000Y-6362500D02*
X3000000Y-6437500D01*
X2962500Y-6400000D02*
X3037500Y-6400000D01*
X3200000Y-6362500D02*
X3200000Y-6437500D01*
X3162500Y-6400000D02*
X3237500Y-6400000D01*
X3400000Y-6362500D02*
X3400000Y-6437500D01*
X3362500Y-6400000D02*
X3437500Y-6400000D01*
X5000000Y-12062500D02*
X5000000Y-12137500D01*
X4962500Y-12100000D02*
X5037500Y-12100000D01*
X5000000Y-12262500D02*
X5000000Y-12337500D01*
X4962500Y-12300000D02*
X5037500Y-12300000D01*
X5000000Y-12762500D02*
X5000000Y-12837500D01*
X4962500Y-12800000D02*
X5037500Y-12800000D01*
X5000000Y-12962500D02*
X5000000Y-13037500D01*
X4962500Y-13000000D02*
X5037500Y-13000000D01*
X9145941Y-11068941D02*
X9145941Y-11015059D01*
X9092059Y-11015059D01*
X9092059Y-11068941D01*
X9145941Y-11068941D01*
X9145941Y-11322941D02*
X9145941Y-11269059D01*
X9092059Y-11269059D01*
X9092059Y-11322941D01*
X9145941Y-11322941D01*
X9145941Y-11576941D02*
X9145941Y-11523059D01*
X9092059Y-11523059D01*
X9092059Y-11576941D01*
X9145941Y-11576941D01*
X9145941Y-11830941D02*
X9145941Y-11777059D01*
X9092059Y-11777059D01*
X9092059Y-11830941D01*
X9145941Y-11830941D01*
X9145941Y-12084941D02*
X9145941Y-12031059D01*
X9092059Y-12031059D01*
X9092059Y-12084941D01*
X9145941Y-12084941D01*
X9907941Y-11068941D02*
X9907941Y-11015059D01*
X9854059Y-11015059D01*
X9854059Y-11068941D01*
X9907941Y-11068941D01*
X9907941Y-11322941D02*
X9907941Y-11269059D01*
X9854059Y-11269059D01*
X9854059Y-11322941D01*
X9907941Y-11322941D01*
X9907941Y-11576941D02*
X9907941Y-11523059D01*
X9854059Y-11523059D01*
X9854059Y-11576941D01*
X9907941Y-11576941D01*
X9907941Y-11830941D02*
X9907941Y-11777059D01*
X9854059Y-11777059D01*
X9854059Y-11830941D01*
X9907941Y-11830941D01*
X9907941Y-12084941D02*
X9907941Y-12031059D01*
X9854059Y-12031059D01*
X9854059Y-12084941D01*
X9907941Y-12084941D01*
X11999941Y-3199941D02*
X11999941Y-3146059D01*
X11946059Y-3146059D01*
X11946059Y-3199941D01*
X11999941Y-3199941D01*
X11999941Y-3453941D02*
X11999941Y-3400059D01*
X11946059Y-3400059D01*
X11946059Y-3453941D01*
X11999941Y-3453941D01*
X11999941Y-16599941D02*
X11999941Y-16546059D01*
X11946059Y-16546059D01*
X11946059Y-16599941D01*
X11999941Y-16599941D01*
X11999941Y-16853941D02*
X11999941Y-16800059D01*
X11946059Y-16800059D01*
X11946059Y-16853941D01*
X11999941Y-16853941D01*
X12253941Y-3199941D02*
X12253941Y-3146059D01*
X12200059Y-3146059D01*
X12200059Y-3199941D01*
X12253941Y-3199941D01*
X12253941Y-3453941D02*
X12253941Y-3400059D01*
X12200059Y-3400059D01*
X12200059Y-3453941D01*
X12253941Y-3453941D01*
X12253941Y-16599941D02*
X12253941Y-16546059D01*
X12200059Y-16546059D01*
X12200059Y-16599941D01*
X12253941Y-16599941D01*
X12253941Y-16853941D02*
X12253941Y-16800059D01*
X12200059Y-16800059D01*
X12200059Y-16853941D01*
X12253941Y-16853941D01*
X17443530Y-5430747D02*
X17443530Y-5376865D01*
X17389648Y-5376865D01*
X17389648Y-5430747D01*
X17443530Y-5430747D01*
X17443530Y-14623135D02*
X17443530Y-14569253D01*
X17389648Y-14569253D01*
X17389648Y-14623135D01*
X17443530Y-14623135D01*
X17623135Y-5251142D02*
X17623135Y-5197260D01*
X17569253Y-5197260D01*
X17569253Y-5251142D01*
X17623135Y-5251142D01*
X17623135Y-5610352D02*
X17623135Y-5556470D01*
X17569253Y-5556470D01*
X17569253Y-5610352D01*
X17623135Y-5610352D01*
X17623135Y-14443530D02*
X17623135Y-14389648D01*
X17569253Y-14389648D01*
X17569253Y-14443530D01*
X17623135Y-14443530D01*
X17623135Y-14802740D02*
X17623135Y-14748858D01*
X17569253Y-14748858D01*
X17569253Y-14802740D01*
X17623135Y-14802740D01*
X17802740Y-5430747D02*
X17802740Y-5376865D01*
X17748858Y-5376865D01*
X17748858Y-5430747D01*
X17802740Y-5430747D01*
X17802740Y-14623135D02*
X17802740Y-14569253D01*
X17748858Y-14569253D01*
X17748858Y-14623135D01*
X17802740Y-14623135D01*
X18174553Y-6267506D02*
X18174553Y-6213624D01*
X18120671Y-6213624D01*
X18120671Y-6267506D01*
X18174553Y-6267506D01*
X18174553Y-13786376D02*
X18174553Y-13732494D01*
X18120671Y-13732494D01*
X18120671Y-13786376D01*
X18174553Y-13786376D01*
X18320241Y-6475571D02*
X18320241Y-6421689D01*
X18266359Y-6421689D01*
X18266359Y-6475571D01*
X18320241Y-6475571D01*
X18320241Y-13578311D02*
X18320241Y-13524429D01*
X18266359Y-13524429D01*
X18266359Y-13578311D01*
X18320241Y-13578311D01*
X18382617Y-6121818D02*
X18382617Y-6067936D01*
X18328735Y-6067936D01*
X18328735Y-6121818D01*
X18382617Y-6121818D01*
X18382617Y-13932064D02*
X18382617Y-13878182D01*
X18328735Y-13878182D01*
X18328735Y-13932064D01*
X18382617Y-13932064D01*
X18528306Y-6329882D02*
X18528306Y-6276000D01*
X18474424Y-6276000D01*
X18474424Y-6329882D01*
X18528306Y-6329882D01*
X18528306Y-13724000D02*
X18528306Y-13670118D01*
X18474424Y-13670118D01*
X18474424Y-13724000D01*
X18528306Y-13724000D01*
X18749168Y-7218494D02*
X18749168Y-7164612D01*
X18695286Y-7164612D01*
X18695286Y-7218494D01*
X18749168Y-7218494D01*
X18749168Y-12835388D02*
X18749168Y-12781506D01*
X18695286Y-12781506D01*
X18695286Y-12835388D01*
X18749168Y-12835388D01*
X18856513Y-7448696D02*
X18856513Y-7394814D01*
X18802631Y-7394814D01*
X18802631Y-7448696D01*
X18856513Y-7448696D01*
X18856513Y-12605186D02*
X18856513Y-12551304D01*
X18802631Y-12551304D01*
X18802631Y-12605186D01*
X18856513Y-12605186D01*
X18979370Y-7111149D02*
X18979370Y-7057267D01*
X18925488Y-7057267D01*
X18925488Y-7111149D01*
X18979370Y-7111149D01*
X18979370Y-12942733D02*
X18979370Y-12888851D01*
X18925488Y-12888851D01*
X18925488Y-12942733D01*
X18979370Y-12942733D01*
X19086715Y-7341351D02*
X19086715Y-7287469D01*
X19032833Y-7287469D01*
X19032833Y-7341351D01*
X19086715Y-7341351D01*
X19086715Y-12712531D02*
X19086715Y-12658649D01*
X19032833Y-12658649D01*
X19032833Y-12712531D01*
X19086715Y-12712531D01*
X19149916Y-8254815D02*
X19149916Y-8200933D01*
X19096034Y-8200933D01*
X19096034Y-8254815D01*
X19149916Y-8254815D01*
X19149916Y-11799067D02*
X19149916Y-11745185D01*
X19096034Y-11745185D01*
X19096034Y-11799067D01*
X19149916Y-11799067D01*
X19215656Y-8500160D02*
X19215656Y-8446278D01*
X19161774Y-8446278D01*
X19161774Y-8500160D01*
X19215656Y-8500160D01*
X19215656Y-11553722D02*
X19215656Y-11499840D01*
X19161774Y-11499840D01*
X19161774Y-11553722D01*
X19215656Y-11553722D01*
X19364621Y-9344981D02*
X19364621Y-9291099D01*
X19310739Y-9291099D01*
X19310739Y-9344981D01*
X19364621Y-9344981D01*
X19364621Y-10708901D02*
X19364621Y-10655019D01*
X19310739Y-10655019D01*
X19310739Y-10708901D01*
X19364621Y-10708901D01*
X19386759Y-9598014D02*
X19386759Y-9544132D01*
X19332877Y-9544132D01*
X19332877Y-9598014D01*
X19386759Y-9598014D01*
X19386759Y-10455868D02*
X19386759Y-10401986D01*
X19332877Y-10401986D01*
X19332877Y-10455868D01*
X19386759Y-10455868D01*
X19395262Y-8189075D02*
X19395262Y-8135193D01*
X19341380Y-8135193D01*
X19341380Y-8189075D01*
X19395262Y-8189075D01*
X19395262Y-11864807D02*
X19395262Y-11810925D01*
X19341380Y-11810925D01*
X19341380Y-11864807D01*
X19395262Y-11864807D01*
X19461002Y-8434420D02*
X19461002Y-8380538D01*
X19407120Y-8380538D01*
X19407120Y-8434420D01*
X19461002Y-8434420D01*
X19461002Y-11619462D02*
X19461002Y-11565580D01*
X19407120Y-11565580D01*
X19407120Y-11619462D01*
X19461002Y-11619462D01*
X19617654Y-9322843D02*
X19617654Y-9268961D01*
X19563772Y-9268961D01*
X19563772Y-9322843D01*
X19617654Y-9322843D01*
X19617654Y-10731039D02*
X19617654Y-10677157D01*
X19563772Y-10677157D01*
X19563772Y-10731039D01*
X19617654Y-10731039D01*
X19639792Y-9575877D02*
X19639792Y-9521995D01*
X19585910Y-9521995D01*
X19585910Y-9575877D01*
X19639792Y-9575877D01*
X19639792Y-10478005D02*
X19639792Y-10424123D01*
X19585910Y-10424123D01*
X19585910Y-10478005D01*
X19639792Y-10478005D01*
X3800000Y-11209000D02*
X3840000Y-11169000D01*
X3800000Y-11129000D01*
X3760000Y-11169000D01*
X3800000Y-11209000D01*
X3800000Y-11463000D02*
X3840000Y-11423000D01*
X3800000Y-11383000D01*
X3760000Y-11423000D01*
X3800000Y-11463000D01*
X3800000Y-11717000D02*
X3840000Y-11677000D01*
X3800000Y-11637000D01*
X3760000Y-11677000D01*
X3800000Y-11717000D01*
X3800000Y-11971000D02*
X3840000Y-11931000D01*
X3800000Y-11891000D01*
X3760000Y-11931000D01*
X3800000Y-11971000D01*
X4750000Y-3650000D02*
X4850000Y-3750000D01*
X4850000Y-3650000D02*
X4750000Y-3750000D01*
X4850000Y-3700000D02*
G75*
G03X4850000Y-3700000I-50000J0D01*
G01*
X4750000Y-14650000D02*
X4850000Y-14750000D01*
X4850000Y-14650000D02*
X4750000Y-14750000D01*
X4850000Y-14700000D02*
G75*
G03X4850000Y-14700000I-50000J0D01*
G01*
X5000000Y-3650000D02*
X5100000Y-3750000D01*
X5100000Y-3650000D02*
X5000000Y-3750000D01*
X5100000Y-3700000D02*
G75*
G03X5100000Y-3700000I-50000J0D01*
G01*
X5000000Y-14650000D02*
X5100000Y-14750000D01*
X5100000Y-14650000D02*
X5000000Y-14750000D01*
X5100000Y-14700000D02*
G75*
G03X5100000Y-14700000I-50000J0D01*
G01*
X5250000Y-3650000D02*
X5350000Y-3750000D01*
X5350000Y-3650000D02*
X5250000Y-3750000D01*
X5350000Y-3700000D02*
G75*
G03X5350000Y-3700000I-50000J0D01*
G01*
X5250000Y-14650000D02*
X5350000Y-14750000D01*
X5350000Y-14650000D02*
X5250000Y-14750000D01*
X5350000Y-14700000D02*
G75*
G03X5350000Y-14700000I-50000J0D01*
G01*
X7704000Y-14800000D02*
X7804000Y-14900000D01*
X7804000Y-14800000D02*
X7704000Y-14900000D01*
X7804000Y-14850000D02*
G75*
G03X7804000Y-14850000I-50000J0D01*
G01*
X7954000Y-14800000D02*
X8054000Y-14900000D01*
X8054000Y-14800000D02*
X7954000Y-14900000D01*
X8054000Y-14850000D02*
G75*
G03X8054000Y-14850000I-50000J0D01*
G01*
X8204000Y-14800000D02*
X8304000Y-14900000D01*
X8304000Y-14800000D02*
X8204000Y-14900000D01*
X8304000Y-14850000D02*
G75*
G03X8304000Y-14850000I-50000J0D01*
G01*
X8750000Y-3650000D02*
X8850000Y-3750000D01*
X8850000Y-3650000D02*
X8750000Y-3750000D01*
X8850000Y-3700000D02*
G75*
G03X8850000Y-3700000I-50000J0D01*
G01*
X9000000Y-3650000D02*
X9100000Y-3750000D01*
X9100000Y-3650000D02*
X9000000Y-3750000D01*
X9100000Y-3700000D02*
G75*
G03X9100000Y-3700000I-50000J0D01*
G01*
X9250000Y-3650000D02*
X9350000Y-3750000D01*
X9350000Y-3650000D02*
X9250000Y-3750000D01*
X9350000Y-3700000D02*
G75*
G03X9350000Y-3700000I-50000J0D01*
G01*
X4447500Y-7534000D02*
X4552500Y-7639000D01*
X4552500Y-7534000D02*
X4447500Y-7639000D01*
X4500000Y-7534000D02*
X4500000Y-7639000D01*
X4447500Y-7586500D02*
X4552500Y-7586500D01*
X4447500Y-7784000D02*
X4552500Y-7889000D01*
X4552500Y-7784000D02*
X4447500Y-7889000D01*
X4500000Y-7784000D02*
X4500000Y-7889000D01*
X4447500Y-7836500D02*
X4552500Y-7836500D01*
X7824500Y-16197500D02*
X7929500Y-16302500D01*
X7929500Y-16197500D02*
X7824500Y-16302500D01*
X7877000Y-16197500D02*
X7877000Y-16302500D01*
X7824500Y-16250000D02*
X7929500Y-16250000D01*
X8074500Y-16197500D02*
X8179500Y-16302500D01*
X8179500Y-16197500D02*
X8074500Y-16302500D01*
X8127000Y-16197500D02*
X8127000Y-16302500D01*
X8074500Y-16250000D02*
X8179500Y-16250000D01*
D13*
X2766429Y-17470714D02*
X2766429Y-17170714D01*
X2837857Y-17170714D01*
X2880714Y-17185000D01*
X2909286Y-17213572D01*
X2923571Y-17242143D01*
X2937857Y-17299286D01*
X2937857Y-17342143D01*
X2923571Y-17399286D01*
X2909286Y-17427857D01*
X2880714Y-17456429D01*
X2837857Y-17470714D01*
X2766429Y-17470714D01*
X3066428Y-17470714D02*
X3066428Y-17270714D01*
X3066428Y-17327857D02*
X3080714Y-17299286D01*
X3095000Y-17285000D01*
X3123571Y-17270714D01*
X3152143Y-17270714D01*
X3252143Y-17470714D02*
X3252143Y-17270714D01*
X3252143Y-17170714D02*
X3237857Y-17185000D01*
X3252143Y-17199286D01*
X3266428Y-17185000D01*
X3252143Y-17170714D01*
X3252143Y-17199286D01*
X3437857Y-17470714D02*
X3409286Y-17456429D01*
X3395000Y-17427857D01*
X3395000Y-17170714D01*
X3595000Y-17470714D02*
X3566428Y-17456429D01*
X3552143Y-17427857D01*
X3552143Y-17170714D01*
X3937857Y-17470714D02*
X3937857Y-17170714D01*
X4037857Y-17385000D01*
X4137857Y-17170714D01*
X4137857Y-17470714D01*
X4409286Y-17470714D02*
X4409286Y-17313572D01*
X4395000Y-17285000D01*
X4366429Y-17270714D01*
X4309286Y-17270714D01*
X4280714Y-17285000D01*
X4409286Y-17456429D02*
X4380714Y-17470714D01*
X4309286Y-17470714D01*
X4280714Y-17456429D01*
X4266429Y-17427857D01*
X4266429Y-17399286D01*
X4280714Y-17370714D01*
X4309286Y-17356429D01*
X4380714Y-17356429D01*
X4409286Y-17342143D01*
X4552143Y-17270714D02*
X4552143Y-17570714D01*
X4552143Y-17285000D02*
X4580714Y-17270714D01*
X4637857Y-17270714D01*
X4666429Y-17285000D01*
X4680714Y-17299286D01*
X4695000Y-17327857D01*
X4695000Y-17413572D01*
X4680714Y-17442143D01*
X4666429Y-17456429D01*
X4637857Y-17470714D01*
X4580714Y-17470714D01*
X4552143Y-17456429D01*
X4823571Y-17442143D02*
X4837857Y-17456429D01*
X4823571Y-17470714D01*
X4809286Y-17456429D01*
X4823571Y-17442143D01*
X4823571Y-17470714D01*
X4823571Y-17285000D02*
X4837857Y-17299286D01*
X4823571Y-17313572D01*
X4809286Y-17299286D01*
X4823571Y-17285000D01*
X4823571Y-17313572D01*
X2455000Y-17945000D02*
X2495000Y-17985000D01*
X2495000Y-17945000D02*
X2455000Y-17985000D01*
X2823571Y-17800714D02*
X2852143Y-17800714D01*
X2880714Y-17815000D01*
X2895000Y-17829286D01*
X2909286Y-17857857D01*
X2923571Y-17915000D01*
X2923571Y-17986429D01*
X2909286Y-18043572D01*
X2895000Y-18072143D01*
X2880714Y-18086429D01*
X2852143Y-18100714D01*
X2823571Y-18100714D01*
X2795000Y-18086429D01*
X2780714Y-18072143D01*
X2766429Y-18043572D01*
X2752143Y-17986429D01*
X2752143Y-17915000D01*
X2766429Y-17857857D01*
X2780714Y-17829286D01*
X2795000Y-17815000D01*
X2823571Y-17800714D01*
X3052143Y-18072143D02*
X3066428Y-18086429D01*
X3052143Y-18100714D01*
X3037857Y-18086429D01*
X3052143Y-18072143D01*
X3052143Y-18100714D01*
X3323571Y-17900714D02*
X3323571Y-18100714D01*
X3252143Y-17786429D02*
X3180714Y-18000714D01*
X3366428Y-18000714D01*
X3537857Y-17800714D02*
X3566428Y-17800714D01*
X3595000Y-17815000D01*
X3609286Y-17829286D01*
X3623571Y-17857857D01*
X3637857Y-17915000D01*
X3637857Y-17986429D01*
X3623571Y-18043572D01*
X3609286Y-18072143D01*
X3595000Y-18086429D01*
X3566428Y-18100714D01*
X3537857Y-18100714D01*
X3509286Y-18086429D01*
X3495000Y-18072143D01*
X3480714Y-18043572D01*
X3466428Y-17986429D01*
X3466428Y-17915000D01*
X3480714Y-17857857D01*
X3495000Y-17829286D01*
X3509286Y-17815000D01*
X3537857Y-17800714D01*
X3766428Y-18100714D02*
X3766428Y-17900714D01*
X3766428Y-17929286D02*
X3780714Y-17915000D01*
X3809286Y-17900714D01*
X3852143Y-17900714D01*
X3880714Y-17915000D01*
X3895000Y-17943572D01*
X3895000Y-18100714D01*
X3895000Y-17943572D02*
X3909286Y-17915000D01*
X3937857Y-17900714D01*
X3980714Y-17900714D01*
X4009286Y-17915000D01*
X4023571Y-17943572D01*
X4023571Y-18100714D01*
X4166428Y-18100714D02*
X4166428Y-17900714D01*
X4166428Y-17929286D02*
X4180714Y-17915000D01*
X4209286Y-17900714D01*
X4252143Y-17900714D01*
X4280714Y-17915000D01*
X4295000Y-17943572D01*
X4295000Y-18100714D01*
X4295000Y-17943572D02*
X4309286Y-17915000D01*
X4337857Y-17900714D01*
X4380714Y-17900714D01*
X4409286Y-17915000D01*
X4423571Y-17943572D01*
X4423571Y-18100714D01*
X5009286Y-17786429D02*
X4752143Y-18172143D01*
X5395000Y-17800714D02*
X5423571Y-17800714D01*
X5452143Y-17815000D01*
X5466428Y-17829286D01*
X5480714Y-17857857D01*
X5495000Y-17915000D01*
X5495000Y-17986429D01*
X5480714Y-18043572D01*
X5466428Y-18072143D01*
X5452143Y-18086429D01*
X5423571Y-18100714D01*
X5395000Y-18100714D01*
X5366428Y-18086429D01*
X5352143Y-18072143D01*
X5337857Y-18043572D01*
X5323571Y-17986429D01*
X5323571Y-17915000D01*
X5337857Y-17857857D01*
X5352143Y-17829286D01*
X5366428Y-17815000D01*
X5395000Y-17800714D01*
X5623571Y-18072143D02*
X5637857Y-18086429D01*
X5623571Y-18100714D01*
X5609286Y-18086429D01*
X5623571Y-18072143D01*
X5623571Y-18100714D01*
X5823571Y-17800714D02*
X5852143Y-17800714D01*
X5880714Y-17815000D01*
X5895000Y-17829286D01*
X5909285Y-17857857D01*
X5923571Y-17915000D01*
X5923571Y-17986429D01*
X5909285Y-18043572D01*
X5895000Y-18072143D01*
X5880714Y-18086429D01*
X5852143Y-18100714D01*
X5823571Y-18100714D01*
X5795000Y-18086429D01*
X5780714Y-18072143D01*
X5766428Y-18043572D01*
X5752143Y-17986429D01*
X5752143Y-17915000D01*
X5766428Y-17857857D01*
X5780714Y-17829286D01*
X5795000Y-17815000D01*
X5823571Y-17800714D01*
X6209285Y-18100714D02*
X6037857Y-18100714D01*
X6123571Y-18100714D02*
X6123571Y-17800714D01*
X6095000Y-17843572D01*
X6066428Y-17872143D01*
X6037857Y-17886429D01*
X6466428Y-17800714D02*
X6409285Y-17800714D01*
X6380714Y-17815000D01*
X6366428Y-17829286D01*
X6337857Y-17872143D01*
X6323571Y-17929286D01*
X6323571Y-18043572D01*
X6337857Y-18072143D01*
X6352143Y-18086429D01*
X6380714Y-18100714D01*
X6437857Y-18100714D01*
X6466428Y-18086429D01*
X6480714Y-18072143D01*
X6495000Y-18043572D01*
X6495000Y-17972143D01*
X6480714Y-17943572D01*
X6466428Y-17929286D01*
X6437857Y-17915000D01*
X6380714Y-17915000D01*
X6352143Y-17929286D01*
X6337857Y-17943572D01*
X6323571Y-17972143D01*
X6609286Y-17800714D02*
X6609286Y-17857857D01*
X6723571Y-17800714D02*
X6723571Y-17857857D01*
X7166428Y-18215000D02*
X7152143Y-18200714D01*
X7123571Y-18157857D01*
X7109285Y-18129286D01*
X7095000Y-18086429D01*
X7080714Y-18015000D01*
X7080714Y-17957857D01*
X7095000Y-17886429D01*
X7109285Y-17843572D01*
X7123571Y-17815000D01*
X7152143Y-17772143D01*
X7166428Y-17757857D01*
X7409285Y-17900714D02*
X7409285Y-18100714D01*
X7337857Y-17786429D02*
X7266428Y-18000714D01*
X7452143Y-18000714D01*
X7709285Y-17800714D02*
X7566428Y-17800714D01*
X7552143Y-17943572D01*
X7566428Y-17929286D01*
X7595000Y-17915000D01*
X7666428Y-17915000D01*
X7695000Y-17929286D01*
X7709285Y-17943572D01*
X7723571Y-17972143D01*
X7723571Y-18043572D01*
X7709285Y-18072143D01*
X7695000Y-18086429D01*
X7666428Y-18100714D01*
X7595000Y-18100714D01*
X7566428Y-18086429D01*
X7552143Y-18072143D01*
X7837857Y-17829286D02*
X7852143Y-17815000D01*
X7880714Y-17800714D01*
X7952143Y-17800714D01*
X7980714Y-17815000D01*
X7995000Y-17829286D01*
X8009285Y-17857857D01*
X8009285Y-17886429D01*
X7995000Y-17929286D01*
X7823571Y-18100714D01*
X8009285Y-18100714D01*
X8366428Y-18100714D02*
X8366428Y-17800714D01*
X8495000Y-18100714D02*
X8495000Y-17943572D01*
X8480714Y-17915000D01*
X8452143Y-17900714D01*
X8409286Y-17900714D01*
X8380714Y-17915000D01*
X8366428Y-17929286D01*
X8680714Y-18100714D02*
X8652143Y-18086429D01*
X8637857Y-18072143D01*
X8623571Y-18043572D01*
X8623571Y-17957857D01*
X8637857Y-17929286D01*
X8652143Y-17915000D01*
X8680714Y-17900714D01*
X8723571Y-17900714D01*
X8752143Y-17915000D01*
X8766428Y-17929286D01*
X8780714Y-17957857D01*
X8780714Y-18043572D01*
X8766428Y-18072143D01*
X8752143Y-18086429D01*
X8723571Y-18100714D01*
X8680714Y-18100714D01*
X8952143Y-18100714D02*
X8923571Y-18086429D01*
X8909286Y-18057857D01*
X8909286Y-17800714D01*
X9180714Y-18086429D02*
X9152143Y-18100714D01*
X9095000Y-18100714D01*
X9066429Y-18086429D01*
X9052143Y-18057857D01*
X9052143Y-17943572D01*
X9066429Y-17915000D01*
X9095000Y-17900714D01*
X9152143Y-17900714D01*
X9180714Y-17915000D01*
X9195000Y-17943572D01*
X9195000Y-17972143D01*
X9052143Y-18000714D01*
X9309286Y-18086429D02*
X9337857Y-18100714D01*
X9395000Y-18100714D01*
X9423571Y-18086429D01*
X9437857Y-18057857D01*
X9437857Y-18043572D01*
X9423571Y-18015000D01*
X9395000Y-18000714D01*
X9352143Y-18000714D01*
X9323571Y-17986429D01*
X9309286Y-17957857D01*
X9309286Y-17943572D01*
X9323571Y-17915000D01*
X9352143Y-17900714D01*
X9395000Y-17900714D01*
X9423571Y-17915000D01*
X9537857Y-18215000D02*
X9552143Y-18200714D01*
X9580714Y-18157857D01*
X9595000Y-18129286D01*
X9609286Y-18086429D01*
X9623571Y-18015000D01*
X9623571Y-17957857D01*
X9609286Y-17886429D01*
X9595000Y-17843572D01*
X9580714Y-17815000D01*
X9552143Y-17772143D01*
X9537857Y-17757857D01*
X2495000Y-18361000D02*
G75*
G03X2495000Y-18361000I-30000J0D01*
G01*
X2823571Y-18196714D02*
X2852143Y-18196714D01*
X2880714Y-18211000D01*
X2895000Y-18225286D01*
X2909286Y-18253857D01*
X2923571Y-18311000D01*
X2923571Y-18382429D01*
X2909286Y-18439572D01*
X2895000Y-18468143D01*
X2880714Y-18482429D01*
X2852143Y-18496714D01*
X2823571Y-18496714D01*
X2795000Y-18482429D01*
X2780714Y-18468143D01*
X2766429Y-18439572D01*
X2752143Y-18382429D01*
X2752143Y-18311000D01*
X2766429Y-18253857D01*
X2780714Y-18225286D01*
X2795000Y-18211000D01*
X2823571Y-18196714D01*
X3052143Y-18468143D02*
X3066428Y-18482429D01*
X3052143Y-18496714D01*
X3037857Y-18482429D01*
X3052143Y-18468143D01*
X3052143Y-18496714D01*
X3323571Y-18196714D02*
X3266428Y-18196714D01*
X3237857Y-18211000D01*
X3223571Y-18225286D01*
X3195000Y-18268143D01*
X3180714Y-18325286D01*
X3180714Y-18439572D01*
X3195000Y-18468143D01*
X3209286Y-18482429D01*
X3237857Y-18496714D01*
X3295000Y-18496714D01*
X3323571Y-18482429D01*
X3337857Y-18468143D01*
X3352143Y-18439572D01*
X3352143Y-18368143D01*
X3337857Y-18339572D01*
X3323571Y-18325286D01*
X3295000Y-18311000D01*
X3237857Y-18311000D01*
X3209286Y-18325286D01*
X3195000Y-18339572D01*
X3180714Y-18368143D01*
X3537857Y-18196714D02*
X3566428Y-18196714D01*
X3595000Y-18211000D01*
X3609286Y-18225286D01*
X3623571Y-18253857D01*
X3637857Y-18311000D01*
X3637857Y-18382429D01*
X3623571Y-18439572D01*
X3609286Y-18468143D01*
X3595000Y-18482429D01*
X3566428Y-18496714D01*
X3537857Y-18496714D01*
X3509286Y-18482429D01*
X3495000Y-18468143D01*
X3480714Y-18439572D01*
X3466428Y-18382429D01*
X3466428Y-18311000D01*
X3480714Y-18253857D01*
X3495000Y-18225286D01*
X3509286Y-18211000D01*
X3537857Y-18196714D01*
X3766428Y-18496714D02*
X3766428Y-18296714D01*
X3766428Y-18325286D02*
X3780714Y-18311000D01*
X3809286Y-18296714D01*
X3852143Y-18296714D01*
X3880714Y-18311000D01*
X3895000Y-18339572D01*
X3895000Y-18496714D01*
X3895000Y-18339572D02*
X3909286Y-18311000D01*
X3937857Y-18296714D01*
X3980714Y-18296714D01*
X4009286Y-18311000D01*
X4023571Y-18339572D01*
X4023571Y-18496714D01*
X4166428Y-18496714D02*
X4166428Y-18296714D01*
X4166428Y-18325286D02*
X4180714Y-18311000D01*
X4209286Y-18296714D01*
X4252143Y-18296714D01*
X4280714Y-18311000D01*
X4295000Y-18339572D01*
X4295000Y-18496714D01*
X4295000Y-18339572D02*
X4309286Y-18311000D01*
X4337857Y-18296714D01*
X4380714Y-18296714D01*
X4409286Y-18311000D01*
X4423571Y-18339572D01*
X4423571Y-18496714D01*
X5009286Y-18182429D02*
X4752143Y-18568143D01*
X5395000Y-18196714D02*
X5423571Y-18196714D01*
X5452143Y-18211000D01*
X5466428Y-18225286D01*
X5480714Y-18253857D01*
X5495000Y-18311000D01*
X5495000Y-18382429D01*
X5480714Y-18439572D01*
X5466428Y-18468143D01*
X5452143Y-18482429D01*
X5423571Y-18496714D01*
X5395000Y-18496714D01*
X5366428Y-18482429D01*
X5352143Y-18468143D01*
X5337857Y-18439572D01*
X5323571Y-18382429D01*
X5323571Y-18311000D01*
X5337857Y-18253857D01*
X5352143Y-18225286D01*
X5366428Y-18211000D01*
X5395000Y-18196714D01*
X5623571Y-18468143D02*
X5637857Y-18482429D01*
X5623571Y-18496714D01*
X5609286Y-18482429D01*
X5623571Y-18468143D01*
X5623571Y-18496714D01*
X5823571Y-18196714D02*
X5852143Y-18196714D01*
X5880714Y-18211000D01*
X5895000Y-18225286D01*
X5909285Y-18253857D01*
X5923571Y-18311000D01*
X5923571Y-18382429D01*
X5909285Y-18439572D01*
X5895000Y-18468143D01*
X5880714Y-18482429D01*
X5852143Y-18496714D01*
X5823571Y-18496714D01*
X5795000Y-18482429D01*
X5780714Y-18468143D01*
X5766428Y-18439572D01*
X5752143Y-18382429D01*
X5752143Y-18311000D01*
X5766428Y-18253857D01*
X5780714Y-18225286D01*
X5795000Y-18211000D01*
X5823571Y-18196714D01*
X6037857Y-18225286D02*
X6052143Y-18211000D01*
X6080714Y-18196714D01*
X6152143Y-18196714D01*
X6180714Y-18211000D01*
X6195000Y-18225286D01*
X6209285Y-18253857D01*
X6209285Y-18282429D01*
X6195000Y-18325286D01*
X6023571Y-18496714D01*
X6209285Y-18496714D01*
X6466428Y-18296714D02*
X6466428Y-18496714D01*
X6395000Y-18182429D02*
X6323571Y-18396714D01*
X6509285Y-18396714D01*
X6609286Y-18196714D02*
X6609286Y-18253857D01*
X6723571Y-18196714D02*
X6723571Y-18253857D01*
X7166428Y-18611000D02*
X7152143Y-18596714D01*
X7123571Y-18553857D01*
X7109285Y-18525286D01*
X7095000Y-18482429D01*
X7080714Y-18411000D01*
X7080714Y-18353857D01*
X7095000Y-18282429D01*
X7109285Y-18239572D01*
X7123571Y-18211000D01*
X7152143Y-18168143D01*
X7166428Y-18153857D01*
X7409285Y-18296714D02*
X7409285Y-18496714D01*
X7337857Y-18182429D02*
X7266428Y-18396714D01*
X7452143Y-18396714D01*
X7795000Y-18496714D02*
X7795000Y-18196714D01*
X7923571Y-18496714D02*
X7923571Y-18339572D01*
X7909285Y-18311000D01*
X7880714Y-18296714D01*
X7837857Y-18296714D01*
X7809285Y-18311000D01*
X7795000Y-18325286D01*
X8109285Y-18496714D02*
X8080714Y-18482429D01*
X8066428Y-18468143D01*
X8052143Y-18439572D01*
X8052143Y-18353857D01*
X8066428Y-18325286D01*
X8080714Y-18311000D01*
X8109285Y-18296714D01*
X8152143Y-18296714D01*
X8180714Y-18311000D01*
X8195000Y-18325286D01*
X8209285Y-18353857D01*
X8209285Y-18439572D01*
X8195000Y-18468143D01*
X8180714Y-18482429D01*
X8152143Y-18496714D01*
X8109285Y-18496714D01*
X8380714Y-18496714D02*
X8352143Y-18482429D01*
X8337857Y-18453857D01*
X8337857Y-18196714D01*
X8609286Y-18482429D02*
X8580714Y-18496714D01*
X8523571Y-18496714D01*
X8495000Y-18482429D01*
X8480714Y-18453857D01*
X8480714Y-18339572D01*
X8495000Y-18311000D01*
X8523571Y-18296714D01*
X8580714Y-18296714D01*
X8609286Y-18311000D01*
X8623571Y-18339572D01*
X8623571Y-18368143D01*
X8480714Y-18396714D01*
X8737857Y-18482429D02*
X8766429Y-18496714D01*
X8823571Y-18496714D01*
X8852143Y-18482429D01*
X8866429Y-18453857D01*
X8866429Y-18439572D01*
X8852143Y-18411000D01*
X8823571Y-18396714D01*
X8780714Y-18396714D01*
X8752143Y-18382429D01*
X8737857Y-18353857D01*
X8737857Y-18339572D01*
X8752143Y-18311000D01*
X8780714Y-18296714D01*
X8823571Y-18296714D01*
X8852143Y-18311000D01*
X8966428Y-18611000D02*
X8980714Y-18596714D01*
X9009286Y-18553857D01*
X9023571Y-18525286D01*
X9037857Y-18482429D01*
X9052143Y-18411000D01*
X9052143Y-18353857D01*
X9037857Y-18282429D01*
X9023571Y-18239572D01*
X9009286Y-18211000D01*
X8980714Y-18168143D01*
X8966428Y-18153857D01*
X2457500Y-18719500D02*
X2457500Y-18794500D01*
X2420000Y-18757000D02*
X2495000Y-18757000D01*
X2823571Y-18592714D02*
X2852143Y-18592714D01*
X2880714Y-18607000D01*
X2895000Y-18621286D01*
X2909286Y-18649857D01*
X2923571Y-18707000D01*
X2923571Y-18778429D01*
X2909286Y-18835572D01*
X2895000Y-18864143D01*
X2880714Y-18878429D01*
X2852143Y-18892714D01*
X2823571Y-18892714D01*
X2795000Y-18878429D01*
X2780714Y-18864143D01*
X2766429Y-18835572D01*
X2752143Y-18778429D01*
X2752143Y-18707000D01*
X2766429Y-18649857D01*
X2780714Y-18621286D01*
X2795000Y-18607000D01*
X2823571Y-18592714D01*
X3052143Y-18864143D02*
X3066428Y-18878429D01*
X3052143Y-18892714D01*
X3037857Y-18878429D01*
X3052143Y-18864143D01*
X3052143Y-18892714D01*
X3166428Y-18592714D02*
X3366428Y-18592714D01*
X3237857Y-18892714D01*
X3623571Y-18592714D02*
X3480714Y-18592714D01*
X3466428Y-18735572D01*
X3480714Y-18721286D01*
X3509286Y-18707000D01*
X3580714Y-18707000D01*
X3609286Y-18721286D01*
X3623571Y-18735572D01*
X3637857Y-18764143D01*
X3637857Y-18835572D01*
X3623571Y-18864143D01*
X3609286Y-18878429D01*
X3580714Y-18892714D01*
X3509286Y-18892714D01*
X3480714Y-18878429D01*
X3466428Y-18864143D01*
X3766428Y-18892714D02*
X3766428Y-18692714D01*
X3766428Y-18721286D02*
X3780714Y-18707000D01*
X3809286Y-18692714D01*
X3852143Y-18692714D01*
X3880714Y-18707000D01*
X3895000Y-18735572D01*
X3895000Y-18892714D01*
X3895000Y-18735572D02*
X3909286Y-18707000D01*
X3937857Y-18692714D01*
X3980714Y-18692714D01*
X4009286Y-18707000D01*
X4023571Y-18735572D01*
X4023571Y-18892714D01*
X4166428Y-18892714D02*
X4166428Y-18692714D01*
X4166428Y-18721286D02*
X4180714Y-18707000D01*
X4209286Y-18692714D01*
X4252143Y-18692714D01*
X4280714Y-18707000D01*
X4295000Y-18735572D01*
X4295000Y-18892714D01*
X4295000Y-18735572D02*
X4309286Y-18707000D01*
X4337857Y-18692714D01*
X4380714Y-18692714D01*
X4409286Y-18707000D01*
X4423571Y-18735572D01*
X4423571Y-18892714D01*
X5009286Y-18578429D02*
X4752143Y-18964143D01*
X5395000Y-18592714D02*
X5423571Y-18592714D01*
X5452143Y-18607000D01*
X5466428Y-18621286D01*
X5480714Y-18649857D01*
X5495000Y-18707000D01*
X5495000Y-18778429D01*
X5480714Y-18835572D01*
X5466428Y-18864143D01*
X5452143Y-18878429D01*
X5423571Y-18892714D01*
X5395000Y-18892714D01*
X5366428Y-18878429D01*
X5352143Y-18864143D01*
X5337857Y-18835572D01*
X5323571Y-18778429D01*
X5323571Y-18707000D01*
X5337857Y-18649857D01*
X5352143Y-18621286D01*
X5366428Y-18607000D01*
X5395000Y-18592714D01*
X5623571Y-18864143D02*
X5637857Y-18878429D01*
X5623571Y-18892714D01*
X5609286Y-18878429D01*
X5623571Y-18864143D01*
X5623571Y-18892714D01*
X5823571Y-18592714D02*
X5852143Y-18592714D01*
X5880714Y-18607000D01*
X5895000Y-18621286D01*
X5909285Y-18649857D01*
X5923571Y-18707000D01*
X5923571Y-18778429D01*
X5909285Y-18835572D01*
X5895000Y-18864143D01*
X5880714Y-18878429D01*
X5852143Y-18892714D01*
X5823571Y-18892714D01*
X5795000Y-18878429D01*
X5780714Y-18864143D01*
X5766428Y-18835572D01*
X5752143Y-18778429D01*
X5752143Y-18707000D01*
X5766428Y-18649857D01*
X5780714Y-18621286D01*
X5795000Y-18607000D01*
X5823571Y-18592714D01*
X6023571Y-18592714D02*
X6209285Y-18592714D01*
X6109285Y-18707000D01*
X6152143Y-18707000D01*
X6180714Y-18721286D01*
X6195000Y-18735572D01*
X6209285Y-18764143D01*
X6209285Y-18835572D01*
X6195000Y-18864143D01*
X6180714Y-18878429D01*
X6152143Y-18892714D01*
X6066428Y-18892714D01*
X6037857Y-18878429D01*
X6023571Y-18864143D01*
X6395000Y-18592714D02*
X6423571Y-18592714D01*
X6452143Y-18607000D01*
X6466428Y-18621286D01*
X6480714Y-18649857D01*
X6495000Y-18707000D01*
X6495000Y-18778429D01*
X6480714Y-18835572D01*
X6466428Y-18864143D01*
X6452143Y-18878429D01*
X6423571Y-18892714D01*
X6395000Y-18892714D01*
X6366428Y-18878429D01*
X6352143Y-18864143D01*
X6337857Y-18835572D01*
X6323571Y-18778429D01*
X6323571Y-18707000D01*
X6337857Y-18649857D01*
X6352143Y-18621286D01*
X6366428Y-18607000D01*
X6395000Y-18592714D01*
X6609286Y-18592714D02*
X6609286Y-18649857D01*
X6723571Y-18592714D02*
X6723571Y-18649857D01*
X7166428Y-19007000D02*
X7152143Y-18992714D01*
X7123571Y-18949857D01*
X7109285Y-18921286D01*
X7095000Y-18878429D01*
X7080714Y-18807000D01*
X7080714Y-18749857D01*
X7095000Y-18678429D01*
X7109285Y-18635572D01*
X7123571Y-18607000D01*
X7152143Y-18564143D01*
X7166428Y-18549857D01*
X7323571Y-18721286D02*
X7295000Y-18707000D01*
X7280714Y-18692714D01*
X7266428Y-18664143D01*
X7266428Y-18649857D01*
X7280714Y-18621286D01*
X7295000Y-18607000D01*
X7323571Y-18592714D01*
X7380714Y-18592714D01*
X7409285Y-18607000D01*
X7423571Y-18621286D01*
X7437857Y-18649857D01*
X7437857Y-18664143D01*
X7423571Y-18692714D01*
X7409285Y-18707000D01*
X7380714Y-18721286D01*
X7323571Y-18721286D01*
X7295000Y-18735572D01*
X7280714Y-18749857D01*
X7266428Y-18778429D01*
X7266428Y-18835572D01*
X7280714Y-18864143D01*
X7295000Y-18878429D01*
X7323571Y-18892714D01*
X7380714Y-18892714D01*
X7409285Y-18878429D01*
X7423571Y-18864143D01*
X7437857Y-18835572D01*
X7437857Y-18778429D01*
X7423571Y-18749857D01*
X7409285Y-18735572D01*
X7380714Y-18721286D01*
X7795000Y-18892714D02*
X7795000Y-18592714D01*
X7923571Y-18892714D02*
X7923571Y-18735572D01*
X7909285Y-18707000D01*
X7880714Y-18692714D01*
X7837857Y-18692714D01*
X7809285Y-18707000D01*
X7795000Y-18721286D01*
X8109285Y-18892714D02*
X8080714Y-18878429D01*
X8066428Y-18864143D01*
X8052143Y-18835572D01*
X8052143Y-18749857D01*
X8066428Y-18721286D01*
X8080714Y-18707000D01*
X8109285Y-18692714D01*
X8152143Y-18692714D01*
X8180714Y-18707000D01*
X8195000Y-18721286D01*
X8209285Y-18749857D01*
X8209285Y-18835572D01*
X8195000Y-18864143D01*
X8180714Y-18878429D01*
X8152143Y-18892714D01*
X8109285Y-18892714D01*
X8380714Y-18892714D02*
X8352143Y-18878429D01*
X8337857Y-18849857D01*
X8337857Y-18592714D01*
X8609286Y-18878429D02*
X8580714Y-18892714D01*
X8523571Y-18892714D01*
X8495000Y-18878429D01*
X8480714Y-18849857D01*
X8480714Y-18735572D01*
X8495000Y-18707000D01*
X8523571Y-18692714D01*
X8580714Y-18692714D01*
X8609286Y-18707000D01*
X8623571Y-18735572D01*
X8623571Y-18764143D01*
X8480714Y-18792714D01*
X8737857Y-18878429D02*
X8766429Y-18892714D01*
X8823571Y-18892714D01*
X8852143Y-18878429D01*
X8866429Y-18849857D01*
X8866429Y-18835572D01*
X8852143Y-18807000D01*
X8823571Y-18792714D01*
X8780714Y-18792714D01*
X8752143Y-18778429D01*
X8737857Y-18749857D01*
X8737857Y-18735572D01*
X8752143Y-18707000D01*
X8780714Y-18692714D01*
X8823571Y-18692714D01*
X8852143Y-18707000D01*
X8966428Y-19007000D02*
X8980714Y-18992714D01*
X9009286Y-18949857D01*
X9023571Y-18921286D01*
X9037857Y-18878429D01*
X9052143Y-18807000D01*
X9052143Y-18749857D01*
X9037857Y-18678429D01*
X9023571Y-18635572D01*
X9009286Y-18607000D01*
X8980714Y-18564143D01*
X8966428Y-18549857D01*
X2483841Y-19179941D02*
X2483841Y-19126059D01*
X2429959Y-19126059D01*
X2429959Y-19179941D01*
X2483841Y-19179941D01*
X2823571Y-18988714D02*
X2852143Y-18988714D01*
X2880714Y-19003000D01*
X2895000Y-19017286D01*
X2909286Y-19045857D01*
X2923571Y-19103000D01*
X2923571Y-19174429D01*
X2909286Y-19231572D01*
X2895000Y-19260143D01*
X2880714Y-19274429D01*
X2852143Y-19288714D01*
X2823571Y-19288714D01*
X2795000Y-19274429D01*
X2780714Y-19260143D01*
X2766429Y-19231572D01*
X2752143Y-19174429D01*
X2752143Y-19103000D01*
X2766429Y-19045857D01*
X2780714Y-19017286D01*
X2795000Y-19003000D01*
X2823571Y-18988714D01*
X3052143Y-19260143D02*
X3066428Y-19274429D01*
X3052143Y-19288714D01*
X3037857Y-19274429D01*
X3052143Y-19260143D01*
X3052143Y-19288714D01*
X3166428Y-18988714D02*
X3366428Y-18988714D01*
X3237857Y-19288714D01*
X3609286Y-18988714D02*
X3552143Y-18988714D01*
X3523571Y-19003000D01*
X3509286Y-19017286D01*
X3480714Y-19060143D01*
X3466428Y-19117286D01*
X3466428Y-19231572D01*
X3480714Y-19260143D01*
X3495000Y-19274429D01*
X3523571Y-19288714D01*
X3580714Y-19288714D01*
X3609286Y-19274429D01*
X3623571Y-19260143D01*
X3637857Y-19231572D01*
X3637857Y-19160143D01*
X3623571Y-19131572D01*
X3609286Y-19117286D01*
X3580714Y-19103000D01*
X3523571Y-19103000D01*
X3495000Y-19117286D01*
X3480714Y-19131572D01*
X3466428Y-19160143D01*
X3766428Y-19288714D02*
X3766428Y-19088714D01*
X3766428Y-19117286D02*
X3780714Y-19103000D01*
X3809286Y-19088714D01*
X3852143Y-19088714D01*
X3880714Y-19103000D01*
X3895000Y-19131572D01*
X3895000Y-19288714D01*
X3895000Y-19131572D02*
X3909286Y-19103000D01*
X3937857Y-19088714D01*
X3980714Y-19088714D01*
X4009286Y-19103000D01*
X4023571Y-19131572D01*
X4023571Y-19288714D01*
X4166428Y-19288714D02*
X4166428Y-19088714D01*
X4166428Y-19117286D02*
X4180714Y-19103000D01*
X4209286Y-19088714D01*
X4252143Y-19088714D01*
X4280714Y-19103000D01*
X4295000Y-19131572D01*
X4295000Y-19288714D01*
X4295000Y-19131572D02*
X4309286Y-19103000D01*
X4337857Y-19088714D01*
X4380714Y-19088714D01*
X4409286Y-19103000D01*
X4423571Y-19131572D01*
X4423571Y-19288714D01*
X5009286Y-18974429D02*
X4752143Y-19360143D01*
X5395000Y-18988714D02*
X5423571Y-18988714D01*
X5452143Y-19003000D01*
X5466428Y-19017286D01*
X5480714Y-19045857D01*
X5495000Y-19103000D01*
X5495000Y-19174429D01*
X5480714Y-19231572D01*
X5466428Y-19260143D01*
X5452143Y-19274429D01*
X5423571Y-19288714D01*
X5395000Y-19288714D01*
X5366428Y-19274429D01*
X5352143Y-19260143D01*
X5337857Y-19231572D01*
X5323571Y-19174429D01*
X5323571Y-19103000D01*
X5337857Y-19045857D01*
X5352143Y-19017286D01*
X5366428Y-19003000D01*
X5395000Y-18988714D01*
X5623571Y-19260143D02*
X5637857Y-19274429D01*
X5623571Y-19288714D01*
X5609286Y-19274429D01*
X5623571Y-19260143D01*
X5623571Y-19288714D01*
X5823571Y-18988714D02*
X5852143Y-18988714D01*
X5880714Y-19003000D01*
X5895000Y-19017286D01*
X5909285Y-19045857D01*
X5923571Y-19103000D01*
X5923571Y-19174429D01*
X5909285Y-19231572D01*
X5895000Y-19260143D01*
X5880714Y-19274429D01*
X5852143Y-19288714D01*
X5823571Y-19288714D01*
X5795000Y-19274429D01*
X5780714Y-19260143D01*
X5766428Y-19231572D01*
X5752143Y-19174429D01*
X5752143Y-19103000D01*
X5766428Y-19045857D01*
X5780714Y-19017286D01*
X5795000Y-19003000D01*
X5823571Y-18988714D01*
X6023571Y-18988714D02*
X6209285Y-18988714D01*
X6109285Y-19103000D01*
X6152143Y-19103000D01*
X6180714Y-19117286D01*
X6195000Y-19131572D01*
X6209285Y-19160143D01*
X6209285Y-19231572D01*
X6195000Y-19260143D01*
X6180714Y-19274429D01*
X6152143Y-19288714D01*
X6066428Y-19288714D01*
X6037857Y-19274429D01*
X6023571Y-19260143D01*
X6395000Y-18988714D02*
X6423571Y-18988714D01*
X6452143Y-19003000D01*
X6466428Y-19017286D01*
X6480714Y-19045857D01*
X6495000Y-19103000D01*
X6495000Y-19174429D01*
X6480714Y-19231572D01*
X6466428Y-19260143D01*
X6452143Y-19274429D01*
X6423571Y-19288714D01*
X6395000Y-19288714D01*
X6366428Y-19274429D01*
X6352143Y-19260143D01*
X6337857Y-19231572D01*
X6323571Y-19174429D01*
X6323571Y-19103000D01*
X6337857Y-19045857D01*
X6352143Y-19017286D01*
X6366428Y-19003000D01*
X6395000Y-18988714D01*
X6609286Y-18988714D02*
X6609286Y-19045857D01*
X6723571Y-18988714D02*
X6723571Y-19045857D01*
X7166428Y-19403000D02*
X7152143Y-19388714D01*
X7123571Y-19345857D01*
X7109285Y-19317286D01*
X7095000Y-19274429D01*
X7080714Y-19203000D01*
X7080714Y-19145857D01*
X7095000Y-19074429D01*
X7109285Y-19031572D01*
X7123571Y-19003000D01*
X7152143Y-18960143D01*
X7166428Y-18945857D01*
X7423571Y-18988714D02*
X7280714Y-18988714D01*
X7266428Y-19131572D01*
X7280714Y-19117286D01*
X7309285Y-19103000D01*
X7380714Y-19103000D01*
X7409285Y-19117286D01*
X7423571Y-19131572D01*
X7437857Y-19160143D01*
X7437857Y-19231572D01*
X7423571Y-19260143D01*
X7409285Y-19274429D01*
X7380714Y-19288714D01*
X7309285Y-19288714D01*
X7280714Y-19274429D01*
X7266428Y-19260143D01*
X7609285Y-19117286D02*
X7580714Y-19103000D01*
X7566428Y-19088714D01*
X7552143Y-19060143D01*
X7552143Y-19045857D01*
X7566428Y-19017286D01*
X7580714Y-19003000D01*
X7609285Y-18988714D01*
X7666428Y-18988714D01*
X7695000Y-19003000D01*
X7709285Y-19017286D01*
X7723571Y-19045857D01*
X7723571Y-19060143D01*
X7709285Y-19088714D01*
X7695000Y-19103000D01*
X7666428Y-19117286D01*
X7609285Y-19117286D01*
X7580714Y-19131572D01*
X7566428Y-19145857D01*
X7552143Y-19174429D01*
X7552143Y-19231572D01*
X7566428Y-19260143D01*
X7580714Y-19274429D01*
X7609285Y-19288714D01*
X7666428Y-19288714D01*
X7695000Y-19274429D01*
X7709285Y-19260143D01*
X7723571Y-19231572D01*
X7723571Y-19174429D01*
X7709285Y-19145857D01*
X7695000Y-19131572D01*
X7666428Y-19117286D01*
X8080714Y-19288714D02*
X8080714Y-18988714D01*
X8209285Y-19288714D02*
X8209285Y-19131572D01*
X8195000Y-19103000D01*
X8166428Y-19088714D01*
X8123571Y-19088714D01*
X8095000Y-19103000D01*
X8080714Y-19117286D01*
X8395000Y-19288714D02*
X8366428Y-19274429D01*
X8352143Y-19260143D01*
X8337857Y-19231572D01*
X8337857Y-19145857D01*
X8352143Y-19117286D01*
X8366428Y-19103000D01*
X8395000Y-19088714D01*
X8437857Y-19088714D01*
X8466428Y-19103000D01*
X8480714Y-19117286D01*
X8495000Y-19145857D01*
X8495000Y-19231572D01*
X8480714Y-19260143D01*
X8466428Y-19274429D01*
X8437857Y-19288714D01*
X8395000Y-19288714D01*
X8666428Y-19288714D02*
X8637857Y-19274429D01*
X8623571Y-19245857D01*
X8623571Y-18988714D01*
X8895000Y-19274429D02*
X8866429Y-19288714D01*
X8809286Y-19288714D01*
X8780714Y-19274429D01*
X8766429Y-19245857D01*
X8766429Y-19131572D01*
X8780714Y-19103000D01*
X8809286Y-19088714D01*
X8866429Y-19088714D01*
X8895000Y-19103000D01*
X8909286Y-19131572D01*
X8909286Y-19160143D01*
X8766429Y-19188714D01*
X9023571Y-19274429D02*
X9052143Y-19288714D01*
X9109286Y-19288714D01*
X9137857Y-19274429D01*
X9152143Y-19245857D01*
X9152143Y-19231572D01*
X9137857Y-19203000D01*
X9109286Y-19188714D01*
X9066429Y-19188714D01*
X9037857Y-19174429D01*
X9023571Y-19145857D01*
X9023571Y-19131572D01*
X9037857Y-19103000D01*
X9066429Y-19088714D01*
X9109286Y-19088714D01*
X9137857Y-19103000D01*
X9252143Y-19403000D02*
X9266429Y-19388714D01*
X9295000Y-19345857D01*
X9309286Y-19317286D01*
X9323571Y-19274429D01*
X9337857Y-19203000D01*
X9337857Y-19145857D01*
X9323571Y-19074429D01*
X9309286Y-19031572D01*
X9295000Y-19003000D01*
X9266429Y-18960143D01*
X9252143Y-18945857D01*
X2455000Y-19589000D02*
X2495000Y-19549000D01*
X2455000Y-19509000D01*
X2415000Y-19549000D01*
X2455000Y-19589000D01*
X2823571Y-19384714D02*
X2852143Y-19384714D01*
X2880714Y-19399000D01*
X2895000Y-19413286D01*
X2909286Y-19441857D01*
X2923571Y-19499000D01*
X2923571Y-19570429D01*
X2909286Y-19627572D01*
X2895000Y-19656143D01*
X2880714Y-19670429D01*
X2852143Y-19684714D01*
X2823571Y-19684714D01*
X2795000Y-19670429D01*
X2780714Y-19656143D01*
X2766429Y-19627572D01*
X2752143Y-19570429D01*
X2752143Y-19499000D01*
X2766429Y-19441857D01*
X2780714Y-19413286D01*
X2795000Y-19399000D01*
X2823571Y-19384714D01*
X3052143Y-19656143D02*
X3066428Y-19670429D01*
X3052143Y-19684714D01*
X3037857Y-19670429D01*
X3052143Y-19656143D01*
X3052143Y-19684714D01*
X3237857Y-19513286D02*
X3209286Y-19499000D01*
X3195000Y-19484714D01*
X3180714Y-19456143D01*
X3180714Y-19441857D01*
X3195000Y-19413286D01*
X3209286Y-19399000D01*
X3237857Y-19384714D01*
X3295000Y-19384714D01*
X3323571Y-19399000D01*
X3337857Y-19413286D01*
X3352143Y-19441857D01*
X3352143Y-19456143D01*
X3337857Y-19484714D01*
X3323571Y-19499000D01*
X3295000Y-19513286D01*
X3237857Y-19513286D01*
X3209286Y-19527572D01*
X3195000Y-19541857D01*
X3180714Y-19570429D01*
X3180714Y-19627572D01*
X3195000Y-19656143D01*
X3209286Y-19670429D01*
X3237857Y-19684714D01*
X3295000Y-19684714D01*
X3323571Y-19670429D01*
X3337857Y-19656143D01*
X3352143Y-19627572D01*
X3352143Y-19570429D01*
X3337857Y-19541857D01*
X3323571Y-19527572D01*
X3295000Y-19513286D01*
X3537857Y-19384714D02*
X3566428Y-19384714D01*
X3595000Y-19399000D01*
X3609286Y-19413286D01*
X3623571Y-19441857D01*
X3637857Y-19499000D01*
X3637857Y-19570429D01*
X3623571Y-19627572D01*
X3609286Y-19656143D01*
X3595000Y-19670429D01*
X3566428Y-19684714D01*
X3537857Y-19684714D01*
X3509286Y-19670429D01*
X3495000Y-19656143D01*
X3480714Y-19627572D01*
X3466428Y-19570429D01*
X3466428Y-19499000D01*
X3480714Y-19441857D01*
X3495000Y-19413286D01*
X3509286Y-19399000D01*
X3537857Y-19384714D01*
X3766428Y-19684714D02*
X3766428Y-19484714D01*
X3766428Y-19513286D02*
X3780714Y-19499000D01*
X3809286Y-19484714D01*
X3852143Y-19484714D01*
X3880714Y-19499000D01*
X3895000Y-19527572D01*
X3895000Y-19684714D01*
X3895000Y-19527572D02*
X3909286Y-19499000D01*
X3937857Y-19484714D01*
X3980714Y-19484714D01*
X4009286Y-19499000D01*
X4023571Y-19527572D01*
X4023571Y-19684714D01*
X4166428Y-19684714D02*
X4166428Y-19484714D01*
X4166428Y-19513286D02*
X4180714Y-19499000D01*
X4209286Y-19484714D01*
X4252143Y-19484714D01*
X4280714Y-19499000D01*
X4295000Y-19527572D01*
X4295000Y-19684714D01*
X4295000Y-19527572D02*
X4309286Y-19499000D01*
X4337857Y-19484714D01*
X4380714Y-19484714D01*
X4409286Y-19499000D01*
X4423571Y-19527572D01*
X4423571Y-19684714D01*
X5009286Y-19370429D02*
X4752143Y-19756143D01*
X5395000Y-19384714D02*
X5423571Y-19384714D01*
X5452143Y-19399000D01*
X5466428Y-19413286D01*
X5480714Y-19441857D01*
X5495000Y-19499000D01*
X5495000Y-19570429D01*
X5480714Y-19627572D01*
X5466428Y-19656143D01*
X5452143Y-19670429D01*
X5423571Y-19684714D01*
X5395000Y-19684714D01*
X5366428Y-19670429D01*
X5352143Y-19656143D01*
X5337857Y-19627572D01*
X5323571Y-19570429D01*
X5323571Y-19499000D01*
X5337857Y-19441857D01*
X5352143Y-19413286D01*
X5366428Y-19399000D01*
X5395000Y-19384714D01*
X5623571Y-19656143D02*
X5637857Y-19670429D01*
X5623571Y-19684714D01*
X5609286Y-19670429D01*
X5623571Y-19656143D01*
X5623571Y-19684714D01*
X5823571Y-19384714D02*
X5852143Y-19384714D01*
X5880714Y-19399000D01*
X5895000Y-19413286D01*
X5909285Y-19441857D01*
X5923571Y-19499000D01*
X5923571Y-19570429D01*
X5909285Y-19627572D01*
X5895000Y-19656143D01*
X5880714Y-19670429D01*
X5852143Y-19684714D01*
X5823571Y-19684714D01*
X5795000Y-19670429D01*
X5780714Y-19656143D01*
X5766428Y-19627572D01*
X5752143Y-19570429D01*
X5752143Y-19499000D01*
X5766428Y-19441857D01*
X5780714Y-19413286D01*
X5795000Y-19399000D01*
X5823571Y-19384714D01*
X6023571Y-19384714D02*
X6209285Y-19384714D01*
X6109285Y-19499000D01*
X6152143Y-19499000D01*
X6180714Y-19513286D01*
X6195000Y-19527572D01*
X6209285Y-19556143D01*
X6209285Y-19627572D01*
X6195000Y-19656143D01*
X6180714Y-19670429D01*
X6152143Y-19684714D01*
X6066428Y-19684714D01*
X6037857Y-19670429D01*
X6023571Y-19656143D01*
X6495000Y-19684714D02*
X6323571Y-19684714D01*
X6409285Y-19684714D02*
X6409285Y-19384714D01*
X6380714Y-19427572D01*
X6352143Y-19456143D01*
X6323571Y-19470429D01*
X6609286Y-19384714D02*
X6609286Y-19441857D01*
X6723571Y-19384714D02*
X6723571Y-19441857D01*
X7166428Y-19799000D02*
X7152143Y-19784714D01*
X7123571Y-19741857D01*
X7109285Y-19713286D01*
X7095000Y-19670429D01*
X7080714Y-19599000D01*
X7080714Y-19541857D01*
X7095000Y-19470429D01*
X7109285Y-19427572D01*
X7123571Y-19399000D01*
X7152143Y-19356143D01*
X7166428Y-19341857D01*
X7409285Y-19484714D02*
X7409285Y-19684714D01*
X7337857Y-19370429D02*
X7266428Y-19584714D01*
X7452143Y-19584714D01*
X7795000Y-19684714D02*
X7795000Y-19384714D01*
X7923571Y-19684714D02*
X7923571Y-19527572D01*
X7909285Y-19499000D01*
X7880714Y-19484714D01*
X7837857Y-19484714D01*
X7809285Y-19499000D01*
X7795000Y-19513286D01*
X8109285Y-19684714D02*
X8080714Y-19670429D01*
X8066428Y-19656143D01*
X8052143Y-19627572D01*
X8052143Y-19541857D01*
X8066428Y-19513286D01*
X8080714Y-19499000D01*
X8109285Y-19484714D01*
X8152143Y-19484714D01*
X8180714Y-19499000D01*
X8195000Y-19513286D01*
X8209285Y-19541857D01*
X8209285Y-19627572D01*
X8195000Y-19656143D01*
X8180714Y-19670429D01*
X8152143Y-19684714D01*
X8109285Y-19684714D01*
X8380714Y-19684714D02*
X8352143Y-19670429D01*
X8337857Y-19641857D01*
X8337857Y-19384714D01*
X8609286Y-19670429D02*
X8580714Y-19684714D01*
X8523571Y-19684714D01*
X8495000Y-19670429D01*
X8480714Y-19641857D01*
X8480714Y-19527572D01*
X8495000Y-19499000D01*
X8523571Y-19484714D01*
X8580714Y-19484714D01*
X8609286Y-19499000D01*
X8623571Y-19527572D01*
X8623571Y-19556143D01*
X8480714Y-19584714D01*
X8737857Y-19670429D02*
X8766429Y-19684714D01*
X8823571Y-19684714D01*
X8852143Y-19670429D01*
X8866429Y-19641857D01*
X8866429Y-19627572D01*
X8852143Y-19599000D01*
X8823571Y-19584714D01*
X8780714Y-19584714D01*
X8752143Y-19570429D01*
X8737857Y-19541857D01*
X8737857Y-19527572D01*
X8752143Y-19499000D01*
X8780714Y-19484714D01*
X8823571Y-19484714D01*
X8852143Y-19499000D01*
X8966428Y-19799000D02*
X8980714Y-19784714D01*
X9009286Y-19741857D01*
X9023571Y-19713286D01*
X9037857Y-19670429D01*
X9052143Y-19599000D01*
X9052143Y-19541857D01*
X9037857Y-19470429D01*
X9023571Y-19427572D01*
X9009286Y-19399000D01*
X8980714Y-19356143D01*
X8966428Y-19341857D01*
X2395000Y-19895000D02*
X2495000Y-19995000D01*
X2495000Y-19895000D02*
X2395000Y-19995000D01*
X2495000Y-19945000D02*
G75*
G03X2495000Y-19945000I-50000J0D01*
G01*
X2923571Y-20080714D02*
X2752143Y-20080714D01*
X2837857Y-20080714D02*
X2837857Y-19780714D01*
X2809286Y-19823572D01*
X2780714Y-19852143D01*
X2752143Y-19866429D01*
X3052143Y-20052143D02*
X3066428Y-20066429D01*
X3052143Y-20080714D01*
X3037857Y-20066429D01*
X3052143Y-20052143D01*
X3052143Y-20080714D01*
X3252143Y-19780714D02*
X3280714Y-19780714D01*
X3309286Y-19795000D01*
X3323571Y-19809286D01*
X3337857Y-19837857D01*
X3352143Y-19895000D01*
X3352143Y-19966429D01*
X3337857Y-20023572D01*
X3323571Y-20052143D01*
X3309286Y-20066429D01*
X3280714Y-20080714D01*
X3252143Y-20080714D01*
X3223571Y-20066429D01*
X3209286Y-20052143D01*
X3195000Y-20023572D01*
X3180714Y-19966429D01*
X3180714Y-19895000D01*
X3195000Y-19837857D01*
X3209286Y-19809286D01*
X3223571Y-19795000D01*
X3252143Y-19780714D01*
X3537857Y-19780714D02*
X3566428Y-19780714D01*
X3595000Y-19795000D01*
X3609286Y-19809286D01*
X3623571Y-19837857D01*
X3637857Y-19895000D01*
X3637857Y-19966429D01*
X3623571Y-20023572D01*
X3609286Y-20052143D01*
X3595000Y-20066429D01*
X3566428Y-20080714D01*
X3537857Y-20080714D01*
X3509286Y-20066429D01*
X3495000Y-20052143D01*
X3480714Y-20023572D01*
X3466428Y-19966429D01*
X3466428Y-19895000D01*
X3480714Y-19837857D01*
X3495000Y-19809286D01*
X3509286Y-19795000D01*
X3537857Y-19780714D01*
X3766428Y-20080714D02*
X3766428Y-19880714D01*
X3766428Y-19909286D02*
X3780714Y-19895000D01*
X3809286Y-19880714D01*
X3852143Y-19880714D01*
X3880714Y-19895000D01*
X3895000Y-19923572D01*
X3895000Y-20080714D01*
X3895000Y-19923572D02*
X3909286Y-19895000D01*
X3937857Y-19880714D01*
X3980714Y-19880714D01*
X4009286Y-19895000D01*
X4023571Y-19923572D01*
X4023571Y-20080714D01*
X4166428Y-20080714D02*
X4166428Y-19880714D01*
X4166428Y-19909286D02*
X4180714Y-19895000D01*
X4209286Y-19880714D01*
X4252143Y-19880714D01*
X4280714Y-19895000D01*
X4295000Y-19923572D01*
X4295000Y-20080714D01*
X4295000Y-19923572D02*
X4309286Y-19895000D01*
X4337857Y-19880714D01*
X4380714Y-19880714D01*
X4409286Y-19895000D01*
X4423571Y-19923572D01*
X4423571Y-20080714D01*
X5009286Y-19766429D02*
X4752143Y-20152143D01*
X5395000Y-19780714D02*
X5423571Y-19780714D01*
X5452143Y-19795000D01*
X5466428Y-19809286D01*
X5480714Y-19837857D01*
X5495000Y-19895000D01*
X5495000Y-19966429D01*
X5480714Y-20023572D01*
X5466428Y-20052143D01*
X5452143Y-20066429D01*
X5423571Y-20080714D01*
X5395000Y-20080714D01*
X5366428Y-20066429D01*
X5352143Y-20052143D01*
X5337857Y-20023572D01*
X5323571Y-19966429D01*
X5323571Y-19895000D01*
X5337857Y-19837857D01*
X5352143Y-19809286D01*
X5366428Y-19795000D01*
X5395000Y-19780714D01*
X5623571Y-20052143D02*
X5637857Y-20066429D01*
X5623571Y-20080714D01*
X5609286Y-20066429D01*
X5623571Y-20052143D01*
X5623571Y-20080714D01*
X5823571Y-19780714D02*
X5852143Y-19780714D01*
X5880714Y-19795000D01*
X5895000Y-19809286D01*
X5909285Y-19837857D01*
X5923571Y-19895000D01*
X5923571Y-19966429D01*
X5909285Y-20023572D01*
X5895000Y-20052143D01*
X5880714Y-20066429D01*
X5852143Y-20080714D01*
X5823571Y-20080714D01*
X5795000Y-20066429D01*
X5780714Y-20052143D01*
X5766428Y-20023572D01*
X5752143Y-19966429D01*
X5752143Y-19895000D01*
X5766428Y-19837857D01*
X5780714Y-19809286D01*
X5795000Y-19795000D01*
X5823571Y-19780714D01*
X6023571Y-19780714D02*
X6209285Y-19780714D01*
X6109285Y-19895000D01*
X6152143Y-19895000D01*
X6180714Y-19909286D01*
X6195000Y-19923572D01*
X6209285Y-19952143D01*
X6209285Y-20023572D01*
X6195000Y-20052143D01*
X6180714Y-20066429D01*
X6152143Y-20080714D01*
X6066428Y-20080714D01*
X6037857Y-20066429D01*
X6023571Y-20052143D01*
X6352143Y-20080714D02*
X6409285Y-20080714D01*
X6437857Y-20066429D01*
X6452143Y-20052143D01*
X6480714Y-20009286D01*
X6495000Y-19952143D01*
X6495000Y-19837857D01*
X6480714Y-19809286D01*
X6466428Y-19795000D01*
X6437857Y-19780714D01*
X6380714Y-19780714D01*
X6352143Y-19795000D01*
X6337857Y-19809286D01*
X6323571Y-19837857D01*
X6323571Y-19909286D01*
X6337857Y-19937857D01*
X6352143Y-19952143D01*
X6380714Y-19966429D01*
X6437857Y-19966429D01*
X6466428Y-19952143D01*
X6480714Y-19937857D01*
X6495000Y-19909286D01*
X6609286Y-19780714D02*
X6609286Y-19837857D01*
X6723571Y-19780714D02*
X6723571Y-19837857D01*
X7166428Y-20195000D02*
X7152143Y-20180714D01*
X7123571Y-20137857D01*
X7109285Y-20109286D01*
X7095000Y-20066429D01*
X7080714Y-19995000D01*
X7080714Y-19937857D01*
X7095000Y-19866429D01*
X7109285Y-19823572D01*
X7123571Y-19795000D01*
X7152143Y-19752143D01*
X7166428Y-19737857D01*
X7437857Y-20080714D02*
X7266428Y-20080714D01*
X7352143Y-20080714D02*
X7352143Y-19780714D01*
X7323571Y-19823572D01*
X7295000Y-19852143D01*
X7266428Y-19866429D01*
X7552143Y-19809286D02*
X7566428Y-19795000D01*
X7595000Y-19780714D01*
X7666428Y-19780714D01*
X7695000Y-19795000D01*
X7709285Y-19809286D01*
X7723571Y-19837857D01*
X7723571Y-19866429D01*
X7709285Y-19909286D01*
X7537857Y-20080714D01*
X7723571Y-20080714D01*
X8080714Y-20080714D02*
X8080714Y-19780714D01*
X8209285Y-20080714D02*
X8209285Y-19923572D01*
X8195000Y-19895000D01*
X8166428Y-19880714D01*
X8123571Y-19880714D01*
X8095000Y-19895000D01*
X8080714Y-19909286D01*
X8395000Y-20080714D02*
X8366428Y-20066429D01*
X8352143Y-20052143D01*
X8337857Y-20023572D01*
X8337857Y-19937857D01*
X8352143Y-19909286D01*
X8366428Y-19895000D01*
X8395000Y-19880714D01*
X8437857Y-19880714D01*
X8466428Y-19895000D01*
X8480714Y-19909286D01*
X8495000Y-19937857D01*
X8495000Y-20023572D01*
X8480714Y-20052143D01*
X8466428Y-20066429D01*
X8437857Y-20080714D01*
X8395000Y-20080714D01*
X8666428Y-20080714D02*
X8637857Y-20066429D01*
X8623571Y-20037857D01*
X8623571Y-19780714D01*
X8895000Y-20066429D02*
X8866429Y-20080714D01*
X8809286Y-20080714D01*
X8780714Y-20066429D01*
X8766429Y-20037857D01*
X8766429Y-19923572D01*
X8780714Y-19895000D01*
X8809286Y-19880714D01*
X8866429Y-19880714D01*
X8895000Y-19895000D01*
X8909286Y-19923572D01*
X8909286Y-19952143D01*
X8766429Y-19980714D01*
X9023571Y-20066429D02*
X9052143Y-20080714D01*
X9109286Y-20080714D01*
X9137857Y-20066429D01*
X9152143Y-20037857D01*
X9152143Y-20023572D01*
X9137857Y-19995000D01*
X9109286Y-19980714D01*
X9066429Y-19980714D01*
X9037857Y-19966429D01*
X9023571Y-19937857D01*
X9023571Y-19923572D01*
X9037857Y-19895000D01*
X9066429Y-19880714D01*
X9109286Y-19880714D01*
X9137857Y-19895000D01*
X9252143Y-20195000D02*
X9266429Y-20180714D01*
X9295000Y-20137857D01*
X9309286Y-20109286D01*
X9323571Y-20066429D01*
X9337857Y-19995000D01*
X9337857Y-19937857D01*
X9323571Y-19866429D01*
X9309286Y-19823572D01*
X9295000Y-19795000D01*
X9266429Y-19752143D01*
X9252143Y-19737857D01*
X2390000Y-20288500D02*
X2495000Y-20393500D01*
X2495000Y-20288500D02*
X2390000Y-20393500D01*
X2442500Y-20288500D02*
X2442500Y-20393500D01*
X2390000Y-20341000D02*
X2495000Y-20341000D01*
X2923571Y-20476714D02*
X2752143Y-20476714D01*
X2837857Y-20476714D02*
X2837857Y-20176714D01*
X2809286Y-20219572D01*
X2780714Y-20248143D01*
X2752143Y-20262429D01*
X3052143Y-20448143D02*
X3066428Y-20462429D01*
X3052143Y-20476714D01*
X3037857Y-20462429D01*
X3052143Y-20448143D01*
X3052143Y-20476714D01*
X3252143Y-20176714D02*
X3280714Y-20176714D01*
X3309286Y-20191000D01*
X3323571Y-20205286D01*
X3337857Y-20233857D01*
X3352143Y-20291000D01*
X3352143Y-20362429D01*
X3337857Y-20419572D01*
X3323571Y-20448143D01*
X3309286Y-20462429D01*
X3280714Y-20476714D01*
X3252143Y-20476714D01*
X3223571Y-20462429D01*
X3209286Y-20448143D01*
X3195000Y-20419572D01*
X3180714Y-20362429D01*
X3180714Y-20291000D01*
X3195000Y-20233857D01*
X3209286Y-20205286D01*
X3223571Y-20191000D01*
X3252143Y-20176714D01*
X3623571Y-20176714D02*
X3480714Y-20176714D01*
X3466428Y-20319572D01*
X3480714Y-20305286D01*
X3509286Y-20291000D01*
X3580714Y-20291000D01*
X3609286Y-20305286D01*
X3623571Y-20319572D01*
X3637857Y-20348143D01*
X3637857Y-20419572D01*
X3623571Y-20448143D01*
X3609286Y-20462429D01*
X3580714Y-20476714D01*
X3509286Y-20476714D01*
X3480714Y-20462429D01*
X3466428Y-20448143D01*
X3766428Y-20476714D02*
X3766428Y-20276714D01*
X3766428Y-20305286D02*
X3780714Y-20291000D01*
X3809286Y-20276714D01*
X3852143Y-20276714D01*
X3880714Y-20291000D01*
X3895000Y-20319572D01*
X3895000Y-20476714D01*
X3895000Y-20319572D02*
X3909286Y-20291000D01*
X3937857Y-20276714D01*
X3980714Y-20276714D01*
X4009286Y-20291000D01*
X4023571Y-20319572D01*
X4023571Y-20476714D01*
X4166428Y-20476714D02*
X4166428Y-20276714D01*
X4166428Y-20305286D02*
X4180714Y-20291000D01*
X4209286Y-20276714D01*
X4252143Y-20276714D01*
X4280714Y-20291000D01*
X4295000Y-20319572D01*
X4295000Y-20476714D01*
X4295000Y-20319572D02*
X4309286Y-20291000D01*
X4337857Y-20276714D01*
X4380714Y-20276714D01*
X4409286Y-20291000D01*
X4423571Y-20319572D01*
X4423571Y-20476714D01*
X5009286Y-20162429D02*
X4752143Y-20548143D01*
X5395000Y-20176714D02*
X5423571Y-20176714D01*
X5452143Y-20191000D01*
X5466428Y-20205286D01*
X5480714Y-20233857D01*
X5495000Y-20291000D01*
X5495000Y-20362429D01*
X5480714Y-20419572D01*
X5466428Y-20448143D01*
X5452143Y-20462429D01*
X5423571Y-20476714D01*
X5395000Y-20476714D01*
X5366428Y-20462429D01*
X5352143Y-20448143D01*
X5337857Y-20419572D01*
X5323571Y-20362429D01*
X5323571Y-20291000D01*
X5337857Y-20233857D01*
X5352143Y-20205286D01*
X5366428Y-20191000D01*
X5395000Y-20176714D01*
X5623571Y-20448143D02*
X5637857Y-20462429D01*
X5623571Y-20476714D01*
X5609286Y-20462429D01*
X5623571Y-20448143D01*
X5623571Y-20476714D01*
X5823571Y-20176714D02*
X5852143Y-20176714D01*
X5880714Y-20191000D01*
X5895000Y-20205286D01*
X5909285Y-20233857D01*
X5923571Y-20291000D01*
X5923571Y-20362429D01*
X5909285Y-20419572D01*
X5895000Y-20448143D01*
X5880714Y-20462429D01*
X5852143Y-20476714D01*
X5823571Y-20476714D01*
X5795000Y-20462429D01*
X5780714Y-20448143D01*
X5766428Y-20419572D01*
X5752143Y-20362429D01*
X5752143Y-20291000D01*
X5766428Y-20233857D01*
X5780714Y-20205286D01*
X5795000Y-20191000D01*
X5823571Y-20176714D01*
X6180714Y-20276714D02*
X6180714Y-20476714D01*
X6109285Y-20162429D02*
X6037857Y-20376714D01*
X6223571Y-20376714D01*
X6495000Y-20476714D02*
X6323571Y-20476714D01*
X6409285Y-20476714D02*
X6409285Y-20176714D01*
X6380714Y-20219572D01*
X6352143Y-20248143D01*
X6323571Y-20262429D01*
X6609286Y-20176714D02*
X6609286Y-20233857D01*
X6723571Y-20176714D02*
X6723571Y-20233857D01*
X7166428Y-20591000D02*
X7152143Y-20576714D01*
X7123571Y-20533857D01*
X7109285Y-20505286D01*
X7095000Y-20462429D01*
X7080714Y-20391000D01*
X7080714Y-20333857D01*
X7095000Y-20262429D01*
X7109285Y-20219572D01*
X7123571Y-20191000D01*
X7152143Y-20148143D01*
X7166428Y-20133857D01*
X7409285Y-20276714D02*
X7409285Y-20476714D01*
X7337857Y-20162429D02*
X7266428Y-20376714D01*
X7452143Y-20376714D01*
X7795000Y-20476714D02*
X7795000Y-20176714D01*
X7923571Y-20476714D02*
X7923571Y-20319572D01*
X7909285Y-20291000D01*
X7880714Y-20276714D01*
X7837857Y-20276714D01*
X7809285Y-20291000D01*
X7795000Y-20305286D01*
X8109285Y-20476714D02*
X8080714Y-20462429D01*
X8066428Y-20448143D01*
X8052143Y-20419572D01*
X8052143Y-20333857D01*
X8066428Y-20305286D01*
X8080714Y-20291000D01*
X8109285Y-20276714D01*
X8152143Y-20276714D01*
X8180714Y-20291000D01*
X8195000Y-20305286D01*
X8209285Y-20333857D01*
X8209285Y-20419572D01*
X8195000Y-20448143D01*
X8180714Y-20462429D01*
X8152143Y-20476714D01*
X8109285Y-20476714D01*
X8380714Y-20476714D02*
X8352143Y-20462429D01*
X8337857Y-20433857D01*
X8337857Y-20176714D01*
X8609286Y-20462429D02*
X8580714Y-20476714D01*
X8523571Y-20476714D01*
X8495000Y-20462429D01*
X8480714Y-20433857D01*
X8480714Y-20319572D01*
X8495000Y-20291000D01*
X8523571Y-20276714D01*
X8580714Y-20276714D01*
X8609286Y-20291000D01*
X8623571Y-20319572D01*
X8623571Y-20348143D01*
X8480714Y-20376714D01*
X8737857Y-20462429D02*
X8766429Y-20476714D01*
X8823571Y-20476714D01*
X8852143Y-20462429D01*
X8866429Y-20433857D01*
X8866429Y-20419572D01*
X8852143Y-20391000D01*
X8823571Y-20376714D01*
X8780714Y-20376714D01*
X8752143Y-20362429D01*
X8737857Y-20333857D01*
X8737857Y-20319572D01*
X8752143Y-20291000D01*
X8780714Y-20276714D01*
X8823571Y-20276714D01*
X8852143Y-20291000D01*
X8966428Y-20591000D02*
X8980714Y-20576714D01*
X9009286Y-20533857D01*
X9023571Y-20505286D01*
X9037857Y-20462429D01*
X9052143Y-20391000D01*
X9052143Y-20333857D01*
X9037857Y-20262429D01*
X9023571Y-20219572D01*
X9009286Y-20191000D01*
X8980714Y-20148143D01*
X8966428Y-20133857D01*
M02*
