G04 #@! TF.FileFunction,Copper,L2,Bot,Signal*
%FSLAX46Y46*%
G04 Gerber Fmt 4.6, Leading zero omitted, Abs format (unit mm)*
G04 Created by KiCad (PCBNEW 4.0.1-stable) date 2018/11/10 20:41:03*
%MOMM*%
G01*
G04 APERTURE LIST*
%ADD10C,0.100000*%
%ADD11R,1.750000X1.750000*%
%ADD12C,1.750000*%
%ADD13R,1.200000X1.700000*%
%ADD14O,1.200000X1.700000*%
%ADD15R,1.700000X1.200000*%
%ADD16O,1.700000X1.200000*%
%ADD17C,1.524000*%
%ADD18C,1.100000*%
%ADD19C,0.600000*%
%ADD20C,0.250000*%
%ADD21C,0.500000*%
%ADD22C,1.300000*%
%ADD23C,0.254000*%
G04 APERTURE END LIST*
D10*
D11*
X93000000Y-37000000D03*
D12*
X90500000Y-37000000D03*
X88000000Y-37000000D03*
D11*
X53000000Y-37000000D03*
D12*
X50500000Y-37000000D03*
X48000000Y-37000000D03*
D13*
X34000000Y-64000000D03*
D14*
X32000000Y-64000000D03*
X30000000Y-64000000D03*
X28000000Y-64000000D03*
D11*
X45000000Y-78365000D03*
D12*
X45000000Y-75865000D03*
D15*
X50000000Y-130000000D03*
D16*
X50000000Y-128000000D03*
D15*
X50000000Y-123000000D03*
D16*
X50000000Y-121000000D03*
D17*
X91190000Y-115500000D03*
X91190000Y-112960000D03*
X91190000Y-110420000D03*
X91190000Y-118040000D03*
X91190000Y-120580000D03*
X98810000Y-120580000D03*
X98810000Y-118040000D03*
X98810000Y-115500000D03*
X98810000Y-112960000D03*
X98810000Y-110420000D03*
X195907134Y-107040978D03*
X196128510Y-104510644D03*
X193376800Y-106819602D03*
X193598176Y-104289268D03*
X185013648Y-63029413D03*
X183556764Y-60948767D03*
X182933002Y-64486297D03*
X181476118Y-62405651D03*
X177757992Y-54038059D03*
X175961941Y-52242008D03*
X175961941Y-55834110D03*
X174165890Y-54038059D03*
X119730000Y-31730000D03*
X119730000Y-34270000D03*
X122270000Y-31730000D03*
X122270000Y-34270000D03*
X196128510Y-95489356D03*
X195907134Y-92959022D03*
X193598176Y-95710732D03*
X193376800Y-93180398D03*
X194340605Y-84074788D03*
X193683205Y-81621336D03*
X191887153Y-84732188D03*
X191229753Y-82278736D03*
X190597742Y-73144099D03*
X189524292Y-70842077D03*
X188295720Y-74217549D03*
X187222270Y-71915527D03*
X189524292Y-129157923D03*
X190597742Y-126855901D03*
X187222270Y-128084473D03*
X188295720Y-125782451D03*
X193683205Y-118378664D03*
X194340605Y-115925212D03*
X191229753Y-117721264D03*
X191887153Y-115267812D03*
X119730000Y-165730000D03*
X119730000Y-168270000D03*
X122270000Y-165730000D03*
X122270000Y-168270000D03*
X175961941Y-147757992D03*
X177757992Y-145961941D03*
X174165890Y-145961941D03*
X175961941Y-144165890D03*
X183556764Y-139051233D03*
X185013648Y-136970587D03*
X181476118Y-137594349D03*
X182933002Y-135513703D03*
X38000000Y-119310000D03*
X38000000Y-116770000D03*
X38000000Y-114230000D03*
X38000000Y-111690000D03*
D18*
X45350000Y-119700000D03*
X43850000Y-119700000D03*
X45350000Y-123400000D03*
X43850000Y-123400000D03*
D11*
X53000000Y-147000000D03*
D12*
X50500000Y-147000000D03*
X48000000Y-147000000D03*
D11*
X81270000Y-162500000D03*
D12*
X78770000Y-162500000D03*
D11*
X82540000Y-148500000D03*
D12*
X80040000Y-148500000D03*
X77540000Y-148500000D03*
D19*
X76000000Y-92500000D03*
X73000000Y-92500000D03*
X70000000Y-92500000D03*
X67000000Y-92500000D03*
X76000000Y-96000000D03*
X76000000Y-90500000D03*
X73000000Y-90500000D03*
X70000000Y-90500000D03*
X67000000Y-90500000D03*
X70500000Y-86500000D03*
X73500000Y-86500000D03*
X75000000Y-84000000D03*
X72000000Y-75000000D03*
X69000000Y-75000000D03*
X69000000Y-78000000D03*
X72000000Y-78000000D03*
X72000000Y-81000000D03*
X69000000Y-81000000D03*
X69000000Y-84000000D03*
X63000000Y-72000000D03*
X66000000Y-72000000D03*
X69000000Y-72000000D03*
X72000000Y-72000000D03*
X72000000Y-84000000D03*
X27000000Y-66500000D03*
X26500000Y-77000000D03*
X27000000Y-62000000D03*
X53500000Y-83000000D03*
X53500000Y-80000000D03*
X53500000Y-77000000D03*
X33000000Y-76000000D03*
X36000000Y-76000000D03*
X48000000Y-126500000D03*
X51000000Y-125500000D03*
X46000000Y-125000000D03*
X48000000Y-123500000D03*
X48000000Y-129100000D03*
X42500000Y-121500000D03*
X45000000Y-121500000D03*
X48100000Y-130700000D03*
X43300000Y-130700000D03*
X43300000Y-129100000D03*
X43000000Y-127500000D03*
X33000000Y-122000000D03*
X30000000Y-122000000D03*
X27000000Y-122000000D03*
X27000000Y-125000000D03*
X27000000Y-129000000D03*
X27000000Y-132000000D03*
X27000000Y-138000000D03*
X30000000Y-138500000D03*
X33000000Y-138500000D03*
X36000000Y-138500000D03*
X38000000Y-138500000D03*
X41000000Y-138500000D03*
X44000000Y-138500000D03*
X38000000Y-136500000D03*
X41000000Y-136500000D03*
X44000000Y-136500000D03*
X96000000Y-91800000D03*
X99900000Y-105000000D03*
X43000000Y-113000000D03*
X43000000Y-116000000D03*
X42000000Y-118000000D03*
X88000000Y-63000000D03*
X91500000Y-63000000D03*
X91500000Y-61500000D03*
X88000000Y-61500000D03*
X84500000Y-61500000D03*
X84000000Y-65000000D03*
X79500000Y-61500000D03*
X79000000Y-66500000D03*
X75000000Y-66500000D03*
X71000000Y-66500000D03*
X67000000Y-66500000D03*
X63000000Y-66500000D03*
X50000000Y-62000000D03*
X50000000Y-64000000D03*
X42000000Y-64000000D03*
X45000000Y-64000000D03*
X45000000Y-62000000D03*
X42000000Y-62000000D03*
X39000000Y-62000000D03*
X36000000Y-62000000D03*
X32000000Y-62000000D03*
X31000000Y-135000000D03*
X31000000Y-132000000D03*
X31000000Y-129000000D03*
X31000000Y-126000000D03*
X100000000Y-122500000D03*
X97000000Y-121500000D03*
X96500000Y-119500000D03*
X96500000Y-116000000D03*
X96500000Y-113000000D03*
X96500000Y-110000000D03*
X103800000Y-138400000D03*
X102100000Y-136700000D03*
X100300000Y-134900000D03*
X99600000Y-129800000D03*
X89000000Y-84000000D03*
X90000000Y-71000000D03*
X88000000Y-73000000D03*
X90000000Y-75000000D03*
X91500000Y-78500000D03*
X92500000Y-81000000D03*
X82500000Y-73500000D03*
X81000000Y-72000000D03*
X79000000Y-74000000D03*
X80500000Y-75500000D03*
X86500000Y-81500000D03*
X86500000Y-86500000D03*
X86500000Y-84000000D03*
X82000000Y-78750000D03*
X84000000Y-77500000D03*
X95400000Y-67000000D03*
X97400000Y-66900000D03*
X94500000Y-70500000D03*
X96000000Y-70500000D03*
X95200000Y-73800000D03*
X95500000Y-79500000D03*
X97500000Y-77000000D03*
X95500000Y-77000000D03*
X100000000Y-73800000D03*
X99900000Y-76600000D03*
X99900000Y-69800000D03*
X99900000Y-70700000D03*
X82500000Y-93000000D03*
X80000000Y-93000000D03*
X80000000Y-90500000D03*
X82500000Y-90500000D03*
X77900000Y-80300000D03*
X75700000Y-71000000D03*
X75700000Y-77000000D03*
X76400000Y-78800000D03*
X103000000Y-91000000D03*
X101000000Y-91000000D03*
X101000000Y-88000000D03*
X103000000Y-88000000D03*
X103000000Y-85000000D03*
X101000000Y-85000000D03*
X101000000Y-82000000D03*
X103000000Y-82000000D03*
X103750000Y-79750000D03*
X103800000Y-96500000D03*
X94500000Y-99500000D03*
X93000000Y-99500000D03*
X93000000Y-98000000D03*
X94500000Y-98000000D03*
X94300000Y-122900000D03*
X95500000Y-129600000D03*
X95500000Y-127800000D03*
X97400000Y-133400000D03*
X95400000Y-132900000D03*
X91500000Y-133500000D03*
X80000000Y-138500000D03*
X80000000Y-136000000D03*
X84000000Y-129500000D03*
X84000000Y-131500000D03*
X85000000Y-138000000D03*
X88000000Y-138000000D03*
X91000000Y-138000000D03*
X96000000Y-138000000D03*
X94000000Y-136000000D03*
X91000000Y-136000000D03*
X88000000Y-136000000D03*
X85000000Y-136000000D03*
X84000000Y-124500000D03*
X84400000Y-119400000D03*
X84500000Y-121500000D03*
X88000000Y-126700000D03*
X84000000Y-126500000D03*
X76000000Y-117000000D03*
X73000000Y-117000000D03*
X70000000Y-117000000D03*
X67000000Y-117000000D03*
X67000000Y-120000000D03*
X70000000Y-120000000D03*
X73000000Y-120000000D03*
X76000000Y-120000000D03*
X67000000Y-123000000D03*
X70000000Y-123000000D03*
X73000000Y-123000000D03*
X76000000Y-123000000D03*
X76000000Y-125500000D03*
X73000000Y-125500000D03*
X70000000Y-125500000D03*
X67000000Y-125500000D03*
X67000000Y-114000000D03*
X70000000Y-114000000D03*
X73000000Y-114000000D03*
X76000000Y-114000000D03*
X67000000Y-108000000D03*
X67000000Y-111000000D03*
X70000000Y-111000000D03*
X70000000Y-108000000D03*
X73000000Y-108000000D03*
X73000000Y-111000000D03*
X76000000Y-111000000D03*
X76000000Y-108000000D03*
X76000000Y-101000000D03*
X81000000Y-97000000D03*
X79500000Y-98000000D03*
X78000000Y-99500000D03*
X58500000Y-71000000D03*
X58500000Y-75250000D03*
X58750000Y-72750000D03*
X62000000Y-107000000D03*
X62000000Y-104000000D03*
X64000000Y-83000000D03*
X59000000Y-83000000D03*
X59000000Y-86000000D03*
X64000000Y-86000000D03*
X64000000Y-89000000D03*
X59000000Y-89000000D03*
X59000000Y-92000000D03*
X64000000Y-92000000D03*
X64000000Y-121000000D03*
X63500000Y-118500000D03*
X63500000Y-116000000D03*
X63000000Y-113000000D03*
X62000000Y-111000000D03*
X60000000Y-109000000D03*
X59000000Y-107000000D03*
X59000000Y-104000000D03*
X59000000Y-101000000D03*
X64000000Y-101000000D03*
X64000000Y-98000000D03*
X59000000Y-98000000D03*
X59000000Y-95000000D03*
X64000000Y-95000000D03*
X47000000Y-74000000D03*
X43500000Y-74500000D03*
X41000000Y-75000000D03*
X47000000Y-75500000D03*
X52000000Y-75500000D03*
X50000000Y-75500000D03*
X53000000Y-72000000D03*
X53000000Y-73000000D03*
X53000000Y-74000000D03*
X50000000Y-74000000D03*
X53000000Y-69000000D03*
X53000000Y-70000000D03*
X53000000Y-71000000D03*
X36000000Y-117000000D03*
X33000000Y-117000000D03*
X30000000Y-117000000D03*
X27000000Y-117000000D03*
X27000000Y-120000000D03*
X30000000Y-120000000D03*
X33000000Y-120000000D03*
X36000000Y-120000000D03*
X37000000Y-107000000D03*
X37000000Y-110000000D03*
X36000000Y-114000000D03*
X33000000Y-114000000D03*
X33000000Y-111000000D03*
X30000000Y-111000000D03*
X30000000Y-114000000D03*
X27000000Y-114000000D03*
X27000000Y-111000000D03*
X36000000Y-132000000D03*
X36000000Y-129000000D03*
X36000000Y-126000000D03*
X36000000Y-123000000D03*
X40000000Y-110000000D03*
X40000000Y-98000000D03*
X40000000Y-101000000D03*
X40000000Y-104000000D03*
X40000000Y-107000000D03*
X40000000Y-95000000D03*
X40000000Y-92000000D03*
X40000000Y-89000000D03*
X40000000Y-86000000D03*
X37000000Y-86000000D03*
X34000000Y-86000000D03*
X31000000Y-86000000D03*
X28000000Y-86000000D03*
X28000000Y-83000000D03*
X31000000Y-83000000D03*
X34000000Y-83000000D03*
X37000000Y-83000000D03*
X37000000Y-80000000D03*
X40000000Y-80000000D03*
X43000000Y-89000000D03*
X43000000Y-86000000D03*
X43000000Y-83000000D03*
X40000000Y-83000000D03*
X43000000Y-92000000D03*
X43000000Y-95000000D03*
X43000000Y-98000000D03*
X43000000Y-101000000D03*
X43000000Y-104000000D03*
X43000000Y-107000000D03*
X43000000Y-110000000D03*
X46000000Y-92000000D03*
X49000000Y-92000000D03*
X52000000Y-92000000D03*
X52000000Y-89000000D03*
X49000000Y-89000000D03*
X46000000Y-89000000D03*
X46000000Y-110000000D03*
X46000000Y-107000000D03*
X46000000Y-104000000D03*
X46000000Y-101000000D03*
X46000000Y-95000000D03*
X49000000Y-95000000D03*
X52000000Y-95000000D03*
X52000000Y-98000000D03*
X49000000Y-98000000D03*
X46000000Y-98000000D03*
X46000000Y-83000000D03*
X49000000Y-83000000D03*
X52000000Y-83000000D03*
X52000000Y-86000000D03*
X49000000Y-86000000D03*
X46000000Y-86000000D03*
X49000000Y-107000000D03*
X49000000Y-104000000D03*
X49000000Y-101000000D03*
X52000000Y-101000000D03*
X52000000Y-104000000D03*
X52000000Y-107000000D03*
X52000000Y-110000000D03*
X49000000Y-110000000D03*
X49000000Y-119000000D03*
X49000000Y-116000000D03*
X52000000Y-116000000D03*
X52000000Y-119000000D03*
X55000000Y-119000000D03*
X55000000Y-116000000D03*
X56000000Y-113000000D03*
X58000000Y-116000000D03*
X58000000Y-119000000D03*
X38000000Y-72000000D03*
X41000000Y-72000000D03*
X44000000Y-72000000D03*
X47000000Y-72000000D03*
X34000000Y-70000000D03*
X36000000Y-68000000D03*
X38000000Y-69000000D03*
X41000000Y-69000000D03*
X44000000Y-69000000D03*
X47000000Y-69000000D03*
X88000000Y-121700000D03*
X88000000Y-116700000D03*
X87700000Y-111200000D03*
X85000000Y-109700000D03*
X95250000Y-95700000D03*
X58100000Y-126200000D03*
X58100000Y-127200000D03*
X58100000Y-130200000D03*
X58100000Y-129200000D03*
X58100000Y-128200000D03*
X61300000Y-130300000D03*
X97500000Y-92700000D03*
X86400000Y-72300000D03*
X106500000Y-57600000D03*
X79800000Y-85300000D03*
X95800000Y-87900000D03*
X88800000Y-132500000D03*
X80600000Y-133000000D03*
X39800000Y-133600000D03*
X65600000Y-76300000D03*
X68800000Y-87900000D03*
X76800000Y-87900000D03*
X61200000Y-128000000D03*
X62300000Y-125400000D03*
X99300000Y-94000000D03*
X96900000Y-95100000D03*
X87300000Y-107600000D03*
X78500000Y-87900000D03*
X78500000Y-92900000D03*
X128100000Y-33500000D03*
X125700000Y-167900000D03*
X54800000Y-112000000D03*
X54200000Y-111300000D03*
X45300000Y-65800000D03*
X61000000Y-67100000D03*
X86000000Y-111800000D03*
X87400000Y-109400000D03*
X81600000Y-68900000D03*
X90400000Y-80700000D03*
X94000000Y-85900000D03*
X46100000Y-66500000D03*
X45300000Y-67200000D03*
X80500000Y-68900000D03*
X89400000Y-80700000D03*
X93100000Y-86700000D03*
X35700000Y-72100000D03*
X41100000Y-77500000D03*
X41300000Y-133800000D03*
X80000000Y-133700000D03*
X89700000Y-132700000D03*
X93200000Y-107400000D03*
X35200000Y-74000000D03*
X41000000Y-78400000D03*
X87500000Y-90600000D03*
X90000000Y-91300000D03*
X87800000Y-89600000D03*
X94200000Y-101800000D03*
X94600000Y-118100000D03*
X90750000Y-95700000D03*
X93900000Y-118900000D03*
X89750000Y-95700000D03*
X93900000Y-62900000D03*
X93900000Y-67100000D03*
X98800000Y-67100000D03*
X98800000Y-62900000D03*
X113200000Y-49700000D03*
X113900000Y-48100000D03*
X114600000Y-46500000D03*
X111100000Y-54500000D03*
X111800000Y-52900000D03*
X112500000Y-51300000D03*
X112500000Y-148700000D03*
X111800000Y-147100000D03*
X111100000Y-145500000D03*
X102900000Y-98600000D03*
X99800000Y-96300000D03*
X114600000Y-153500000D03*
X102200000Y-99200000D03*
X100300000Y-97000000D03*
X113900000Y-151900000D03*
X113200000Y-150300000D03*
X68800000Y-88800000D03*
X79400000Y-88800000D03*
X90400000Y-89400000D03*
X65300000Y-77600000D03*
X79900000Y-126000000D03*
X75760000Y-127070000D03*
X100200000Y-108800000D03*
X95400000Y-108200000D03*
X90700000Y-108100000D03*
X173100000Y-51300000D03*
X173000000Y-149700000D03*
X65800000Y-133700000D03*
X38600000Y-132900000D03*
X65100000Y-134400000D03*
X37700000Y-132900000D03*
X92300000Y-103700000D03*
X69200000Y-95400000D03*
X70800000Y-95400000D03*
X92400000Y-102800000D03*
X75400000Y-104500000D03*
X88400000Y-104300000D03*
X69600000Y-104400000D03*
X90800000Y-103900000D03*
X88500000Y-91600000D03*
X86700000Y-95200000D03*
X65100000Y-133000000D03*
X42700000Y-134000000D03*
X47500000Y-134000000D03*
D20*
X76000000Y-96000000D02*
X76000000Y-92500000D01*
X70000000Y-92500000D02*
X73000000Y-92500000D01*
X67000000Y-92500000D02*
X67000000Y-90500000D01*
X70000000Y-90500000D02*
X73000000Y-90500000D01*
X73500000Y-86500000D02*
X70500000Y-86500000D01*
X64000000Y-92000000D02*
X67000000Y-92500000D01*
X72000000Y-75000000D02*
X69000000Y-75000000D01*
X69000000Y-78000000D02*
X72000000Y-78000000D01*
X72000000Y-81000000D02*
X69000000Y-81000000D01*
X69000000Y-84000000D02*
X72000000Y-84000000D01*
X63000000Y-72000000D02*
X66000000Y-72000000D01*
X69000000Y-72000000D02*
X72000000Y-72000000D01*
X27000000Y-66500000D02*
X27000000Y-76500000D01*
X32000000Y-66500000D02*
X27000000Y-66500000D01*
X32000000Y-64000000D02*
X32000000Y-66500000D01*
X27000000Y-76500000D02*
X26500000Y-77000000D01*
X32000000Y-62000000D02*
X27000000Y-62000000D01*
X53500000Y-77000000D02*
X53500000Y-80000000D01*
X37000000Y-80000000D02*
X37000000Y-77000000D01*
X37000000Y-77000000D02*
X36000000Y-76000000D01*
X48000000Y-126500000D02*
X49000000Y-125500000D01*
X49000000Y-125500000D02*
X51000000Y-125500000D01*
X46000000Y-125000000D02*
X48000000Y-123000000D01*
X48000000Y-123000000D02*
X48000000Y-123500000D01*
X45000000Y-121500000D02*
X42500000Y-121500000D01*
X43300000Y-129100000D02*
X43300000Y-127800000D01*
X43300000Y-127800000D02*
X43000000Y-127500000D01*
X34000000Y-123000000D02*
X33000000Y-122000000D01*
X30000000Y-122000000D02*
X27000000Y-122000000D01*
X27000000Y-125000000D02*
X27000000Y-129000000D01*
X27000000Y-132000000D02*
X27000000Y-138000000D01*
X30000000Y-138500000D02*
X33000000Y-138500000D01*
X36000000Y-138500000D02*
X37500000Y-137000000D01*
X37500000Y-137000000D02*
X38000000Y-138500000D01*
X41000000Y-138500000D02*
X44000000Y-138500000D01*
X36000000Y-123000000D02*
X34000000Y-123000000D01*
X44000000Y-136500000D02*
X41000000Y-136500000D01*
X43000000Y-116000000D02*
X43000000Y-117000000D01*
X43000000Y-110000000D02*
X43000000Y-113000000D01*
X43000000Y-117000000D02*
X42000000Y-118000000D01*
X79000000Y-66500000D02*
X79000000Y-66000000D01*
X91500000Y-61500000D02*
X91500000Y-63000000D01*
X84500000Y-61500000D02*
X88000000Y-61500000D01*
X80000000Y-65000000D02*
X84000000Y-65000000D01*
X79000000Y-66000000D02*
X80000000Y-65000000D01*
X79500000Y-66000000D02*
X79500000Y-61500000D01*
X79000000Y-66500000D02*
X79500000Y-66000000D01*
X71000000Y-66500000D02*
X75000000Y-66500000D01*
X63000000Y-66500000D02*
X67000000Y-66500000D01*
X50000000Y-64000000D02*
X50000000Y-62000000D01*
X45000000Y-62000000D02*
X45000000Y-64000000D01*
X39000000Y-62000000D02*
X42000000Y-62000000D01*
X32000000Y-62000000D02*
X36000000Y-62000000D01*
X31000000Y-132000000D02*
X31000000Y-135000000D01*
X31000000Y-126000000D02*
X31000000Y-129000000D01*
X98000000Y-122500000D02*
X100000000Y-122500000D01*
X97000000Y-121500000D02*
X98000000Y-122500000D01*
X96500000Y-116000000D02*
X96500000Y-119500000D01*
X96500000Y-110000000D02*
X96500000Y-113000000D01*
X102100000Y-136700000D02*
X103800000Y-138400000D01*
X100300000Y-130500000D02*
X100300000Y-134900000D01*
X99600000Y-129800000D02*
X100300000Y-130500000D01*
X90000000Y-75000000D02*
X88000000Y-73000000D01*
X91500000Y-80000000D02*
X91500000Y-78500000D01*
X92500000Y-81000000D02*
X91500000Y-80000000D01*
X81000000Y-72000000D02*
X82500000Y-73500000D01*
X80500000Y-75500000D02*
X79000000Y-74000000D01*
X86500000Y-81500000D02*
X86500000Y-80000000D01*
X86500000Y-84000000D02*
X86500000Y-86500000D01*
X86500000Y-80000000D02*
X84000000Y-77500000D01*
X95400000Y-67000000D02*
X97300000Y-67000000D01*
X97300000Y-67000000D02*
X97400000Y-66900000D01*
X96000000Y-70500000D02*
X94500000Y-70500000D01*
X95200000Y-73800000D02*
X95200000Y-74800000D01*
X95500000Y-79000000D02*
X95500000Y-79500000D01*
X97500000Y-77000000D02*
X95500000Y-79000000D01*
X95500000Y-75100000D02*
X95500000Y-77000000D01*
X95200000Y-74800000D02*
X95500000Y-75100000D01*
X100000000Y-73800000D02*
X100000000Y-74300000D01*
X100200000Y-76300000D02*
X99900000Y-76600000D01*
X100200000Y-74500000D02*
X100200000Y-76300000D01*
X100000000Y-74300000D02*
X100200000Y-74500000D01*
X99900000Y-70700000D02*
X99900000Y-69800000D01*
X80000000Y-93000000D02*
X82500000Y-93000000D01*
X82500000Y-90500000D02*
X80000000Y-90500000D01*
X77900000Y-80300000D02*
X76400000Y-78800000D01*
X75700000Y-77000000D02*
X75700000Y-71000000D01*
X103000000Y-91000000D02*
X101000000Y-91000000D01*
X101000000Y-88000000D02*
X103000000Y-88000000D01*
X103000000Y-85000000D02*
X101000000Y-85000000D01*
X101000000Y-82000000D02*
X103000000Y-82000000D01*
X93000000Y-99500000D02*
X94500000Y-99500000D01*
X94500000Y-98000000D02*
X93000000Y-98000000D01*
X95500000Y-127800000D02*
X95500000Y-124100000D01*
X95500000Y-124100000D02*
X94300000Y-122900000D01*
X95500000Y-129600000D02*
X95500000Y-127800000D01*
X97100000Y-133100000D02*
X97400000Y-133400000D01*
X95600000Y-133100000D02*
X97100000Y-133100000D01*
X95400000Y-132900000D02*
X95600000Y-133100000D01*
X91000000Y-136000000D02*
X91000000Y-134000000D01*
X91000000Y-134000000D02*
X91500000Y-133500000D01*
X85000000Y-136000000D02*
X84000000Y-136000000D01*
X81000000Y-135000000D02*
X80000000Y-136000000D01*
X83000000Y-135000000D02*
X81000000Y-135000000D01*
X84000000Y-136000000D02*
X83000000Y-135000000D01*
X84000000Y-131500000D02*
X84000000Y-135000000D01*
X84000000Y-126500000D02*
X84000000Y-129500000D01*
X91000000Y-138000000D02*
X88000000Y-138000000D01*
X94000000Y-136000000D02*
X96000000Y-138000000D01*
X88000000Y-136000000D02*
X91000000Y-136000000D01*
X84000000Y-135000000D02*
X85000000Y-136000000D01*
X84000000Y-124500000D02*
X84000000Y-122000000D01*
X84000000Y-126500000D02*
X84000000Y-124500000D01*
X84000000Y-122000000D02*
X84500000Y-121500000D01*
X67000000Y-123000000D02*
X67000000Y-125500000D01*
X76000000Y-117000000D02*
X73000000Y-117000000D01*
X70000000Y-117000000D02*
X67000000Y-117000000D01*
X67000000Y-120000000D02*
X70000000Y-120000000D01*
X73000000Y-120000000D02*
X76000000Y-120000000D01*
X70000000Y-123000000D02*
X67000000Y-123000000D01*
X76000000Y-123000000D02*
X73000000Y-123000000D01*
X70000000Y-125500000D02*
X73000000Y-125500000D01*
X70000000Y-114000000D02*
X67000000Y-114000000D01*
X76000000Y-114000000D02*
X73000000Y-114000000D01*
X67000000Y-111000000D02*
X67000000Y-108000000D01*
X70000000Y-108000000D02*
X70000000Y-111000000D01*
X73000000Y-111000000D02*
X73000000Y-108000000D01*
X76000000Y-108000000D02*
X76000000Y-111000000D01*
X76000000Y-101000000D02*
X76500000Y-101000000D01*
X80500000Y-97000000D02*
X81000000Y-97000000D01*
X79500000Y-98000000D02*
X80500000Y-97000000D01*
X76500000Y-101000000D02*
X78000000Y-99500000D01*
X58750000Y-71250000D02*
X58750000Y-72750000D01*
X58500000Y-71000000D02*
X58750000Y-71250000D01*
X62000000Y-104000000D02*
X62000000Y-107000000D01*
X64000000Y-83000000D02*
X59000000Y-83000000D01*
X59000000Y-86000000D02*
X64000000Y-86000000D01*
X64000000Y-89000000D02*
X59000000Y-89000000D01*
X59000000Y-92000000D02*
X64000000Y-92000000D01*
X64000000Y-119000000D02*
X64000000Y-121000000D01*
X63500000Y-118500000D02*
X64000000Y-119000000D01*
X63500000Y-113500000D02*
X63500000Y-116000000D01*
X63000000Y-113000000D02*
X63500000Y-113500000D01*
X60000000Y-109000000D02*
X62000000Y-111000000D01*
X59000000Y-104000000D02*
X59000000Y-107000000D01*
X64000000Y-101000000D02*
X59000000Y-101000000D01*
X59000000Y-98000000D02*
X64000000Y-98000000D01*
X64000000Y-95000000D02*
X59000000Y-95000000D01*
D21*
X45000000Y-75865000D02*
X45365000Y-75865000D01*
X45365000Y-75865000D02*
X46000000Y-76500000D01*
X46000000Y-76500000D02*
X46750000Y-76500000D01*
X45000000Y-75865000D02*
X44635000Y-75865000D01*
X44635000Y-75865000D02*
X43250000Y-77250000D01*
D22*
X44865000Y-75865000D02*
X43000000Y-74000000D01*
X45135000Y-75865000D02*
X47000000Y-74000000D01*
D20*
X41000000Y-72000000D02*
X41000000Y-75000000D01*
X50000000Y-75500000D02*
X52000000Y-75500000D01*
X53000000Y-71000000D02*
X53000000Y-72000000D01*
X53000000Y-73000000D02*
X53000000Y-74000000D01*
X50000000Y-74000000D02*
X47000000Y-74000000D01*
X53000000Y-71000000D02*
X53000000Y-70000000D01*
X36000000Y-117000000D02*
X33000000Y-117000000D01*
X30000000Y-117000000D02*
X27000000Y-117000000D01*
X27000000Y-120000000D02*
X30000000Y-120000000D01*
X33000000Y-120000000D02*
X36000000Y-120000000D01*
X37000000Y-110000000D02*
X36000000Y-110000000D01*
X37000000Y-107000000D02*
X37000000Y-110000000D01*
X33000000Y-114000000D02*
X36000000Y-114000000D01*
X30000000Y-111000000D02*
X33000000Y-111000000D01*
X27000000Y-114000000D02*
X30000000Y-114000000D01*
X35000000Y-111000000D02*
X27000000Y-111000000D01*
X36000000Y-110000000D02*
X35000000Y-111000000D01*
X36000000Y-129000000D02*
X36000000Y-132000000D01*
X36000000Y-123000000D02*
X36000000Y-126000000D01*
X40000000Y-98000000D02*
X40000000Y-101000000D01*
X40000000Y-104000000D02*
X40000000Y-107000000D01*
X40000000Y-92000000D02*
X40000000Y-95000000D01*
X40000000Y-86000000D02*
X40000000Y-89000000D01*
X34000000Y-86000000D02*
X37000000Y-86000000D01*
X28000000Y-86000000D02*
X31000000Y-86000000D01*
X31000000Y-83000000D02*
X28000000Y-83000000D01*
X37000000Y-83000000D02*
X34000000Y-83000000D01*
X40000000Y-80000000D02*
X37000000Y-80000000D01*
X43000000Y-89000000D02*
X43000000Y-86000000D01*
X43000000Y-83000000D02*
X40000000Y-83000000D01*
X43000000Y-98000000D02*
X43000000Y-95000000D01*
X43000000Y-104000000D02*
X43000000Y-101000000D01*
X43000000Y-110000000D02*
X43000000Y-107000000D01*
X46000000Y-92000000D02*
X49000000Y-92000000D01*
X52000000Y-92000000D02*
X52000000Y-89000000D01*
X49000000Y-89000000D02*
X46000000Y-89000000D01*
X46000000Y-110000000D02*
X46000000Y-107000000D01*
X46000000Y-104000000D02*
X46000000Y-101000000D01*
X49000000Y-95000000D02*
X46000000Y-95000000D01*
X52000000Y-98000000D02*
X52000000Y-95000000D01*
X46000000Y-98000000D02*
X49000000Y-98000000D01*
X49000000Y-83000000D02*
X46000000Y-83000000D01*
X52000000Y-86000000D02*
X52000000Y-83000000D01*
X46000000Y-86000000D02*
X49000000Y-86000000D01*
X49000000Y-104000000D02*
X49000000Y-107000000D01*
X52000000Y-101000000D02*
X49000000Y-101000000D01*
X52000000Y-107000000D02*
X52000000Y-104000000D01*
X49000000Y-110000000D02*
X52000000Y-110000000D01*
X52000000Y-116000000D02*
X49000000Y-116000000D01*
X55000000Y-119000000D02*
X52000000Y-119000000D01*
X55000000Y-114000000D02*
X55000000Y-116000000D01*
X56000000Y-113000000D02*
X55000000Y-114000000D01*
X58000000Y-119000000D02*
X58000000Y-116000000D01*
D21*
X41000000Y-72000000D02*
X44000000Y-72000000D01*
X38000000Y-69000000D02*
X38000000Y-72000000D01*
X36000000Y-68000000D02*
X34000000Y-70000000D01*
X41000000Y-69000000D02*
X38000000Y-69000000D01*
X47000000Y-69000000D02*
X44000000Y-69000000D01*
D20*
X58100000Y-127200000D02*
X58100000Y-128200000D01*
X58100000Y-126200000D02*
X58100000Y-127200000D01*
X58100000Y-129200000D02*
X58100000Y-130200000D01*
X80500000Y-78200000D02*
X79800000Y-78900000D01*
X86400000Y-72300000D02*
X80500000Y-78200000D01*
X119730000Y-38451612D02*
X113000000Y-45181612D01*
X113000000Y-45181612D02*
X113000000Y-47100000D01*
X113000000Y-47100000D02*
X110100000Y-50000000D01*
X110100000Y-50000000D02*
X110100000Y-54000000D01*
X110100000Y-54000000D02*
X106500000Y-57600000D01*
X119730000Y-34270000D02*
X119730000Y-38451612D01*
X79800000Y-78900000D02*
X79800000Y-85300000D01*
X78500000Y-87900000D02*
X83900000Y-87900000D01*
X83900000Y-87900000D02*
X93500000Y-87900000D01*
X93500000Y-87900000D02*
X94300000Y-87900000D01*
X94300000Y-87900000D02*
X95800000Y-87900000D01*
X89849998Y-114150002D02*
X89849998Y-131450002D01*
X89849998Y-131450002D02*
X88800000Y-132500000D01*
X80600000Y-133000000D02*
X79449998Y-131849998D01*
X79449998Y-131849998D02*
X48877206Y-131849998D01*
X48877206Y-131849998D02*
X47945405Y-132781799D01*
X47945405Y-132781799D02*
X40618201Y-132781799D01*
X40618201Y-132781799D02*
X39800000Y-133600000D01*
X91040000Y-112960000D02*
X89849998Y-114150002D01*
X91190000Y-112960000D02*
X91040000Y-112960000D01*
X78500000Y-87900000D02*
X76800000Y-87900000D01*
X67600000Y-87900000D02*
X66200000Y-86500000D01*
X66200000Y-86500000D02*
X66200000Y-76900000D01*
X66200000Y-76900000D02*
X65600000Y-76300000D01*
X68800000Y-87900000D02*
X67600000Y-87900000D01*
X61200000Y-126500000D02*
X61200000Y-128000000D01*
X62300000Y-125400000D02*
X61200000Y-126500000D01*
X98800000Y-94500000D02*
X99300000Y-94000000D01*
X97500000Y-94500000D02*
X98800000Y-94500000D01*
X96900000Y-95100000D02*
X97500000Y-94500000D01*
X87300000Y-107600000D02*
X87300000Y-108300000D01*
X87300000Y-108300000D02*
X89420000Y-110420000D01*
X89420000Y-110420000D02*
X91190000Y-110420000D01*
X78500000Y-87900000D02*
X78500000Y-92900000D01*
X150900000Y-38100000D02*
X150800000Y-38100000D01*
X173600000Y-50200000D02*
X172700000Y-50200000D01*
X172700000Y-50200000D02*
X160600000Y-38100000D01*
X160600000Y-38100000D02*
X150900000Y-38100000D01*
X175642008Y-52242008D02*
X173600000Y-50200000D01*
X146200000Y-33500000D02*
X128100000Y-33500000D01*
X150800000Y-38100000D02*
X146200000Y-33500000D01*
X175961941Y-52242008D02*
X175642008Y-52242008D01*
X177757992Y-145961941D02*
X177757992Y-148342008D01*
X140700000Y-167900000D02*
X125700000Y-167900000D01*
X142300000Y-166300000D02*
X140700000Y-167900000D01*
X150000000Y-166300000D02*
X142300000Y-166300000D01*
X156300000Y-160000000D02*
X150000000Y-166300000D01*
X163900000Y-160000000D02*
X156300000Y-160000000D01*
X174300000Y-149600000D02*
X163900000Y-160000000D01*
X176500000Y-149600000D02*
X174300000Y-149600000D01*
X177757992Y-148342008D02*
X176500000Y-149600000D01*
X177757992Y-145961941D02*
X179138059Y-145961941D01*
X185013648Y-140086352D02*
X185013648Y-136970587D01*
X179138059Y-145961941D02*
X185013648Y-140086352D01*
X185013648Y-136970587D02*
X185013648Y-135786352D01*
X191400000Y-127658159D02*
X190597742Y-126855901D01*
X191400000Y-129400000D02*
X191400000Y-127658159D01*
X185013648Y-135786352D02*
X191400000Y-129400000D01*
X190597742Y-126855901D02*
X190597742Y-124602258D01*
X195200000Y-116784607D02*
X194340605Y-115925212D01*
X195200000Y-120000000D02*
X195200000Y-116784607D01*
X190597742Y-124602258D02*
X195200000Y-120000000D01*
X194340605Y-115925212D02*
X194340605Y-113359395D01*
X197300000Y-105682134D02*
X196128510Y-104510644D01*
X197300000Y-110400000D02*
X197300000Y-105682134D01*
X194340605Y-113359395D02*
X197300000Y-110400000D01*
X196128510Y-104510644D02*
X196128510Y-99971490D01*
X198000000Y-95051888D02*
X195907134Y-92959022D01*
X198000000Y-98100000D02*
X198000000Y-95051888D01*
X196128510Y-99971490D02*
X198000000Y-98100000D01*
X195907134Y-92959022D02*
X195907134Y-82407134D01*
X195121336Y-81621336D02*
X193683205Y-81621336D01*
X195907134Y-82407134D02*
X195121336Y-81621336D01*
X189524292Y-70842077D02*
X190542077Y-70842077D01*
X192100000Y-80038131D02*
X193683205Y-81621336D01*
X192100000Y-72400000D02*
X192100000Y-80038131D01*
X190542077Y-70842077D02*
X192100000Y-72400000D01*
X183556764Y-60948767D02*
X185148767Y-60948767D01*
X187600000Y-68917785D02*
X189524292Y-70842077D01*
X187600000Y-63400000D02*
X187600000Y-68917785D01*
X185148767Y-60948767D02*
X187600000Y-63400000D01*
X175961941Y-52242008D02*
X178342008Y-52242008D01*
X183556764Y-57456764D02*
X183556764Y-60948767D01*
X178342008Y-52242008D02*
X183556764Y-57456764D01*
D21*
X46600000Y-122150000D02*
X45350000Y-123400000D01*
X46600000Y-114400000D02*
X46600000Y-122150000D01*
X47800000Y-113200000D02*
X46600000Y-114400000D01*
X53600000Y-113200000D02*
X47800000Y-113200000D01*
X54800000Y-112000000D02*
X53600000Y-113200000D01*
X45350000Y-114350000D02*
X45350000Y-119700000D01*
X47400000Y-112300000D02*
X45350000Y-114350000D01*
X53200000Y-112300000D02*
X47400000Y-112300000D01*
X54200000Y-111300000D02*
X53200000Y-112300000D01*
D20*
X59700000Y-65800000D02*
X45300000Y-65800000D01*
X61000000Y-67100000D02*
X59700000Y-65800000D01*
X86000000Y-110800000D02*
X86000000Y-111800000D01*
X87400000Y-109400000D02*
X86000000Y-110800000D01*
X60749998Y-67949998D02*
X60649998Y-67949998D01*
X81600000Y-68900000D02*
X80649998Y-67949998D01*
X80649998Y-67949998D02*
X60749998Y-67949998D01*
X94000000Y-84300000D02*
X90400000Y-80700000D01*
X94000000Y-84600000D02*
X94000000Y-84300000D01*
X94000000Y-84700000D02*
X94000000Y-84600000D01*
X94000000Y-84900000D02*
X94000000Y-84700000D01*
X94000000Y-85900000D02*
X94000000Y-84900000D01*
X59200000Y-66500000D02*
X46100000Y-66500000D01*
X60649998Y-67949998D02*
X59200000Y-66500000D01*
X58800000Y-67200000D02*
X45300000Y-67200000D01*
X60000000Y-68400000D02*
X58800000Y-67200000D01*
X80000000Y-68400000D02*
X60000000Y-68400000D01*
X80500000Y-68900000D02*
X80000000Y-68400000D01*
X93300000Y-84600000D02*
X89400000Y-80700000D01*
X93300000Y-86500000D02*
X93300000Y-84600000D01*
X93100000Y-86700000D02*
X93300000Y-86500000D01*
X41100000Y-77500000D02*
X35700000Y-72100000D01*
X48131801Y-133231801D02*
X41868199Y-133231801D01*
X41868199Y-133231801D02*
X41300000Y-133800000D01*
X49063602Y-132300000D02*
X48463602Y-132900000D01*
X78600000Y-132300000D02*
X49063602Y-132300000D01*
X80000000Y-133700000D02*
X78600000Y-132300000D01*
X90300000Y-132100000D02*
X89700000Y-132700000D01*
X90300000Y-123900000D02*
X90300000Y-132100000D01*
X93150002Y-121049998D02*
X90300000Y-123900000D01*
X93150002Y-107449998D02*
X93150002Y-121049998D01*
X93200000Y-107400000D02*
X93150002Y-107449998D01*
X48463602Y-132900000D02*
X48131801Y-133231801D01*
X35200000Y-74000000D02*
X36500000Y-74000000D01*
X36500000Y-74000000D02*
X36600000Y-74000000D01*
X36600000Y-74000000D02*
X41000000Y-78400000D01*
X89300000Y-90600000D02*
X87500000Y-90600000D01*
X90000000Y-91300000D02*
X89300000Y-90600000D01*
X89600000Y-89600000D02*
X87800000Y-89600000D01*
X91500000Y-91500000D02*
X89600000Y-89600000D01*
X91500000Y-100300000D02*
X91500000Y-91500000D01*
X92299988Y-101099988D02*
X91500000Y-100300000D01*
X93499988Y-101099988D02*
X92299988Y-101099988D01*
X94200000Y-101800000D02*
X93499988Y-101099988D01*
X94600000Y-103263602D02*
X94600000Y-118100000D01*
X92886388Y-101549990D02*
X94600000Y-103263602D01*
X91599990Y-101549990D02*
X92886388Y-101549990D01*
X90750000Y-100700000D02*
X91599990Y-101549990D01*
X90750000Y-95700000D02*
X90750000Y-100700000D01*
X93900000Y-103200000D02*
X93900000Y-118900000D01*
X92699992Y-101999992D02*
X93900000Y-103200000D01*
X90399992Y-101999992D02*
X92699992Y-101999992D01*
X89750000Y-101350000D02*
X90399992Y-101999992D01*
X89750000Y-101150000D02*
X89750000Y-101350000D01*
X89750000Y-95700000D02*
X89750000Y-101150000D01*
X93900000Y-67100000D02*
X93900000Y-62900000D01*
X98800000Y-67100000D02*
X98800000Y-62900000D01*
X172800000Y-54600000D02*
X172800000Y-52590806D01*
X124640804Y-35450002D02*
X116849994Y-43240812D01*
X116849994Y-43240812D02*
X116849994Y-46950006D01*
X116849994Y-46950006D02*
X114100000Y-49700000D01*
X114100000Y-49700000D02*
X113200000Y-49700000D01*
X183829413Y-63029413D02*
X185013648Y-63029413D01*
X175600000Y-57400000D02*
X172800000Y-54600000D01*
X178200000Y-57400000D02*
X175600000Y-57400000D01*
X183829413Y-63029413D02*
X178200000Y-57400000D01*
X143513604Y-35450002D02*
X124640804Y-35450002D01*
X145922798Y-35450002D02*
X143513604Y-35450002D01*
X150172792Y-39699996D02*
X145922798Y-35450002D01*
X159909190Y-39699996D02*
X150172792Y-39699996D01*
X172800000Y-52590806D02*
X159909190Y-39699996D01*
X175938059Y-54038059D02*
X174800000Y-52900000D01*
X116399992Y-46463610D02*
X114763602Y-48100000D01*
X114763602Y-48100000D02*
X113900000Y-48100000D01*
X143700000Y-35000000D02*
X124454408Y-35000000D01*
X175938059Y-54038059D02*
X177757992Y-54038059D01*
X124454408Y-35000000D02*
X116399992Y-43054416D01*
X116399992Y-43054416D02*
X116399992Y-46463610D01*
X146109194Y-35000000D02*
X143700000Y-35000000D01*
X150359188Y-39249994D02*
X146109194Y-35000000D01*
X160095586Y-39249994D02*
X150359188Y-39249994D01*
X172845592Y-52000000D02*
X160095586Y-39249994D01*
X173900000Y-52000000D02*
X172845592Y-52000000D01*
X174800000Y-52900000D02*
X173900000Y-52000000D01*
X119730000Y-31730000D02*
X120900000Y-32900000D01*
X115200000Y-46500000D02*
X114600000Y-46500000D01*
X115949990Y-45750010D02*
X115200000Y-46500000D01*
X115949990Y-42868020D02*
X115949990Y-45750010D01*
X121000000Y-37818010D02*
X115949990Y-42868020D01*
X121000000Y-33000000D02*
X121000000Y-37818010D01*
X120900000Y-32900000D02*
X121000000Y-33000000D01*
X171449994Y-55159188D02*
X171449994Y-53149994D01*
X125199992Y-36800008D02*
X118200000Y-43800000D01*
X118200000Y-43800000D02*
X118200000Y-48300000D01*
X118200000Y-48300000D02*
X112000000Y-54500000D01*
X112000000Y-54500000D02*
X111100000Y-54500000D01*
X194600000Y-94200000D02*
X195889356Y-95489356D01*
X194600000Y-94200000D02*
X194600000Y-89400000D01*
X194600000Y-89400000D02*
X189800000Y-84600000D01*
X189800000Y-84600000D02*
X189800000Y-79700000D01*
X189800000Y-79700000D02*
X189649998Y-79549998D01*
X189649998Y-79549998D02*
X189649998Y-78186396D01*
X189649998Y-78186396D02*
X185349998Y-73886396D01*
X185349998Y-73886396D02*
X185349998Y-69522794D01*
X185349998Y-69522794D02*
X183427208Y-67600004D01*
X183427208Y-67600004D02*
X182827208Y-67600004D01*
X182827208Y-67600004D02*
X179099996Y-63872792D01*
X179099996Y-63872792D02*
X179099996Y-60209190D01*
X179099996Y-60209190D02*
X177640812Y-58750006D01*
X177640812Y-58750006D02*
X175040812Y-58750006D01*
X175040812Y-58750006D02*
X171449994Y-55159188D01*
X142954416Y-36800008D02*
X125199992Y-36800008D01*
X145363610Y-36800008D02*
X142954416Y-36800008D01*
X149613604Y-41050002D02*
X145363610Y-36800008D01*
X159350002Y-41050002D02*
X149613604Y-41050002D01*
X171449994Y-53149994D02*
X159350002Y-41050002D01*
X196128510Y-95489356D02*
X195889356Y-95489356D01*
X171899996Y-54972792D02*
X171899996Y-52963598D01*
X117749998Y-47850002D02*
X112700000Y-52900000D01*
X112700000Y-52900000D02*
X111800000Y-52900000D01*
X143140812Y-36350006D02*
X125013596Y-36350006D01*
X125013596Y-36350006D02*
X117749998Y-43613604D01*
X175227208Y-58300004D02*
X171899996Y-54972792D01*
X177827208Y-58300004D02*
X175227208Y-58300004D01*
X179549998Y-60022794D02*
X177827208Y-58300004D01*
X179549998Y-63686396D02*
X179549998Y-60022794D01*
X183013604Y-67150002D02*
X179549998Y-63686396D01*
X183613604Y-67150002D02*
X183013604Y-67150002D01*
X185800000Y-69336398D02*
X183613604Y-67150002D01*
X185800000Y-73700000D02*
X185800000Y-69336398D01*
X190100000Y-78000000D02*
X185800000Y-73700000D01*
X190100000Y-79300000D02*
X190100000Y-78000000D01*
X192500000Y-81700000D02*
X190100000Y-79300000D01*
X192500000Y-82800000D02*
X192500000Y-81700000D01*
X192500000Y-82800000D02*
X193774788Y-84074788D01*
X117749998Y-43613604D02*
X117749998Y-47850002D01*
X145550006Y-36350006D02*
X143140812Y-36350006D01*
X149800000Y-40600000D02*
X145550006Y-36350006D01*
X159536398Y-40600000D02*
X149800000Y-40600000D01*
X171899996Y-52963598D02*
X159536398Y-40600000D01*
X194340605Y-84074788D02*
X193774788Y-84074788D01*
X172349998Y-54786396D02*
X172349998Y-52777202D01*
X117299996Y-47400004D02*
X113400000Y-51300000D01*
X113400000Y-51300000D02*
X112500000Y-51300000D01*
X143327208Y-35900004D02*
X124827200Y-35900004D01*
X189544099Y-73144099D02*
X190597742Y-73144099D01*
X175413604Y-57850002D02*
X172349998Y-54786396D01*
X178013604Y-57850002D02*
X175413604Y-57850002D01*
X180000000Y-59836398D02*
X178013604Y-57850002D01*
X180000000Y-63500000D02*
X180000000Y-59836398D01*
X183200000Y-66700000D02*
X180000000Y-63500000D01*
X183800000Y-66700000D02*
X183200000Y-66700000D01*
X188500000Y-71400000D02*
X183800000Y-66700000D01*
X188500000Y-72100000D02*
X188500000Y-71400000D01*
X189544099Y-73144099D02*
X188500000Y-72100000D01*
X124827200Y-35900004D02*
X117299996Y-43427208D01*
X117299996Y-43427208D02*
X117299996Y-47400004D01*
X145736402Y-35900004D02*
X143327208Y-35900004D01*
X149986396Y-40149998D02*
X145736402Y-35900004D01*
X159722794Y-40149998D02*
X149986396Y-40149998D01*
X172349998Y-52777202D02*
X159722794Y-40149998D01*
X189524292Y-129157923D02*
X189524292Y-129175708D01*
X189524292Y-129175708D02*
X184600000Y-134100000D01*
X184600000Y-134100000D02*
X182400000Y-134100000D01*
X182400000Y-134100000D02*
X180100000Y-136400000D01*
X180100000Y-136400000D02*
X180100000Y-137463602D01*
X180100000Y-137463602D02*
X172349998Y-145213604D01*
X172349998Y-145213604D02*
X172349998Y-147977206D01*
X172349998Y-147977206D02*
X162427208Y-157899996D01*
X162427208Y-157899996D02*
X155427208Y-157899996D01*
X155427208Y-157899996D02*
X149127208Y-164199996D01*
X149127208Y-164199996D02*
X141427208Y-164199996D01*
X141427208Y-164199996D02*
X140027208Y-165599996D01*
X140027208Y-165599996D02*
X127172792Y-165599996D01*
X127172792Y-165599996D02*
X118100004Y-156527208D01*
X118100004Y-156527208D02*
X118100004Y-152900004D01*
X118100004Y-152900004D02*
X113900000Y-148700000D01*
X113900000Y-148700000D02*
X112500000Y-148700000D01*
X193683205Y-118378664D02*
X193683205Y-118416795D01*
X193683205Y-118416795D02*
X185900000Y-126200000D01*
X185900000Y-126200000D02*
X185900000Y-129963602D01*
X185900000Y-129963602D02*
X179649998Y-136213604D01*
X179649998Y-136213604D02*
X179649998Y-137277206D01*
X179649998Y-137277206D02*
X171899996Y-145027208D01*
X171899996Y-145027208D02*
X171899996Y-147790810D01*
X171899996Y-147790810D02*
X162240812Y-157449994D01*
X162240812Y-157449994D02*
X155240812Y-157449994D01*
X155240812Y-157449994D02*
X148940812Y-163749994D01*
X148940812Y-163749994D02*
X141240812Y-163749994D01*
X141240812Y-163749994D02*
X139840812Y-165149994D01*
X139840812Y-165149994D02*
X127359188Y-165149994D01*
X127359188Y-165149994D02*
X118550006Y-156340812D01*
X118550006Y-156340812D02*
X118550006Y-152350006D01*
X118550006Y-152350006D02*
X113300000Y-147100000D01*
X113300000Y-147100000D02*
X111800000Y-147100000D01*
X195907134Y-107040978D02*
X195907134Y-110392866D01*
X171449994Y-147604414D02*
X162054416Y-156999992D01*
X162054416Y-156999992D02*
X155054416Y-156999992D01*
X155054416Y-156999992D02*
X148754416Y-163299992D01*
X148754416Y-163299992D02*
X141054416Y-163299992D01*
X141054416Y-163299992D02*
X139654416Y-164699992D01*
X139654416Y-164699992D02*
X127545584Y-164699992D01*
X127545584Y-164699992D02*
X119000008Y-156154416D01*
X119000008Y-156154416D02*
X119000008Y-151800008D01*
X119000008Y-151800008D02*
X112700000Y-145500000D01*
X112700000Y-145500000D02*
X111100000Y-145500000D01*
X179199996Y-137090810D02*
X171449994Y-144840812D01*
X179199996Y-136027208D02*
X179199996Y-137090810D01*
X185449998Y-129777206D02*
X179199996Y-136027208D01*
X185449998Y-126013604D02*
X185449998Y-129777206D01*
X189800000Y-121663602D02*
X185449998Y-126013604D01*
X189800000Y-115400000D02*
X189800000Y-121663602D01*
X192600000Y-112600000D02*
X189800000Y-115400000D01*
X193700000Y-112600000D02*
X192600000Y-112600000D01*
X195907134Y-110392866D02*
X193700000Y-112600000D01*
X171449994Y-144840812D02*
X171449994Y-147604414D01*
X102900000Y-97600000D02*
X102900000Y-98600000D01*
X101600000Y-96300000D02*
X102900000Y-97600000D01*
X101300000Y-96300000D02*
X101600000Y-96300000D01*
X99800000Y-96300000D02*
X101300000Y-96300000D01*
X119730000Y-165730000D02*
X119730000Y-160066398D01*
X115600000Y-153500000D02*
X114600000Y-153500000D01*
X116749998Y-154649998D02*
X115600000Y-153500000D01*
X116749998Y-157086396D02*
X116749998Y-154649998D01*
X119730000Y-160066398D02*
X116749998Y-157086396D01*
X102200000Y-97700000D02*
X102200000Y-99200000D01*
X101500000Y-97000000D02*
X102200000Y-97700000D01*
X100300000Y-97000000D02*
X101500000Y-97000000D01*
X175961941Y-147757992D02*
X173842008Y-147757992D01*
X115300000Y-151900000D02*
X113900000Y-151900000D01*
X117200000Y-153800000D02*
X115300000Y-151900000D01*
X117200000Y-156900000D02*
X117200000Y-153800000D01*
X126800000Y-166500000D02*
X117200000Y-156900000D01*
X140400000Y-166500000D02*
X126800000Y-166500000D01*
X141800000Y-165100000D02*
X140400000Y-166500000D01*
X149500000Y-165100000D02*
X141800000Y-165100000D01*
X155800000Y-158800000D02*
X149500000Y-165100000D01*
X162800000Y-158800000D02*
X155800000Y-158800000D01*
X173842008Y-147757992D02*
X162800000Y-158800000D01*
X183556764Y-139051233D02*
X183548767Y-139051233D01*
X183548767Y-139051233D02*
X180300000Y-142300000D01*
X180300000Y-142300000D02*
X175900000Y-142300000D01*
X175900000Y-142300000D02*
X172800000Y-145400000D01*
X172800000Y-145400000D02*
X172800000Y-148163602D01*
X172800000Y-148163602D02*
X162613604Y-158349998D01*
X162613604Y-158349998D02*
X155613604Y-158349998D01*
X155613604Y-158349998D02*
X149313604Y-164649998D01*
X149313604Y-164649998D02*
X141613604Y-164649998D01*
X141613604Y-164649998D02*
X140213604Y-166049998D01*
X140213604Y-166049998D02*
X126986396Y-166049998D01*
X126986396Y-166049998D02*
X117650002Y-156713604D01*
X117650002Y-156713604D02*
X117650002Y-153450002D01*
X117650002Y-153450002D02*
X114500000Y-150300000D01*
X114500000Y-150300000D02*
X113200000Y-150300000D01*
X79400000Y-88800000D02*
X89800000Y-88800000D01*
X68800000Y-88800000D02*
X67863602Y-88800000D01*
X65749998Y-86686396D02*
X67863602Y-88800000D01*
X65300000Y-77600000D02*
X65749998Y-78049998D01*
X65749998Y-78049998D02*
X65749998Y-86686396D01*
X89800000Y-88800000D02*
X90400000Y-89400000D01*
X79900000Y-126000000D02*
X78830000Y-127070000D01*
X78830000Y-127070000D02*
X75760000Y-127070000D01*
X100200000Y-108800000D02*
X99600000Y-108200000D01*
X99600000Y-108200000D02*
X95400000Y-108200000D01*
X92160000Y-118040000D02*
X91190000Y-118040000D01*
X92700000Y-117500000D02*
X92160000Y-118040000D01*
X92700000Y-110100000D02*
X92700000Y-117500000D01*
X90700000Y-108100000D02*
X92700000Y-110100000D01*
X125230000Y-31730000D02*
X122270000Y-31730000D01*
X127800000Y-34300000D02*
X125230000Y-31730000D01*
X146300000Y-34300000D02*
X127800000Y-34300000D01*
X150600000Y-38600000D02*
X146300000Y-34300000D01*
X160400000Y-38600000D02*
X150600000Y-38600000D01*
X173100000Y-51300000D02*
X160400000Y-38600000D01*
X123440000Y-167100000D02*
X122270000Y-168270000D01*
X140600000Y-167100000D02*
X123440000Y-167100000D01*
X142000000Y-165700000D02*
X140600000Y-167100000D01*
X149800000Y-165700000D02*
X142000000Y-165700000D01*
X156100000Y-159400000D02*
X149800000Y-165700000D01*
X163300000Y-159400000D02*
X156100000Y-159400000D01*
X173000000Y-149700000D02*
X163300000Y-159400000D01*
X38600000Y-133800000D02*
X38600000Y-132900000D01*
X65800000Y-133700000D02*
X49000000Y-133700000D01*
X49000000Y-133700000D02*
X48000000Y-134700000D01*
X48000000Y-134700000D02*
X39500000Y-134700000D01*
X39500000Y-134700000D02*
X38600000Y-133800000D01*
X39313604Y-135150002D02*
X39050002Y-135150002D01*
X65100000Y-134400000D02*
X49000000Y-134400000D01*
X49000000Y-134400000D02*
X48249998Y-135150002D01*
X48249998Y-135150002D02*
X39313604Y-135150002D01*
X37700000Y-133800000D02*
X37700000Y-132900000D01*
X39050002Y-135150002D02*
X37700000Y-133800000D01*
X91499996Y-102899996D02*
X70899996Y-102899996D01*
X92300000Y-103700000D02*
X91499996Y-102899996D01*
X69800000Y-96000000D02*
X69200000Y-95400000D01*
X69800000Y-101800000D02*
X69800000Y-96000000D01*
X70899996Y-102899996D02*
X69800000Y-101800000D01*
X70250002Y-95949998D02*
X70800000Y-95400000D01*
X70250002Y-101613604D02*
X70250002Y-95949998D01*
X71086392Y-102449994D02*
X70250002Y-101613604D01*
X92049994Y-102449994D02*
X71086392Y-102449994D01*
X92400000Y-102800000D02*
X92049994Y-102449994D01*
X76100000Y-103800000D02*
X75400000Y-104500000D01*
X87900000Y-103800000D02*
X76100000Y-103800000D01*
X88400000Y-104300000D02*
X87900000Y-103800000D01*
X70650002Y-103349998D02*
X69600000Y-104400000D01*
X90249998Y-103349998D02*
X70650002Y-103349998D01*
X90800000Y-103900000D02*
X90249998Y-103349998D01*
X88500000Y-93400000D02*
X88500000Y-91600000D01*
X86700000Y-95200000D02*
X88500000Y-93400000D01*
X48000000Y-134000000D02*
X47500000Y-134000000D01*
X49000000Y-133000000D02*
X48000000Y-134000000D01*
X65100000Y-133000000D02*
X49000000Y-133000000D01*
X42700000Y-134000000D02*
X47500000Y-134000000D01*
D23*
G36*
X42782146Y-60297345D02*
X42950578Y-60549422D01*
X43202655Y-60717854D01*
X43500000Y-60777000D01*
X47447582Y-60777000D01*
X46823011Y-61035067D01*
X46336774Y-61520456D01*
X46073300Y-62154971D01*
X46072701Y-62842014D01*
X46335067Y-63476989D01*
X46820456Y-63963226D01*
X47454971Y-64226700D01*
X48142014Y-64227299D01*
X48776989Y-63964933D01*
X49263226Y-63479544D01*
X49526700Y-62845029D01*
X49527299Y-62157986D01*
X49264933Y-61523011D01*
X48779544Y-61036774D01*
X48153940Y-60777000D01*
X51223000Y-60777000D01*
X51223000Y-64948000D01*
X45900616Y-64948000D01*
X45882508Y-64929860D01*
X45505179Y-64773179D01*
X45096613Y-64772822D01*
X44719011Y-64928844D01*
X44429860Y-65217492D01*
X44273179Y-65594821D01*
X44272822Y-66003387D01*
X44428844Y-66380989D01*
X44547602Y-66499954D01*
X44429860Y-66617492D01*
X44273179Y-66994821D01*
X44272822Y-67403387D01*
X44428844Y-67780989D01*
X44717492Y-68070140D01*
X45094821Y-68226821D01*
X45503387Y-68227178D01*
X45880989Y-68071156D01*
X45900178Y-68052000D01*
X58447090Y-68052000D01*
X59397545Y-69002455D01*
X59673954Y-69187145D01*
X60000000Y-69252000D01*
X79534228Y-69252000D01*
X79628844Y-69480989D01*
X79917492Y-69770140D01*
X80294821Y-69926821D01*
X80703387Y-69927178D01*
X81050389Y-69783800D01*
X81394821Y-69926821D01*
X81803387Y-69927178D01*
X82180989Y-69771156D01*
X82470140Y-69482508D01*
X82626821Y-69105179D01*
X82627178Y-68696613D01*
X82471156Y-68319011D01*
X82182508Y-68029860D01*
X81805179Y-67873179D01*
X81778065Y-67873155D01*
X81252453Y-67347543D01*
X80976044Y-67162853D01*
X80649998Y-67097998D01*
X62027002Y-67097998D01*
X62027178Y-66896613D01*
X61871156Y-66519011D01*
X61582508Y-66229860D01*
X61205179Y-66073179D01*
X61178065Y-66073155D01*
X60881910Y-65777000D01*
X78000000Y-65777000D01*
X78297345Y-65717854D01*
X78549422Y-65549422D01*
X78717854Y-65297345D01*
X78777000Y-65000000D01*
X78777000Y-62842014D01*
X80472701Y-62842014D01*
X80735067Y-63476989D01*
X81220456Y-63963226D01*
X81854971Y-64226700D01*
X82542014Y-64227299D01*
X83176989Y-63964933D01*
X83663226Y-63479544D01*
X83819420Y-63103387D01*
X92872822Y-63103387D01*
X93028844Y-63480989D01*
X93048000Y-63500178D01*
X93048000Y-66499384D01*
X93029860Y-66517492D01*
X92873179Y-66894821D01*
X92872822Y-67303387D01*
X93028844Y-67680989D01*
X93317492Y-67970140D01*
X93694821Y-68126821D01*
X94103387Y-68127178D01*
X94480989Y-67971156D01*
X94770140Y-67682508D01*
X94926821Y-67305179D01*
X94927178Y-66896613D01*
X94771156Y-66519011D01*
X94752000Y-66499822D01*
X94752000Y-63500616D01*
X94770140Y-63482508D01*
X94926821Y-63105179D01*
X94926822Y-63103387D01*
X97772822Y-63103387D01*
X97928844Y-63480989D01*
X97948000Y-63500178D01*
X97948000Y-66499384D01*
X97929860Y-66517492D01*
X97773179Y-66894821D01*
X97772822Y-67303387D01*
X97928844Y-67680989D01*
X98217492Y-67970140D01*
X98594821Y-68126821D01*
X99003387Y-68127178D01*
X99380989Y-67971156D01*
X99670140Y-67682508D01*
X99826821Y-67305179D01*
X99827178Y-66896613D01*
X99671156Y-66519011D01*
X99652000Y-66499822D01*
X99652000Y-63500616D01*
X99670140Y-63482508D01*
X99826821Y-63105179D01*
X99827178Y-62696613D01*
X99671156Y-62319011D01*
X99382508Y-62029860D01*
X99005179Y-61873179D01*
X98596613Y-61872822D01*
X98219011Y-62028844D01*
X97929860Y-62317492D01*
X97773179Y-62694821D01*
X97772822Y-63103387D01*
X94926822Y-63103387D01*
X94927178Y-62696613D01*
X94771156Y-62319011D01*
X94482508Y-62029860D01*
X94105179Y-61873179D01*
X93696613Y-61872822D01*
X93319011Y-62028844D01*
X93029860Y-62317492D01*
X92873179Y-62694821D01*
X92872822Y-63103387D01*
X83819420Y-63103387D01*
X83926700Y-62845029D01*
X83927299Y-62157986D01*
X83664933Y-61523011D01*
X83179544Y-61036774D01*
X82545029Y-60773300D01*
X81857986Y-60772701D01*
X81223011Y-61035067D01*
X80736774Y-61520456D01*
X80473300Y-62154971D01*
X80472701Y-62842014D01*
X78777000Y-62842014D01*
X78777000Y-60777000D01*
X80500000Y-60777000D01*
X80797345Y-60717854D01*
X81049422Y-60549422D01*
X81217854Y-60297345D01*
X81251738Y-60127000D01*
X82748262Y-60127000D01*
X82782146Y-60297345D01*
X82950578Y-60549422D01*
X83202655Y-60717854D01*
X83500000Y-60777000D01*
X98686962Y-60777000D01*
X98758959Y-60762679D01*
X98832367Y-60763274D01*
X99567685Y-60623194D01*
X99705254Y-60567513D01*
X99843430Y-60512885D01*
X100441717Y-60127000D01*
X104873000Y-60127000D01*
X104873000Y-73684780D01*
X104682968Y-74072299D01*
X104657100Y-74169709D01*
X104618532Y-74262820D01*
X104237930Y-76176237D01*
X104237930Y-76252764D01*
X104223000Y-76327822D01*
X104223000Y-123672178D01*
X104227857Y-123696594D01*
X104224552Y-123721270D01*
X104264471Y-124351822D01*
X104290339Y-124449229D01*
X104303049Y-124549210D01*
X104873000Y-126253121D01*
X104873000Y-139873000D01*
X100432980Y-139873000D01*
X99884007Y-139506188D01*
X99603914Y-139390170D01*
X98838547Y-139237929D01*
X98762015Y-139237929D01*
X98686962Y-139223000D01*
X85000000Y-139223000D01*
X84702655Y-139282146D01*
X84450578Y-139450578D01*
X84282146Y-139702655D01*
X84248262Y-139873000D01*
X82751738Y-139873000D01*
X82717854Y-139702655D01*
X82549422Y-139450578D01*
X82297345Y-139282146D01*
X82019321Y-139226843D01*
X82542014Y-139227299D01*
X83176989Y-138964933D01*
X83663226Y-138479544D01*
X83926700Y-137845029D01*
X83927299Y-137157986D01*
X83664933Y-136523011D01*
X83179544Y-136036774D01*
X82545029Y-135773300D01*
X81857986Y-135772701D01*
X81223011Y-136035067D01*
X80736774Y-136520456D01*
X80473300Y-137154971D01*
X80472701Y-137842014D01*
X80735067Y-138476989D01*
X81220456Y-138963226D01*
X81846060Y-139223000D01*
X78777000Y-139223000D01*
X78777000Y-135000000D01*
X78717854Y-134702655D01*
X78549422Y-134450578D01*
X78297345Y-134282146D01*
X78000000Y-134223000D01*
X66694850Y-134223000D01*
X66826821Y-133905179D01*
X66827178Y-133496613D01*
X66684787Y-133152000D01*
X78247090Y-133152000D01*
X78972844Y-133877754D01*
X78972822Y-133903387D01*
X79128844Y-134280989D01*
X79417492Y-134570140D01*
X79794821Y-134726821D01*
X80203387Y-134727178D01*
X80580989Y-134571156D01*
X80870140Y-134282508D01*
X81011945Y-133941003D01*
X81180989Y-133871156D01*
X81470140Y-133582508D01*
X81626821Y-133205179D01*
X81627178Y-132796613D01*
X81471156Y-132419011D01*
X81182508Y-132129860D01*
X80805179Y-131973179D01*
X80778065Y-131973155D01*
X80052453Y-131247543D01*
X79776044Y-131062853D01*
X79449998Y-130997998D01*
X51457947Y-130997998D01*
X51532843Y-130888385D01*
X51591242Y-130600000D01*
X51591242Y-129400000D01*
X51540549Y-129130590D01*
X51381328Y-128883154D01*
X51295348Y-128824406D01*
X51506883Y-128507821D01*
X51567438Y-128203387D01*
X60172822Y-128203387D01*
X60328844Y-128580989D01*
X60617492Y-128870140D01*
X60994821Y-129026821D01*
X61403387Y-129027178D01*
X61780989Y-128871156D01*
X62070140Y-128582508D01*
X62226821Y-128205179D01*
X62227178Y-127796613D01*
X62071156Y-127419011D01*
X62052000Y-127399822D01*
X62052000Y-127273387D01*
X74732822Y-127273387D01*
X74888844Y-127650989D01*
X75177492Y-127940140D01*
X75554821Y-128096821D01*
X75963387Y-128097178D01*
X76340989Y-127941156D01*
X76360178Y-127922000D01*
X78830000Y-127922000D01*
X79156046Y-127857145D01*
X79432455Y-127672455D01*
X80077754Y-127027156D01*
X80103387Y-127027178D01*
X80480989Y-126871156D01*
X80770140Y-126582508D01*
X80926821Y-126205179D01*
X80927178Y-125796613D01*
X80771156Y-125419011D01*
X80482508Y-125129860D01*
X80105179Y-124973179D01*
X79696613Y-124972822D01*
X79319011Y-125128844D01*
X79029860Y-125417492D01*
X78873179Y-125794821D01*
X78873155Y-125821935D01*
X78477090Y-126218000D01*
X76360616Y-126218000D01*
X76342508Y-126199860D01*
X75965179Y-126043179D01*
X75556613Y-126042822D01*
X75179011Y-126198844D01*
X74889860Y-126487492D01*
X74733179Y-126864821D01*
X74732822Y-127273387D01*
X62052000Y-127273387D01*
X62052000Y-126852910D01*
X62477754Y-126427156D01*
X62503387Y-126427178D01*
X62880989Y-126271156D01*
X63170140Y-125982508D01*
X63326821Y-125605179D01*
X63327178Y-125196613D01*
X63171156Y-124819011D01*
X62882508Y-124529860D01*
X62505179Y-124373179D01*
X62096613Y-124372822D01*
X61719011Y-124528844D01*
X61429860Y-124817492D01*
X61273179Y-125194821D01*
X61273155Y-125221935D01*
X60597545Y-125897545D01*
X60412855Y-126173954D01*
X60348000Y-126500000D01*
X60348000Y-127399384D01*
X60329860Y-127417492D01*
X60173179Y-127794821D01*
X60172822Y-128203387D01*
X51567438Y-128203387D01*
X51607895Y-128000000D01*
X51506883Y-127492179D01*
X51219226Y-127061669D01*
X50788716Y-126774012D01*
X50280895Y-126673000D01*
X49719105Y-126673000D01*
X49211284Y-126774012D01*
X48780774Y-127061669D01*
X48493117Y-127492179D01*
X48392105Y-128000000D01*
X48493117Y-128507821D01*
X48703838Y-128823188D01*
X48633154Y-128868672D01*
X48467157Y-129111615D01*
X48408758Y-129400000D01*
X48408758Y-130600000D01*
X48459451Y-130869410D01*
X48580210Y-131057075D01*
X48551160Y-131062853D01*
X48274751Y-131247543D01*
X47592495Y-131929799D01*
X40618201Y-131929799D01*
X40292155Y-131994654D01*
X40015746Y-132179344D01*
X39622246Y-132572844D01*
X39596613Y-132572822D01*
X39579030Y-132580087D01*
X39471156Y-132319011D01*
X39182508Y-132029860D01*
X38805179Y-131873179D01*
X38396613Y-131872822D01*
X38149858Y-131974779D01*
X37905179Y-131873179D01*
X37496613Y-131872822D01*
X37119011Y-132028844D01*
X36829860Y-132317492D01*
X36673179Y-132694821D01*
X36672822Y-133103387D01*
X36828844Y-133480989D01*
X36848000Y-133500178D01*
X36848000Y-133800000D01*
X36912855Y-134126046D01*
X37097545Y-134402455D01*
X38447547Y-135752457D01*
X38723956Y-135937147D01*
X39050002Y-136002002D01*
X46903035Y-136002002D01*
X46823011Y-136035067D01*
X46336774Y-136520456D01*
X46073300Y-137154971D01*
X46072701Y-137842014D01*
X46335067Y-138476989D01*
X46820456Y-138963226D01*
X47446060Y-139223000D01*
X43500000Y-139223000D01*
X43202655Y-139282146D01*
X42950578Y-139450578D01*
X42782146Y-139702655D01*
X42748262Y-139873000D01*
X41251738Y-139873000D01*
X41217854Y-139702655D01*
X41049422Y-139450578D01*
X40797345Y-139282146D01*
X40500000Y-139223000D01*
X27076527Y-139223000D01*
X26537802Y-139115841D01*
X26145972Y-138854028D01*
X25884159Y-138462197D01*
X25777000Y-137923473D01*
X25777000Y-119604881D01*
X36510742Y-119604881D01*
X36736951Y-120152349D01*
X37155448Y-120571577D01*
X37702520Y-120798741D01*
X38294881Y-120799258D01*
X38842349Y-120573049D01*
X39261577Y-120154552D01*
X39345311Y-119952897D01*
X42572779Y-119952897D01*
X42766781Y-120422417D01*
X43125693Y-120781957D01*
X43594875Y-120976778D01*
X44102897Y-120977221D01*
X44572417Y-120783219D01*
X44599733Y-120755951D01*
X44625693Y-120781957D01*
X45094875Y-120976778D01*
X45602897Y-120977221D01*
X45623000Y-120968915D01*
X45623000Y-121745314D01*
X45245406Y-122122908D01*
X45097103Y-122122779D01*
X44627583Y-122316781D01*
X44600267Y-122344049D01*
X44574307Y-122318043D01*
X44105125Y-122123222D01*
X43597103Y-122122779D01*
X43127583Y-122316781D01*
X42768043Y-122675693D01*
X42573222Y-123144875D01*
X42572779Y-123652897D01*
X42766781Y-124122417D01*
X43125693Y-124481957D01*
X43594875Y-124676778D01*
X44102897Y-124677221D01*
X44572417Y-124483219D01*
X44599733Y-124455951D01*
X44625693Y-124481957D01*
X45094875Y-124676778D01*
X45602897Y-124677221D01*
X46072417Y-124483219D01*
X46431957Y-124124307D01*
X46626778Y-123655125D01*
X46626909Y-123504777D01*
X47290843Y-122840843D01*
X47401193Y-122675693D01*
X47502630Y-122523882D01*
X47577000Y-122150000D01*
X47577000Y-121000000D01*
X48392105Y-121000000D01*
X48493117Y-121507821D01*
X48703838Y-121823188D01*
X48633154Y-121868672D01*
X48467157Y-122111615D01*
X48408758Y-122400000D01*
X48408758Y-123600000D01*
X48459451Y-123869410D01*
X48618672Y-124116846D01*
X48861615Y-124282843D01*
X49150000Y-124341242D01*
X50850000Y-124341242D01*
X51119410Y-124290549D01*
X51366846Y-124131328D01*
X51532843Y-123888385D01*
X51591242Y-123600000D01*
X51591242Y-122400000D01*
X51540549Y-122130590D01*
X51381328Y-121883154D01*
X51295348Y-121824406D01*
X51506883Y-121507821D01*
X51607895Y-121000000D01*
X51506883Y-120492179D01*
X51219226Y-120061669D01*
X50788716Y-119774012D01*
X50280895Y-119673000D01*
X49719105Y-119673000D01*
X49211284Y-119774012D01*
X48780774Y-120061669D01*
X48493117Y-120492179D01*
X48392105Y-121000000D01*
X47577000Y-121000000D01*
X47577000Y-114804686D01*
X48204687Y-114177000D01*
X53600000Y-114177000D01*
X53973882Y-114102630D01*
X54290843Y-113890843D01*
X55260919Y-112920768D01*
X55380989Y-112871156D01*
X55670140Y-112582508D01*
X55826821Y-112205179D01*
X55827178Y-111796613D01*
X55671156Y-111419011D01*
X55382508Y-111129860D01*
X55211591Y-111058889D01*
X55071156Y-110719011D01*
X54782508Y-110429860D01*
X54405179Y-110273179D01*
X53996613Y-110272822D01*
X53619011Y-110428844D01*
X53329860Y-110717492D01*
X53279471Y-110838842D01*
X52795314Y-111323000D01*
X47400000Y-111323000D01*
X47026118Y-111397370D01*
X46915536Y-111471259D01*
X46709157Y-111609157D01*
X44659157Y-113659157D01*
X44447370Y-113976118D01*
X44373000Y-114350000D01*
X44373000Y-118534453D01*
X44105125Y-118423222D01*
X43597103Y-118422779D01*
X43127583Y-118616781D01*
X42768043Y-118975693D01*
X42573222Y-119444875D01*
X42572779Y-119952897D01*
X39345311Y-119952897D01*
X39488741Y-119607480D01*
X39489258Y-119015119D01*
X39263049Y-118467651D01*
X38844552Y-118048423D01*
X38667843Y-117975047D01*
X38723242Y-117808611D01*
X38000000Y-117085370D01*
X37276758Y-117808611D01*
X37332098Y-117974871D01*
X37157651Y-118046951D01*
X36738423Y-118465448D01*
X36511259Y-119012520D01*
X36510742Y-119604881D01*
X25777000Y-119604881D01*
X25777000Y-116658427D01*
X36580008Y-116658427D01*
X36645402Y-117210327D01*
X36730796Y-117416488D01*
X36961389Y-117493242D01*
X37684630Y-116770000D01*
X38315370Y-116770000D01*
X39038611Y-117493242D01*
X39269204Y-117416488D01*
X39419992Y-116881573D01*
X39354598Y-116329673D01*
X39269204Y-116123512D01*
X39038611Y-116046758D01*
X38315370Y-116770000D01*
X37684630Y-116770000D01*
X36961389Y-116046758D01*
X36730796Y-116123512D01*
X36580008Y-116658427D01*
X25777000Y-116658427D01*
X25777000Y-111984881D01*
X36510742Y-111984881D01*
X36736951Y-112532349D01*
X37155448Y-112951577D01*
X37175105Y-112959739D01*
X37157651Y-112966951D01*
X36738423Y-113385448D01*
X36511259Y-113932520D01*
X36510742Y-114524881D01*
X36736951Y-115072349D01*
X37155448Y-115491577D01*
X37332157Y-115564953D01*
X37276758Y-115731389D01*
X38000000Y-116454630D01*
X38723242Y-115731389D01*
X38667902Y-115565129D01*
X38842349Y-115493049D01*
X39261577Y-115074552D01*
X39488741Y-114527480D01*
X39489258Y-113935119D01*
X39263049Y-113387651D01*
X38844552Y-112968423D01*
X38824895Y-112960261D01*
X38842349Y-112953049D01*
X39261577Y-112534552D01*
X39488741Y-111987480D01*
X39489258Y-111395119D01*
X39263049Y-110847651D01*
X38844552Y-110428423D01*
X38297480Y-110201259D01*
X37705119Y-110200742D01*
X37157651Y-110426951D01*
X36738423Y-110845448D01*
X36511259Y-111392520D01*
X36510742Y-111984881D01*
X25777000Y-111984881D01*
X25777000Y-110326526D01*
X25808038Y-110170488D01*
X25853079Y-110103079D01*
X25920488Y-110058038D01*
X26076525Y-110027000D01*
X31952473Y-110027000D01*
X32363570Y-110172345D01*
X32470770Y-110243973D01*
X32573564Y-110286551D01*
X32671290Y-110339740D01*
X33136932Y-110484839D01*
X33438410Y-110516831D01*
X33438411Y-110516831D01*
X33924134Y-110472691D01*
X34214906Y-110386879D01*
X34646765Y-110160221D01*
X34830092Y-110012070D01*
X34882565Y-109969666D01*
X35194812Y-109594996D01*
X35281543Y-109435638D01*
X35339740Y-109328710D01*
X35484839Y-108863068D01*
X35510091Y-108625101D01*
X35546159Y-108618315D01*
X35588553Y-108591035D01*
X35616994Y-108549410D01*
X35627000Y-108500000D01*
X35627000Y-104777000D01*
X35999999Y-104777000D01*
X36075057Y-104762070D01*
X36151583Y-104762070D01*
X36534266Y-104685950D01*
X36534267Y-104685950D01*
X36814360Y-104569932D01*
X37138784Y-104353159D01*
X37353158Y-104138785D01*
X37569931Y-103814361D01*
X37685949Y-103534268D01*
X37685949Y-103534267D01*
X37762069Y-103151585D01*
X37762069Y-103075058D01*
X37776999Y-103000000D01*
X37776999Y-95603387D01*
X68172822Y-95603387D01*
X68328844Y-95980989D01*
X68617492Y-96270140D01*
X68948000Y-96407379D01*
X68948000Y-101800000D01*
X69012855Y-102126046D01*
X69197545Y-102402455D01*
X69795090Y-103000000D01*
X69422246Y-103372844D01*
X69396613Y-103372822D01*
X69019011Y-103528844D01*
X68729860Y-103817492D01*
X68573179Y-104194821D01*
X68572822Y-104603387D01*
X68728844Y-104980989D01*
X69017492Y-105270140D01*
X69394821Y-105426821D01*
X69803387Y-105427178D01*
X70180989Y-105271156D01*
X70470140Y-104982508D01*
X70626821Y-104605179D01*
X70626845Y-104578065D01*
X71002912Y-104201998D01*
X74411723Y-104201998D01*
X74373179Y-104294821D01*
X74372822Y-104703387D01*
X74528844Y-105080989D01*
X74817492Y-105370140D01*
X75194821Y-105526821D01*
X75603387Y-105527178D01*
X75980989Y-105371156D01*
X76270140Y-105082508D01*
X76426821Y-104705179D01*
X76426845Y-104678065D01*
X76452910Y-104652000D01*
X87434228Y-104652000D01*
X87528844Y-104880989D01*
X87817492Y-105170140D01*
X88194821Y-105326821D01*
X88603387Y-105327178D01*
X88980989Y-105171156D01*
X89270140Y-104882508D01*
X89426821Y-104505179D01*
X89427086Y-104201998D01*
X89813567Y-104201998D01*
X89928844Y-104480989D01*
X90217492Y-104770140D01*
X90594821Y-104926821D01*
X91003387Y-104927178D01*
X91380989Y-104771156D01*
X91650041Y-104502572D01*
X91717492Y-104570140D01*
X92094821Y-104726821D01*
X92503387Y-104727178D01*
X92880989Y-104571156D01*
X93048000Y-104404436D01*
X93048000Y-106372867D01*
X92996613Y-106372822D01*
X92619011Y-106528844D01*
X92329860Y-106817492D01*
X92173179Y-107194821D01*
X92172822Y-107603387D01*
X92298002Y-107906346D01*
X92298002Y-108493092D01*
X91727156Y-107922246D01*
X91727178Y-107896613D01*
X91571156Y-107519011D01*
X91282508Y-107229860D01*
X90905179Y-107073179D01*
X90496613Y-107072822D01*
X90119011Y-107228844D01*
X89829860Y-107517492D01*
X89673179Y-107894821D01*
X89672822Y-108303387D01*
X89828844Y-108680989D01*
X90117492Y-108970140D01*
X90457788Y-109111443D01*
X90347651Y-109156951D01*
X89935884Y-109568000D01*
X89772910Y-109568000D01*
X88233890Y-108028980D01*
X88326821Y-107805179D01*
X88327178Y-107396613D01*
X88171156Y-107019011D01*
X87882508Y-106729860D01*
X87505179Y-106573179D01*
X87096613Y-106572822D01*
X86719011Y-106728844D01*
X86429860Y-107017492D01*
X86273179Y-107394821D01*
X86272822Y-107803387D01*
X86428844Y-108180989D01*
X86448000Y-108200178D01*
X86448000Y-108300000D01*
X86512855Y-108626046D01*
X86596395Y-108751073D01*
X86529860Y-108817492D01*
X86373179Y-109194821D01*
X86373155Y-109221935D01*
X85397545Y-110197545D01*
X85212855Y-110473954D01*
X85148000Y-110800000D01*
X85148000Y-111199384D01*
X85129860Y-111217492D01*
X84973179Y-111594821D01*
X84972822Y-112003387D01*
X85128844Y-112380989D01*
X85417492Y-112670140D01*
X85794821Y-112826821D01*
X86203387Y-112827178D01*
X86580989Y-112671156D01*
X86870140Y-112382508D01*
X87026821Y-112005179D01*
X87027178Y-111596613D01*
X86871156Y-111219011D01*
X86852000Y-111199822D01*
X86852000Y-111152910D01*
X87577754Y-110427156D01*
X87603387Y-110427178D01*
X87980989Y-110271156D01*
X88023655Y-110228565D01*
X88817545Y-111022455D01*
X89093954Y-111207145D01*
X89420000Y-111272000D01*
X89936585Y-111272000D01*
X90345448Y-111681577D01*
X90365105Y-111689739D01*
X90347651Y-111696951D01*
X89928423Y-112115448D01*
X89701259Y-112662520D01*
X89700882Y-113094208D01*
X89247543Y-113547547D01*
X89062853Y-113823956D01*
X88997998Y-114150002D01*
X88997998Y-131097092D01*
X88622246Y-131472844D01*
X88596613Y-131472822D01*
X88219011Y-131628844D01*
X87929860Y-131917492D01*
X87773179Y-132294821D01*
X87772822Y-132703387D01*
X87928844Y-133080989D01*
X88217492Y-133370140D01*
X88594821Y-133526821D01*
X89003387Y-133527178D01*
X89053808Y-133506345D01*
X89117492Y-133570140D01*
X89494821Y-133726821D01*
X89903387Y-133727178D01*
X90280989Y-133571156D01*
X90570140Y-133282508D01*
X90726821Y-132905179D01*
X90726845Y-132878065D01*
X90902455Y-132702455D01*
X91087145Y-132426046D01*
X91152000Y-132100000D01*
X91152000Y-124252910D01*
X93752457Y-121652453D01*
X93937147Y-121376045D01*
X94002002Y-121049998D01*
X94002002Y-119927089D01*
X94103387Y-119927178D01*
X94480989Y-119771156D01*
X94770140Y-119482508D01*
X94926821Y-119105179D01*
X94926846Y-119076166D01*
X95180989Y-118971156D01*
X95470140Y-118682508D01*
X95626821Y-118305179D01*
X95627178Y-117896613D01*
X95471156Y-117519011D01*
X95452000Y-117499822D01*
X95452000Y-113254881D01*
X97320742Y-113254881D01*
X97546951Y-113802349D01*
X97965448Y-114221577D01*
X97985105Y-114229739D01*
X97967651Y-114236951D01*
X97548423Y-114655448D01*
X97321259Y-115202520D01*
X97320742Y-115794881D01*
X97546951Y-116342349D01*
X97965448Y-116761577D01*
X97985105Y-116769739D01*
X97967651Y-116776951D01*
X97548423Y-117195448D01*
X97321259Y-117742520D01*
X97320742Y-118334881D01*
X97546951Y-118882349D01*
X97965448Y-119301577D01*
X97985105Y-119309739D01*
X97967651Y-119316951D01*
X97548423Y-119735448D01*
X97321259Y-120282520D01*
X97320742Y-120874881D01*
X97546951Y-121422349D01*
X97965448Y-121841577D01*
X98512520Y-122068741D01*
X99104881Y-122069258D01*
X99652349Y-121843049D01*
X100071577Y-121424552D01*
X100298741Y-120877480D01*
X100299258Y-120285119D01*
X100073049Y-119737651D01*
X99654552Y-119318423D01*
X99634895Y-119310261D01*
X99652349Y-119303049D01*
X100071577Y-118884552D01*
X100298741Y-118337480D01*
X100299258Y-117745119D01*
X100073049Y-117197651D01*
X99654552Y-116778423D01*
X99634895Y-116770261D01*
X99652349Y-116763049D01*
X100071577Y-116344552D01*
X100298741Y-115797480D01*
X100299258Y-115205119D01*
X100073049Y-114657651D01*
X99654552Y-114238423D01*
X99634895Y-114230261D01*
X99652349Y-114223049D01*
X100071577Y-113804552D01*
X100298741Y-113257480D01*
X100299258Y-112665119D01*
X100073049Y-112117651D01*
X99654552Y-111698423D01*
X99477843Y-111625047D01*
X99533242Y-111458611D01*
X98810000Y-110735370D01*
X98086758Y-111458611D01*
X98142098Y-111624871D01*
X97967651Y-111696951D01*
X97548423Y-112115448D01*
X97321259Y-112662520D01*
X97320742Y-113254881D01*
X95452000Y-113254881D01*
X95452000Y-110308427D01*
X97390008Y-110308427D01*
X97455402Y-110860327D01*
X97540796Y-111066488D01*
X97771389Y-111143242D01*
X98494630Y-110420000D01*
X97771389Y-109696758D01*
X97540796Y-109773512D01*
X97390008Y-110308427D01*
X95452000Y-110308427D01*
X95452000Y-109227046D01*
X95603387Y-109227178D01*
X95980989Y-109071156D01*
X96000178Y-109052000D01*
X98482781Y-109052000D01*
X98369673Y-109065402D01*
X98163512Y-109150796D01*
X98086758Y-109381389D01*
X98810000Y-110104630D01*
X98824142Y-110090488D01*
X99139512Y-110405858D01*
X99125370Y-110420000D01*
X99848611Y-111143242D01*
X100079204Y-111066488D01*
X100229992Y-110531573D01*
X100164598Y-109979673D01*
X100101324Y-109826914D01*
X100403387Y-109827178D01*
X100780989Y-109671156D01*
X101070140Y-109382508D01*
X101226821Y-109005179D01*
X101227178Y-108596613D01*
X101071156Y-108219011D01*
X100782508Y-107929860D01*
X100405179Y-107773179D01*
X100378065Y-107773155D01*
X100202455Y-107597545D01*
X99926046Y-107412855D01*
X99600000Y-107348000D01*
X96000616Y-107348000D01*
X95982508Y-107329860D01*
X95605179Y-107173179D01*
X95452000Y-107173045D01*
X95452000Y-103263602D01*
X95387145Y-102937556D01*
X95202455Y-102661147D01*
X94996914Y-102455606D01*
X95070140Y-102382508D01*
X95226821Y-102005179D01*
X95227178Y-101596613D01*
X95071156Y-101219011D01*
X94782508Y-100929860D01*
X94405179Y-100773179D01*
X94378065Y-100773155D01*
X94102443Y-100497533D01*
X93826034Y-100312843D01*
X93499988Y-100247988D01*
X92652898Y-100247988D01*
X92352000Y-99947090D01*
X92352000Y-96503387D01*
X98772822Y-96503387D01*
X98928844Y-96880989D01*
X99217492Y-97170140D01*
X99272831Y-97193119D01*
X99272822Y-97203387D01*
X99428844Y-97580989D01*
X99717492Y-97870140D01*
X100094821Y-98026821D01*
X100503387Y-98027178D01*
X100880989Y-97871156D01*
X100900178Y-97852000D01*
X101147090Y-97852000D01*
X101348000Y-98052910D01*
X101348000Y-98599384D01*
X101329860Y-98617492D01*
X101173179Y-98994821D01*
X101172822Y-99403387D01*
X101328844Y-99780989D01*
X101617492Y-100070140D01*
X101994821Y-100226821D01*
X102403387Y-100227178D01*
X102780989Y-100071156D01*
X103070140Y-99782508D01*
X103141111Y-99611591D01*
X103480989Y-99471156D01*
X103770140Y-99182508D01*
X103926821Y-98805179D01*
X103927178Y-98396613D01*
X103771156Y-98019011D01*
X103752000Y-97999822D01*
X103752000Y-97600000D01*
X103687145Y-97273954D01*
X103502455Y-96997545D01*
X102202455Y-95697545D01*
X101926046Y-95512855D01*
X101600000Y-95448000D01*
X100400616Y-95448000D01*
X100382508Y-95429860D01*
X100005179Y-95273179D01*
X99596613Y-95272822D01*
X99219011Y-95428844D01*
X98929860Y-95717492D01*
X98773179Y-96094821D01*
X98772822Y-96503387D01*
X92352000Y-96503387D01*
X92352000Y-95303387D01*
X95872822Y-95303387D01*
X96028844Y-95680989D01*
X96317492Y-95970140D01*
X96694821Y-96126821D01*
X97103387Y-96127178D01*
X97480989Y-95971156D01*
X97770140Y-95682508D01*
X97907379Y-95352000D01*
X98800000Y-95352000D01*
X99126046Y-95287145D01*
X99402455Y-95102455D01*
X99477754Y-95027156D01*
X99503387Y-95027178D01*
X99880989Y-94871156D01*
X100170140Y-94582508D01*
X100326821Y-94205179D01*
X100327178Y-93796613D01*
X100171156Y-93419011D01*
X99882508Y-93129860D01*
X99505179Y-92973179D01*
X99096613Y-92972822D01*
X98719011Y-93128844D01*
X98429860Y-93417492D01*
X98334145Y-93648000D01*
X97500000Y-93648000D01*
X97173954Y-93712855D01*
X96897545Y-93897545D01*
X96722246Y-94072844D01*
X96696613Y-94072822D01*
X96319011Y-94228844D01*
X96029860Y-94517492D01*
X95873179Y-94894821D01*
X95872822Y-95303387D01*
X92352000Y-95303387D01*
X92352000Y-91500000D01*
X92287145Y-91173954D01*
X92102455Y-90897545D01*
X91228743Y-90023833D01*
X91270140Y-89982508D01*
X91426821Y-89605179D01*
X91427178Y-89196613D01*
X91271156Y-88819011D01*
X91204262Y-88752000D01*
X95199384Y-88752000D01*
X95217492Y-88770140D01*
X95594821Y-88926821D01*
X96003387Y-88927178D01*
X96380989Y-88771156D01*
X96670140Y-88482508D01*
X96826821Y-88105179D01*
X96827178Y-87696613D01*
X96671156Y-87319011D01*
X96382508Y-87029860D01*
X96005179Y-86873179D01*
X95596613Y-86872822D01*
X95219011Y-87028844D01*
X95199822Y-87048000D01*
X94067516Y-87048000D01*
X94117717Y-86927103D01*
X94203387Y-86927178D01*
X94580989Y-86771156D01*
X94870140Y-86482508D01*
X95026821Y-86105179D01*
X95027178Y-85696613D01*
X94871156Y-85319011D01*
X94852000Y-85299822D01*
X94852000Y-84300000D01*
X94787145Y-83973954D01*
X94602455Y-83697545D01*
X91427156Y-80522246D01*
X91427178Y-80496613D01*
X91271156Y-80119011D01*
X90982508Y-79829860D01*
X90605179Y-79673179D01*
X90196613Y-79672822D01*
X89899735Y-79795490D01*
X89605179Y-79673179D01*
X89196613Y-79672822D01*
X88819011Y-79828844D01*
X88529860Y-80117492D01*
X88373179Y-80494821D01*
X88372822Y-80903387D01*
X88528844Y-81280989D01*
X88817492Y-81570140D01*
X89194821Y-81726821D01*
X89221935Y-81726845D01*
X92448000Y-84952910D01*
X92448000Y-85899731D01*
X92229860Y-86117492D01*
X92073179Y-86494821D01*
X92072822Y-86903387D01*
X92132575Y-87048000D01*
X79100616Y-87048000D01*
X79082508Y-87029860D01*
X78705179Y-86873179D01*
X78296613Y-86872822D01*
X77919011Y-87028844D01*
X77899822Y-87048000D01*
X77400616Y-87048000D01*
X77382508Y-87029860D01*
X77005179Y-86873179D01*
X76596613Y-86872822D01*
X76219011Y-87028844D01*
X75929860Y-87317492D01*
X75773179Y-87694821D01*
X75772822Y-88103387D01*
X75928844Y-88480989D01*
X76217492Y-88770140D01*
X76594821Y-88926821D01*
X77003387Y-88927178D01*
X77380989Y-88771156D01*
X77400178Y-88752000D01*
X77648000Y-88752000D01*
X77648000Y-92299384D01*
X77629860Y-92317492D01*
X77473179Y-92694821D01*
X77472822Y-93103387D01*
X77628844Y-93480989D01*
X77917492Y-93770140D01*
X78294821Y-93926821D01*
X78703387Y-93927178D01*
X79080989Y-93771156D01*
X79370140Y-93482508D01*
X79526821Y-93105179D01*
X79527178Y-92696613D01*
X79371156Y-92319011D01*
X79352000Y-92299822D01*
X79352000Y-89826958D01*
X79603387Y-89827178D01*
X79980989Y-89671156D01*
X80000178Y-89652000D01*
X86772954Y-89652000D01*
X86772822Y-89803387D01*
X86793706Y-89853931D01*
X86629860Y-90017492D01*
X86473179Y-90394821D01*
X86472822Y-90803387D01*
X86628844Y-91180989D01*
X86917492Y-91470140D01*
X87294821Y-91626821D01*
X87472976Y-91626977D01*
X87472822Y-91803387D01*
X87628844Y-92180989D01*
X87648000Y-92200178D01*
X87648000Y-93047090D01*
X86522246Y-94172844D01*
X86496613Y-94172822D01*
X86119011Y-94328844D01*
X85829860Y-94617492D01*
X85673179Y-94994821D01*
X85672822Y-95403387D01*
X85828844Y-95780989D01*
X86117492Y-96070140D01*
X86494821Y-96226821D01*
X86903387Y-96227178D01*
X87280989Y-96071156D01*
X87570140Y-95782508D01*
X87726821Y-95405179D01*
X87726845Y-95378065D01*
X89102455Y-94002455D01*
X89287145Y-93726047D01*
X89352000Y-93400000D01*
X89352000Y-92200616D01*
X89370140Y-92182508D01*
X89387677Y-92140273D01*
X89417492Y-92170140D01*
X89794821Y-92326821D01*
X90203387Y-92327178D01*
X90580989Y-92171156D01*
X90648000Y-92104262D01*
X90648000Y-94672911D01*
X90546613Y-94672822D01*
X90249735Y-94795490D01*
X89955179Y-94673179D01*
X89546613Y-94672822D01*
X89169011Y-94828844D01*
X88879860Y-95117492D01*
X88723179Y-95494821D01*
X88722822Y-95903387D01*
X88878844Y-96280989D01*
X88898000Y-96300178D01*
X88898000Y-101350000D01*
X88947329Y-101597994D01*
X71439302Y-101597994D01*
X71102002Y-101260694D01*
X71102002Y-96386431D01*
X71380989Y-96271156D01*
X71670140Y-95982508D01*
X71826821Y-95605179D01*
X71827178Y-95196613D01*
X71671156Y-94819011D01*
X71382508Y-94529860D01*
X71005179Y-94373179D01*
X70596613Y-94372822D01*
X70219011Y-94528844D01*
X69999872Y-94747602D01*
X69782508Y-94529860D01*
X69405179Y-94373179D01*
X68996613Y-94372822D01*
X68619011Y-94528844D01*
X68329860Y-94817492D01*
X68173179Y-95194821D01*
X68172822Y-95603387D01*
X37776999Y-95603387D01*
X37776999Y-90000000D01*
X37762069Y-89924942D01*
X37762069Y-89848415D01*
X37685949Y-89465733D01*
X37685949Y-89465732D01*
X37569931Y-89185639D01*
X37353158Y-88861215D01*
X37138784Y-88646841D01*
X36814360Y-88430068D01*
X36534267Y-88314050D01*
X36534266Y-88314050D01*
X36151583Y-88237930D01*
X36075057Y-88237930D01*
X35999999Y-88223000D01*
X26076525Y-88223000D01*
X25920488Y-88191962D01*
X25853079Y-88146921D01*
X25808038Y-88079512D01*
X25777000Y-87923474D01*
X25777000Y-81326526D01*
X25808038Y-81170488D01*
X25853079Y-81103079D01*
X25920488Y-81058038D01*
X26076525Y-81027000D01*
X31952473Y-81027000D01*
X32363570Y-81172345D01*
X32470770Y-81243973D01*
X32573564Y-81286551D01*
X32671290Y-81339740D01*
X33136932Y-81484839D01*
X33438410Y-81516831D01*
X33438411Y-81516831D01*
X33924134Y-81472691D01*
X34214906Y-81386879D01*
X34646765Y-81160221D01*
X34830092Y-81012070D01*
X34882565Y-80969666D01*
X35194812Y-80594996D01*
X35281543Y-80435638D01*
X35339740Y-80328710D01*
X35484839Y-79863068D01*
X35516831Y-79561590D01*
X35516831Y-79561589D01*
X35472691Y-79075865D01*
X35434213Y-78945484D01*
X35386879Y-78785094D01*
X35160221Y-78353235D01*
X35025608Y-78186660D01*
X34969666Y-78117435D01*
X34594996Y-77805188D01*
X34427598Y-77714081D01*
X34328710Y-77660260D01*
X33863067Y-77515161D01*
X33561589Y-77483169D01*
X33075865Y-77527309D01*
X32990053Y-77552634D01*
X32785094Y-77613121D01*
X32402680Y-77813828D01*
X31952473Y-77973000D01*
X26076525Y-77973000D01*
X25920488Y-77941962D01*
X25853079Y-77896921D01*
X25808038Y-77829512D01*
X25777000Y-77673474D01*
X25777000Y-74203387D01*
X34172822Y-74203387D01*
X34328844Y-74580989D01*
X34617492Y-74870140D01*
X34994821Y-75026821D01*
X35403387Y-75027178D01*
X35780989Y-74871156D01*
X35800178Y-74852000D01*
X36247090Y-74852000D01*
X39972844Y-78577754D01*
X39972822Y-78603387D01*
X40128844Y-78980989D01*
X40417492Y-79270140D01*
X40794821Y-79426821D01*
X41203387Y-79427178D01*
X41580989Y-79271156D01*
X41870140Y-78982508D01*
X42026821Y-78605179D01*
X42027178Y-78196613D01*
X41975098Y-78070569D01*
X42126821Y-77705179D01*
X42127009Y-77490000D01*
X43383758Y-77490000D01*
X43383758Y-79240000D01*
X43434451Y-79509410D01*
X43593672Y-79756846D01*
X43836615Y-79922843D01*
X44125000Y-79981242D01*
X45875000Y-79981242D01*
X46144410Y-79930549D01*
X46391846Y-79771328D01*
X46557843Y-79528385D01*
X46616242Y-79240000D01*
X46616242Y-77803387D01*
X64272822Y-77803387D01*
X64428844Y-78180989D01*
X64717492Y-78470140D01*
X64897998Y-78545093D01*
X64897998Y-86686396D01*
X64962853Y-87012442D01*
X65147543Y-87288851D01*
X67261147Y-89402455D01*
X67537555Y-89587145D01*
X67863602Y-89652000D01*
X68199384Y-89652000D01*
X68217492Y-89670140D01*
X68594821Y-89826821D01*
X69003387Y-89827178D01*
X69380989Y-89671156D01*
X69670140Y-89382508D01*
X69826821Y-89005179D01*
X69827178Y-88596613D01*
X69725221Y-88349858D01*
X69826821Y-88105179D01*
X69827178Y-87696613D01*
X69671156Y-87319011D01*
X69382508Y-87029860D01*
X69005179Y-86873179D01*
X68596613Y-86872822D01*
X68219011Y-87028844D01*
X68199822Y-87048000D01*
X67952910Y-87048000D01*
X67052000Y-86147090D01*
X67052000Y-85503387D01*
X78772822Y-85503387D01*
X78928844Y-85880989D01*
X79217492Y-86170140D01*
X79594821Y-86326821D01*
X80003387Y-86327178D01*
X80380989Y-86171156D01*
X80670140Y-85882508D01*
X80826821Y-85505179D01*
X80827178Y-85096613D01*
X80671156Y-84719011D01*
X80652000Y-84699822D01*
X80652000Y-79252910D01*
X86577754Y-73327156D01*
X86603387Y-73327178D01*
X86980989Y-73171156D01*
X87270140Y-72882508D01*
X87426821Y-72505179D01*
X87427178Y-72096613D01*
X87271156Y-71719011D01*
X86982508Y-71429860D01*
X86605179Y-71273179D01*
X86196613Y-71272822D01*
X85819011Y-71428844D01*
X85529860Y-71717492D01*
X85373179Y-72094821D01*
X85373155Y-72121935D01*
X79197545Y-78297545D01*
X79012855Y-78573954D01*
X78948000Y-78900000D01*
X78948000Y-84699384D01*
X78929860Y-84717492D01*
X78773179Y-85094821D01*
X78772822Y-85503387D01*
X67052000Y-85503387D01*
X67052000Y-76900000D01*
X66987145Y-76573954D01*
X66802455Y-76297545D01*
X66627156Y-76122246D01*
X66627178Y-76096613D01*
X66471156Y-75719011D01*
X66182508Y-75429860D01*
X65805179Y-75273179D01*
X65396613Y-75272822D01*
X65019011Y-75428844D01*
X64729860Y-75717492D01*
X64573179Y-76094821D01*
X64572822Y-76503387D01*
X64681465Y-76766324D01*
X64429860Y-77017492D01*
X64273179Y-77394821D01*
X64272822Y-77803387D01*
X46616242Y-77803387D01*
X46616242Y-77490000D01*
X46565549Y-77220590D01*
X46406328Y-76973154D01*
X46203924Y-76834857D01*
X46244577Y-76794204D01*
X46121267Y-76670894D01*
X46363489Y-76579990D01*
X46533315Y-76003780D01*
X46469708Y-75406442D01*
X46363489Y-75150010D01*
X46121264Y-75059105D01*
X45315370Y-75865000D01*
X45329512Y-75879142D01*
X45014142Y-76194512D01*
X45000000Y-76180370D01*
X44985858Y-76194512D01*
X44670488Y-75879142D01*
X44684630Y-75865000D01*
X43878736Y-75059105D01*
X43636511Y-75150010D01*
X43466685Y-75726220D01*
X43530292Y-76323558D01*
X43636511Y-76579990D01*
X43878733Y-76670894D01*
X43755423Y-76794204D01*
X43797835Y-76836616D01*
X43608154Y-76958672D01*
X43442157Y-77201615D01*
X43383758Y-77490000D01*
X42127009Y-77490000D01*
X42127178Y-77296613D01*
X41971156Y-76919011D01*
X41682508Y-76629860D01*
X41305179Y-76473179D01*
X41278065Y-76473155D01*
X39548646Y-74743736D01*
X44194105Y-74743736D01*
X45000000Y-75549630D01*
X45805895Y-74743736D01*
X45714990Y-74501511D01*
X45138780Y-74331685D01*
X44541442Y-74395292D01*
X44285010Y-74501511D01*
X44194105Y-74743736D01*
X39548646Y-74743736D01*
X36727156Y-71922246D01*
X36727178Y-71896613D01*
X36571156Y-71519011D01*
X36282508Y-71229860D01*
X35905179Y-71073179D01*
X35496613Y-71072822D01*
X35119011Y-71228844D01*
X34829860Y-71517492D01*
X34673179Y-71894821D01*
X34672822Y-72303387D01*
X34828844Y-72680989D01*
X35117492Y-72970140D01*
X35124219Y-72972934D01*
X34996613Y-72972822D01*
X34619011Y-73128844D01*
X34329860Y-73417492D01*
X34173179Y-73794821D01*
X34172822Y-74203387D01*
X25777000Y-74203387D01*
X25777000Y-63719105D01*
X26673000Y-63719105D01*
X26673000Y-64280895D01*
X26774012Y-64788716D01*
X27061669Y-65219226D01*
X27492179Y-65506883D01*
X28000000Y-65607895D01*
X28507821Y-65506883D01*
X28938331Y-65219226D01*
X29000000Y-65126932D01*
X29061669Y-65219226D01*
X29492179Y-65506883D01*
X30000000Y-65607895D01*
X30507821Y-65506883D01*
X30938331Y-65219226D01*
X31066690Y-65027123D01*
X31250812Y-65235234D01*
X31589725Y-65414860D01*
X31777000Y-65302894D01*
X31777000Y-64223000D01*
X31757000Y-64223000D01*
X31757000Y-63777000D01*
X31777000Y-63777000D01*
X31777000Y-62697106D01*
X32223000Y-62697106D01*
X32223000Y-63777000D01*
X32243000Y-63777000D01*
X32243000Y-64223000D01*
X32223000Y-64223000D01*
X32223000Y-65302894D01*
X32410275Y-65414860D01*
X32749188Y-65235234D01*
X32769331Y-65212466D01*
X32868672Y-65366846D01*
X33111615Y-65532843D01*
X33400000Y-65591242D01*
X34600000Y-65591242D01*
X34869410Y-65540549D01*
X35116846Y-65381328D01*
X35282843Y-65138385D01*
X35341242Y-64850000D01*
X35341242Y-63150000D01*
X35290549Y-62880590D01*
X35131328Y-62633154D01*
X34888385Y-62467157D01*
X34600000Y-62408758D01*
X33400000Y-62408758D01*
X33130590Y-62459451D01*
X32883154Y-62618672D01*
X32768453Y-62786541D01*
X32749188Y-62764766D01*
X32410275Y-62585140D01*
X32223000Y-62697106D01*
X31777000Y-62697106D01*
X31589725Y-62585140D01*
X31250812Y-62764766D01*
X31066690Y-62972877D01*
X30938331Y-62780774D01*
X30507821Y-62493117D01*
X30000000Y-62392105D01*
X29492179Y-62493117D01*
X29061669Y-62780774D01*
X29000000Y-62873068D01*
X28938331Y-62780774D01*
X28507821Y-62493117D01*
X28000000Y-62392105D01*
X27492179Y-62493117D01*
X27061669Y-62780774D01*
X26774012Y-63211284D01*
X26673000Y-63719105D01*
X25777000Y-63719105D01*
X25777000Y-62076527D01*
X25884159Y-61537803D01*
X26145972Y-61145972D01*
X26537802Y-60884159D01*
X27076527Y-60777000D01*
X40500000Y-60777000D01*
X40797345Y-60717854D01*
X41049422Y-60549422D01*
X41217854Y-60297345D01*
X41251738Y-60127000D01*
X42748262Y-60127000D01*
X42782146Y-60297345D01*
X42782146Y-60297345D01*
G37*
X42782146Y-60297345D02*
X42950578Y-60549422D01*
X43202655Y-60717854D01*
X43500000Y-60777000D01*
X47447582Y-60777000D01*
X46823011Y-61035067D01*
X46336774Y-61520456D01*
X46073300Y-62154971D01*
X46072701Y-62842014D01*
X46335067Y-63476989D01*
X46820456Y-63963226D01*
X47454971Y-64226700D01*
X48142014Y-64227299D01*
X48776989Y-63964933D01*
X49263226Y-63479544D01*
X49526700Y-62845029D01*
X49527299Y-62157986D01*
X49264933Y-61523011D01*
X48779544Y-61036774D01*
X48153940Y-60777000D01*
X51223000Y-60777000D01*
X51223000Y-64948000D01*
X45900616Y-64948000D01*
X45882508Y-64929860D01*
X45505179Y-64773179D01*
X45096613Y-64772822D01*
X44719011Y-64928844D01*
X44429860Y-65217492D01*
X44273179Y-65594821D01*
X44272822Y-66003387D01*
X44428844Y-66380989D01*
X44547602Y-66499954D01*
X44429860Y-66617492D01*
X44273179Y-66994821D01*
X44272822Y-67403387D01*
X44428844Y-67780989D01*
X44717492Y-68070140D01*
X45094821Y-68226821D01*
X45503387Y-68227178D01*
X45880989Y-68071156D01*
X45900178Y-68052000D01*
X58447090Y-68052000D01*
X59397545Y-69002455D01*
X59673954Y-69187145D01*
X60000000Y-69252000D01*
X79534228Y-69252000D01*
X79628844Y-69480989D01*
X79917492Y-69770140D01*
X80294821Y-69926821D01*
X80703387Y-69927178D01*
X81050389Y-69783800D01*
X81394821Y-69926821D01*
X81803387Y-69927178D01*
X82180989Y-69771156D01*
X82470140Y-69482508D01*
X82626821Y-69105179D01*
X82627178Y-68696613D01*
X82471156Y-68319011D01*
X82182508Y-68029860D01*
X81805179Y-67873179D01*
X81778065Y-67873155D01*
X81252453Y-67347543D01*
X80976044Y-67162853D01*
X80649998Y-67097998D01*
X62027002Y-67097998D01*
X62027178Y-66896613D01*
X61871156Y-66519011D01*
X61582508Y-66229860D01*
X61205179Y-66073179D01*
X61178065Y-66073155D01*
X60881910Y-65777000D01*
X78000000Y-65777000D01*
X78297345Y-65717854D01*
X78549422Y-65549422D01*
X78717854Y-65297345D01*
X78777000Y-65000000D01*
X78777000Y-62842014D01*
X80472701Y-62842014D01*
X80735067Y-63476989D01*
X81220456Y-63963226D01*
X81854971Y-64226700D01*
X82542014Y-64227299D01*
X83176989Y-63964933D01*
X83663226Y-63479544D01*
X83819420Y-63103387D01*
X92872822Y-63103387D01*
X93028844Y-63480989D01*
X93048000Y-63500178D01*
X93048000Y-66499384D01*
X93029860Y-66517492D01*
X92873179Y-66894821D01*
X92872822Y-67303387D01*
X93028844Y-67680989D01*
X93317492Y-67970140D01*
X93694821Y-68126821D01*
X94103387Y-68127178D01*
X94480989Y-67971156D01*
X94770140Y-67682508D01*
X94926821Y-67305179D01*
X94927178Y-66896613D01*
X94771156Y-66519011D01*
X94752000Y-66499822D01*
X94752000Y-63500616D01*
X94770140Y-63482508D01*
X94926821Y-63105179D01*
X94926822Y-63103387D01*
X97772822Y-63103387D01*
X97928844Y-63480989D01*
X97948000Y-63500178D01*
X97948000Y-66499384D01*
X97929860Y-66517492D01*
X97773179Y-66894821D01*
X97772822Y-67303387D01*
X97928844Y-67680989D01*
X98217492Y-67970140D01*
X98594821Y-68126821D01*
X99003387Y-68127178D01*
X99380989Y-67971156D01*
X99670140Y-67682508D01*
X99826821Y-67305179D01*
X99827178Y-66896613D01*
X99671156Y-66519011D01*
X99652000Y-66499822D01*
X99652000Y-63500616D01*
X99670140Y-63482508D01*
X99826821Y-63105179D01*
X99827178Y-62696613D01*
X99671156Y-62319011D01*
X99382508Y-62029860D01*
X99005179Y-61873179D01*
X98596613Y-61872822D01*
X98219011Y-62028844D01*
X97929860Y-62317492D01*
X97773179Y-62694821D01*
X97772822Y-63103387D01*
X94926822Y-63103387D01*
X94927178Y-62696613D01*
X94771156Y-62319011D01*
X94482508Y-62029860D01*
X94105179Y-61873179D01*
X93696613Y-61872822D01*
X93319011Y-62028844D01*
X93029860Y-62317492D01*
X92873179Y-62694821D01*
X92872822Y-63103387D01*
X83819420Y-63103387D01*
X83926700Y-62845029D01*
X83927299Y-62157986D01*
X83664933Y-61523011D01*
X83179544Y-61036774D01*
X82545029Y-60773300D01*
X81857986Y-60772701D01*
X81223011Y-61035067D01*
X80736774Y-61520456D01*
X80473300Y-62154971D01*
X80472701Y-62842014D01*
X78777000Y-62842014D01*
X78777000Y-60777000D01*
X80500000Y-60777000D01*
X80797345Y-60717854D01*
X81049422Y-60549422D01*
X81217854Y-60297345D01*
X81251738Y-60127000D01*
X82748262Y-60127000D01*
X82782146Y-60297345D01*
X82950578Y-60549422D01*
X83202655Y-60717854D01*
X83500000Y-60777000D01*
X98686962Y-60777000D01*
X98758959Y-60762679D01*
X98832367Y-60763274D01*
X99567685Y-60623194D01*
X99705254Y-60567513D01*
X99843430Y-60512885D01*
X100441717Y-60127000D01*
X104873000Y-60127000D01*
X104873000Y-73684780D01*
X104682968Y-74072299D01*
X104657100Y-74169709D01*
X104618532Y-74262820D01*
X104237930Y-76176237D01*
X104237930Y-76252764D01*
X104223000Y-76327822D01*
X104223000Y-123672178D01*
X104227857Y-123696594D01*
X104224552Y-123721270D01*
X104264471Y-124351822D01*
X104290339Y-124449229D01*
X104303049Y-124549210D01*
X104873000Y-126253121D01*
X104873000Y-139873000D01*
X100432980Y-139873000D01*
X99884007Y-139506188D01*
X99603914Y-139390170D01*
X98838547Y-139237929D01*
X98762015Y-139237929D01*
X98686962Y-139223000D01*
X85000000Y-139223000D01*
X84702655Y-139282146D01*
X84450578Y-139450578D01*
X84282146Y-139702655D01*
X84248262Y-139873000D01*
X82751738Y-139873000D01*
X82717854Y-139702655D01*
X82549422Y-139450578D01*
X82297345Y-139282146D01*
X82019321Y-139226843D01*
X82542014Y-139227299D01*
X83176989Y-138964933D01*
X83663226Y-138479544D01*
X83926700Y-137845029D01*
X83927299Y-137157986D01*
X83664933Y-136523011D01*
X83179544Y-136036774D01*
X82545029Y-135773300D01*
X81857986Y-135772701D01*
X81223011Y-136035067D01*
X80736774Y-136520456D01*
X80473300Y-137154971D01*
X80472701Y-137842014D01*
X80735067Y-138476989D01*
X81220456Y-138963226D01*
X81846060Y-139223000D01*
X78777000Y-139223000D01*
X78777000Y-135000000D01*
X78717854Y-134702655D01*
X78549422Y-134450578D01*
X78297345Y-134282146D01*
X78000000Y-134223000D01*
X66694850Y-134223000D01*
X66826821Y-133905179D01*
X66827178Y-133496613D01*
X66684787Y-133152000D01*
X78247090Y-133152000D01*
X78972844Y-133877754D01*
X78972822Y-133903387D01*
X79128844Y-134280989D01*
X79417492Y-134570140D01*
X79794821Y-134726821D01*
X80203387Y-134727178D01*
X80580989Y-134571156D01*
X80870140Y-134282508D01*
X81011945Y-133941003D01*
X81180989Y-133871156D01*
X81470140Y-133582508D01*
X81626821Y-133205179D01*
X81627178Y-132796613D01*
X81471156Y-132419011D01*
X81182508Y-132129860D01*
X80805179Y-131973179D01*
X80778065Y-131973155D01*
X80052453Y-131247543D01*
X79776044Y-131062853D01*
X79449998Y-130997998D01*
X51457947Y-130997998D01*
X51532843Y-130888385D01*
X51591242Y-130600000D01*
X51591242Y-129400000D01*
X51540549Y-129130590D01*
X51381328Y-128883154D01*
X51295348Y-128824406D01*
X51506883Y-128507821D01*
X51567438Y-128203387D01*
X60172822Y-128203387D01*
X60328844Y-128580989D01*
X60617492Y-128870140D01*
X60994821Y-129026821D01*
X61403387Y-129027178D01*
X61780989Y-128871156D01*
X62070140Y-128582508D01*
X62226821Y-128205179D01*
X62227178Y-127796613D01*
X62071156Y-127419011D01*
X62052000Y-127399822D01*
X62052000Y-127273387D01*
X74732822Y-127273387D01*
X74888844Y-127650989D01*
X75177492Y-127940140D01*
X75554821Y-128096821D01*
X75963387Y-128097178D01*
X76340989Y-127941156D01*
X76360178Y-127922000D01*
X78830000Y-127922000D01*
X79156046Y-127857145D01*
X79432455Y-127672455D01*
X80077754Y-127027156D01*
X80103387Y-127027178D01*
X80480989Y-126871156D01*
X80770140Y-126582508D01*
X80926821Y-126205179D01*
X80927178Y-125796613D01*
X80771156Y-125419011D01*
X80482508Y-125129860D01*
X80105179Y-124973179D01*
X79696613Y-124972822D01*
X79319011Y-125128844D01*
X79029860Y-125417492D01*
X78873179Y-125794821D01*
X78873155Y-125821935D01*
X78477090Y-126218000D01*
X76360616Y-126218000D01*
X76342508Y-126199860D01*
X75965179Y-126043179D01*
X75556613Y-126042822D01*
X75179011Y-126198844D01*
X74889860Y-126487492D01*
X74733179Y-126864821D01*
X74732822Y-127273387D01*
X62052000Y-127273387D01*
X62052000Y-126852910D01*
X62477754Y-126427156D01*
X62503387Y-126427178D01*
X62880989Y-126271156D01*
X63170140Y-125982508D01*
X63326821Y-125605179D01*
X63327178Y-125196613D01*
X63171156Y-124819011D01*
X62882508Y-124529860D01*
X62505179Y-124373179D01*
X62096613Y-124372822D01*
X61719011Y-124528844D01*
X61429860Y-124817492D01*
X61273179Y-125194821D01*
X61273155Y-125221935D01*
X60597545Y-125897545D01*
X60412855Y-126173954D01*
X60348000Y-126500000D01*
X60348000Y-127399384D01*
X60329860Y-127417492D01*
X60173179Y-127794821D01*
X60172822Y-128203387D01*
X51567438Y-128203387D01*
X51607895Y-128000000D01*
X51506883Y-127492179D01*
X51219226Y-127061669D01*
X50788716Y-126774012D01*
X50280895Y-126673000D01*
X49719105Y-126673000D01*
X49211284Y-126774012D01*
X48780774Y-127061669D01*
X48493117Y-127492179D01*
X48392105Y-128000000D01*
X48493117Y-128507821D01*
X48703838Y-128823188D01*
X48633154Y-128868672D01*
X48467157Y-129111615D01*
X48408758Y-129400000D01*
X48408758Y-130600000D01*
X48459451Y-130869410D01*
X48580210Y-131057075D01*
X48551160Y-131062853D01*
X48274751Y-131247543D01*
X47592495Y-131929799D01*
X40618201Y-131929799D01*
X40292155Y-131994654D01*
X40015746Y-132179344D01*
X39622246Y-132572844D01*
X39596613Y-132572822D01*
X39579030Y-132580087D01*
X39471156Y-132319011D01*
X39182508Y-132029860D01*
X38805179Y-131873179D01*
X38396613Y-131872822D01*
X38149858Y-131974779D01*
X37905179Y-131873179D01*
X37496613Y-131872822D01*
X37119011Y-132028844D01*
X36829860Y-132317492D01*
X36673179Y-132694821D01*
X36672822Y-133103387D01*
X36828844Y-133480989D01*
X36848000Y-133500178D01*
X36848000Y-133800000D01*
X36912855Y-134126046D01*
X37097545Y-134402455D01*
X38447547Y-135752457D01*
X38723956Y-135937147D01*
X39050002Y-136002002D01*
X46903035Y-136002002D01*
X46823011Y-136035067D01*
X46336774Y-136520456D01*
X46073300Y-137154971D01*
X46072701Y-137842014D01*
X46335067Y-138476989D01*
X46820456Y-138963226D01*
X47446060Y-139223000D01*
X43500000Y-139223000D01*
X43202655Y-139282146D01*
X42950578Y-139450578D01*
X42782146Y-139702655D01*
X42748262Y-139873000D01*
X41251738Y-139873000D01*
X41217854Y-139702655D01*
X41049422Y-139450578D01*
X40797345Y-139282146D01*
X40500000Y-139223000D01*
X27076527Y-139223000D01*
X26537802Y-139115841D01*
X26145972Y-138854028D01*
X25884159Y-138462197D01*
X25777000Y-137923473D01*
X25777000Y-119604881D01*
X36510742Y-119604881D01*
X36736951Y-120152349D01*
X37155448Y-120571577D01*
X37702520Y-120798741D01*
X38294881Y-120799258D01*
X38842349Y-120573049D01*
X39261577Y-120154552D01*
X39345311Y-119952897D01*
X42572779Y-119952897D01*
X42766781Y-120422417D01*
X43125693Y-120781957D01*
X43594875Y-120976778D01*
X44102897Y-120977221D01*
X44572417Y-120783219D01*
X44599733Y-120755951D01*
X44625693Y-120781957D01*
X45094875Y-120976778D01*
X45602897Y-120977221D01*
X45623000Y-120968915D01*
X45623000Y-121745314D01*
X45245406Y-122122908D01*
X45097103Y-122122779D01*
X44627583Y-122316781D01*
X44600267Y-122344049D01*
X44574307Y-122318043D01*
X44105125Y-122123222D01*
X43597103Y-122122779D01*
X43127583Y-122316781D01*
X42768043Y-122675693D01*
X42573222Y-123144875D01*
X42572779Y-123652897D01*
X42766781Y-124122417D01*
X43125693Y-124481957D01*
X43594875Y-124676778D01*
X44102897Y-124677221D01*
X44572417Y-124483219D01*
X44599733Y-124455951D01*
X44625693Y-124481957D01*
X45094875Y-124676778D01*
X45602897Y-124677221D01*
X46072417Y-124483219D01*
X46431957Y-124124307D01*
X46626778Y-123655125D01*
X46626909Y-123504777D01*
X47290843Y-122840843D01*
X47401193Y-122675693D01*
X47502630Y-122523882D01*
X47577000Y-122150000D01*
X47577000Y-121000000D01*
X48392105Y-121000000D01*
X48493117Y-121507821D01*
X48703838Y-121823188D01*
X48633154Y-121868672D01*
X48467157Y-122111615D01*
X48408758Y-122400000D01*
X48408758Y-123600000D01*
X48459451Y-123869410D01*
X48618672Y-124116846D01*
X48861615Y-124282843D01*
X49150000Y-124341242D01*
X50850000Y-124341242D01*
X51119410Y-124290549D01*
X51366846Y-124131328D01*
X51532843Y-123888385D01*
X51591242Y-123600000D01*
X51591242Y-122400000D01*
X51540549Y-122130590D01*
X51381328Y-121883154D01*
X51295348Y-121824406D01*
X51506883Y-121507821D01*
X51607895Y-121000000D01*
X51506883Y-120492179D01*
X51219226Y-120061669D01*
X50788716Y-119774012D01*
X50280895Y-119673000D01*
X49719105Y-119673000D01*
X49211284Y-119774012D01*
X48780774Y-120061669D01*
X48493117Y-120492179D01*
X48392105Y-121000000D01*
X47577000Y-121000000D01*
X47577000Y-114804686D01*
X48204687Y-114177000D01*
X53600000Y-114177000D01*
X53973882Y-114102630D01*
X54290843Y-113890843D01*
X55260919Y-112920768D01*
X55380989Y-112871156D01*
X55670140Y-112582508D01*
X55826821Y-112205179D01*
X55827178Y-111796613D01*
X55671156Y-111419011D01*
X55382508Y-111129860D01*
X55211591Y-111058889D01*
X55071156Y-110719011D01*
X54782508Y-110429860D01*
X54405179Y-110273179D01*
X53996613Y-110272822D01*
X53619011Y-110428844D01*
X53329860Y-110717492D01*
X53279471Y-110838842D01*
X52795314Y-111323000D01*
X47400000Y-111323000D01*
X47026118Y-111397370D01*
X46915536Y-111471259D01*
X46709157Y-111609157D01*
X44659157Y-113659157D01*
X44447370Y-113976118D01*
X44373000Y-114350000D01*
X44373000Y-118534453D01*
X44105125Y-118423222D01*
X43597103Y-118422779D01*
X43127583Y-118616781D01*
X42768043Y-118975693D01*
X42573222Y-119444875D01*
X42572779Y-119952897D01*
X39345311Y-119952897D01*
X39488741Y-119607480D01*
X39489258Y-119015119D01*
X39263049Y-118467651D01*
X38844552Y-118048423D01*
X38667843Y-117975047D01*
X38723242Y-117808611D01*
X38000000Y-117085370D01*
X37276758Y-117808611D01*
X37332098Y-117974871D01*
X37157651Y-118046951D01*
X36738423Y-118465448D01*
X36511259Y-119012520D01*
X36510742Y-119604881D01*
X25777000Y-119604881D01*
X25777000Y-116658427D01*
X36580008Y-116658427D01*
X36645402Y-117210327D01*
X36730796Y-117416488D01*
X36961389Y-117493242D01*
X37684630Y-116770000D01*
X38315370Y-116770000D01*
X39038611Y-117493242D01*
X39269204Y-117416488D01*
X39419992Y-116881573D01*
X39354598Y-116329673D01*
X39269204Y-116123512D01*
X39038611Y-116046758D01*
X38315370Y-116770000D01*
X37684630Y-116770000D01*
X36961389Y-116046758D01*
X36730796Y-116123512D01*
X36580008Y-116658427D01*
X25777000Y-116658427D01*
X25777000Y-111984881D01*
X36510742Y-111984881D01*
X36736951Y-112532349D01*
X37155448Y-112951577D01*
X37175105Y-112959739D01*
X37157651Y-112966951D01*
X36738423Y-113385448D01*
X36511259Y-113932520D01*
X36510742Y-114524881D01*
X36736951Y-115072349D01*
X37155448Y-115491577D01*
X37332157Y-115564953D01*
X37276758Y-115731389D01*
X38000000Y-116454630D01*
X38723242Y-115731389D01*
X38667902Y-115565129D01*
X38842349Y-115493049D01*
X39261577Y-115074552D01*
X39488741Y-114527480D01*
X39489258Y-113935119D01*
X39263049Y-113387651D01*
X38844552Y-112968423D01*
X38824895Y-112960261D01*
X38842349Y-112953049D01*
X39261577Y-112534552D01*
X39488741Y-111987480D01*
X39489258Y-111395119D01*
X39263049Y-110847651D01*
X38844552Y-110428423D01*
X38297480Y-110201259D01*
X37705119Y-110200742D01*
X37157651Y-110426951D01*
X36738423Y-110845448D01*
X36511259Y-111392520D01*
X36510742Y-111984881D01*
X25777000Y-111984881D01*
X25777000Y-110326526D01*
X25808038Y-110170488D01*
X25853079Y-110103079D01*
X25920488Y-110058038D01*
X26076525Y-110027000D01*
X31952473Y-110027000D01*
X32363570Y-110172345D01*
X32470770Y-110243973D01*
X32573564Y-110286551D01*
X32671290Y-110339740D01*
X33136932Y-110484839D01*
X33438410Y-110516831D01*
X33438411Y-110516831D01*
X33924134Y-110472691D01*
X34214906Y-110386879D01*
X34646765Y-110160221D01*
X34830092Y-110012070D01*
X34882565Y-109969666D01*
X35194812Y-109594996D01*
X35281543Y-109435638D01*
X35339740Y-109328710D01*
X35484839Y-108863068D01*
X35510091Y-108625101D01*
X35546159Y-108618315D01*
X35588553Y-108591035D01*
X35616994Y-108549410D01*
X35627000Y-108500000D01*
X35627000Y-104777000D01*
X35999999Y-104777000D01*
X36075057Y-104762070D01*
X36151583Y-104762070D01*
X36534266Y-104685950D01*
X36534267Y-104685950D01*
X36814360Y-104569932D01*
X37138784Y-104353159D01*
X37353158Y-104138785D01*
X37569931Y-103814361D01*
X37685949Y-103534268D01*
X37685949Y-103534267D01*
X37762069Y-103151585D01*
X37762069Y-103075058D01*
X37776999Y-103000000D01*
X37776999Y-95603387D01*
X68172822Y-95603387D01*
X68328844Y-95980989D01*
X68617492Y-96270140D01*
X68948000Y-96407379D01*
X68948000Y-101800000D01*
X69012855Y-102126046D01*
X69197545Y-102402455D01*
X69795090Y-103000000D01*
X69422246Y-103372844D01*
X69396613Y-103372822D01*
X69019011Y-103528844D01*
X68729860Y-103817492D01*
X68573179Y-104194821D01*
X68572822Y-104603387D01*
X68728844Y-104980989D01*
X69017492Y-105270140D01*
X69394821Y-105426821D01*
X69803387Y-105427178D01*
X70180989Y-105271156D01*
X70470140Y-104982508D01*
X70626821Y-104605179D01*
X70626845Y-104578065D01*
X71002912Y-104201998D01*
X74411723Y-104201998D01*
X74373179Y-104294821D01*
X74372822Y-104703387D01*
X74528844Y-105080989D01*
X74817492Y-105370140D01*
X75194821Y-105526821D01*
X75603387Y-105527178D01*
X75980989Y-105371156D01*
X76270140Y-105082508D01*
X76426821Y-104705179D01*
X76426845Y-104678065D01*
X76452910Y-104652000D01*
X87434228Y-104652000D01*
X87528844Y-104880989D01*
X87817492Y-105170140D01*
X88194821Y-105326821D01*
X88603387Y-105327178D01*
X88980989Y-105171156D01*
X89270140Y-104882508D01*
X89426821Y-104505179D01*
X89427086Y-104201998D01*
X89813567Y-104201998D01*
X89928844Y-104480989D01*
X90217492Y-104770140D01*
X90594821Y-104926821D01*
X91003387Y-104927178D01*
X91380989Y-104771156D01*
X91650041Y-104502572D01*
X91717492Y-104570140D01*
X92094821Y-104726821D01*
X92503387Y-104727178D01*
X92880989Y-104571156D01*
X93048000Y-104404436D01*
X93048000Y-106372867D01*
X92996613Y-106372822D01*
X92619011Y-106528844D01*
X92329860Y-106817492D01*
X92173179Y-107194821D01*
X92172822Y-107603387D01*
X92298002Y-107906346D01*
X92298002Y-108493092D01*
X91727156Y-107922246D01*
X91727178Y-107896613D01*
X91571156Y-107519011D01*
X91282508Y-107229860D01*
X90905179Y-107073179D01*
X90496613Y-107072822D01*
X90119011Y-107228844D01*
X89829860Y-107517492D01*
X89673179Y-107894821D01*
X89672822Y-108303387D01*
X89828844Y-108680989D01*
X90117492Y-108970140D01*
X90457788Y-109111443D01*
X90347651Y-109156951D01*
X89935884Y-109568000D01*
X89772910Y-109568000D01*
X88233890Y-108028980D01*
X88326821Y-107805179D01*
X88327178Y-107396613D01*
X88171156Y-107019011D01*
X87882508Y-106729860D01*
X87505179Y-106573179D01*
X87096613Y-106572822D01*
X86719011Y-106728844D01*
X86429860Y-107017492D01*
X86273179Y-107394821D01*
X86272822Y-107803387D01*
X86428844Y-108180989D01*
X86448000Y-108200178D01*
X86448000Y-108300000D01*
X86512855Y-108626046D01*
X86596395Y-108751073D01*
X86529860Y-108817492D01*
X86373179Y-109194821D01*
X86373155Y-109221935D01*
X85397545Y-110197545D01*
X85212855Y-110473954D01*
X85148000Y-110800000D01*
X85148000Y-111199384D01*
X85129860Y-111217492D01*
X84973179Y-111594821D01*
X84972822Y-112003387D01*
X85128844Y-112380989D01*
X85417492Y-112670140D01*
X85794821Y-112826821D01*
X86203387Y-112827178D01*
X86580989Y-112671156D01*
X86870140Y-112382508D01*
X87026821Y-112005179D01*
X87027178Y-111596613D01*
X86871156Y-111219011D01*
X86852000Y-111199822D01*
X86852000Y-111152910D01*
X87577754Y-110427156D01*
X87603387Y-110427178D01*
X87980989Y-110271156D01*
X88023655Y-110228565D01*
X88817545Y-111022455D01*
X89093954Y-111207145D01*
X89420000Y-111272000D01*
X89936585Y-111272000D01*
X90345448Y-111681577D01*
X90365105Y-111689739D01*
X90347651Y-111696951D01*
X89928423Y-112115448D01*
X89701259Y-112662520D01*
X89700882Y-113094208D01*
X89247543Y-113547547D01*
X89062853Y-113823956D01*
X88997998Y-114150002D01*
X88997998Y-131097092D01*
X88622246Y-131472844D01*
X88596613Y-131472822D01*
X88219011Y-131628844D01*
X87929860Y-131917492D01*
X87773179Y-132294821D01*
X87772822Y-132703387D01*
X87928844Y-133080989D01*
X88217492Y-133370140D01*
X88594821Y-133526821D01*
X89003387Y-133527178D01*
X89053808Y-133506345D01*
X89117492Y-133570140D01*
X89494821Y-133726821D01*
X89903387Y-133727178D01*
X90280989Y-133571156D01*
X90570140Y-133282508D01*
X90726821Y-132905179D01*
X90726845Y-132878065D01*
X90902455Y-132702455D01*
X91087145Y-132426046D01*
X91152000Y-132100000D01*
X91152000Y-124252910D01*
X93752457Y-121652453D01*
X93937147Y-121376045D01*
X94002002Y-121049998D01*
X94002002Y-119927089D01*
X94103387Y-119927178D01*
X94480989Y-119771156D01*
X94770140Y-119482508D01*
X94926821Y-119105179D01*
X94926846Y-119076166D01*
X95180989Y-118971156D01*
X95470140Y-118682508D01*
X95626821Y-118305179D01*
X95627178Y-117896613D01*
X95471156Y-117519011D01*
X95452000Y-117499822D01*
X95452000Y-113254881D01*
X97320742Y-113254881D01*
X97546951Y-113802349D01*
X97965448Y-114221577D01*
X97985105Y-114229739D01*
X97967651Y-114236951D01*
X97548423Y-114655448D01*
X97321259Y-115202520D01*
X97320742Y-115794881D01*
X97546951Y-116342349D01*
X97965448Y-116761577D01*
X97985105Y-116769739D01*
X97967651Y-116776951D01*
X97548423Y-117195448D01*
X97321259Y-117742520D01*
X97320742Y-118334881D01*
X97546951Y-118882349D01*
X97965448Y-119301577D01*
X97985105Y-119309739D01*
X97967651Y-119316951D01*
X97548423Y-119735448D01*
X97321259Y-120282520D01*
X97320742Y-120874881D01*
X97546951Y-121422349D01*
X97965448Y-121841577D01*
X98512520Y-122068741D01*
X99104881Y-122069258D01*
X99652349Y-121843049D01*
X100071577Y-121424552D01*
X100298741Y-120877480D01*
X100299258Y-120285119D01*
X100073049Y-119737651D01*
X99654552Y-119318423D01*
X99634895Y-119310261D01*
X99652349Y-119303049D01*
X100071577Y-118884552D01*
X100298741Y-118337480D01*
X100299258Y-117745119D01*
X100073049Y-117197651D01*
X99654552Y-116778423D01*
X99634895Y-116770261D01*
X99652349Y-116763049D01*
X100071577Y-116344552D01*
X100298741Y-115797480D01*
X100299258Y-115205119D01*
X100073049Y-114657651D01*
X99654552Y-114238423D01*
X99634895Y-114230261D01*
X99652349Y-114223049D01*
X100071577Y-113804552D01*
X100298741Y-113257480D01*
X100299258Y-112665119D01*
X100073049Y-112117651D01*
X99654552Y-111698423D01*
X99477843Y-111625047D01*
X99533242Y-111458611D01*
X98810000Y-110735370D01*
X98086758Y-111458611D01*
X98142098Y-111624871D01*
X97967651Y-111696951D01*
X97548423Y-112115448D01*
X97321259Y-112662520D01*
X97320742Y-113254881D01*
X95452000Y-113254881D01*
X95452000Y-110308427D01*
X97390008Y-110308427D01*
X97455402Y-110860327D01*
X97540796Y-111066488D01*
X97771389Y-111143242D01*
X98494630Y-110420000D01*
X97771389Y-109696758D01*
X97540796Y-109773512D01*
X97390008Y-110308427D01*
X95452000Y-110308427D01*
X95452000Y-109227046D01*
X95603387Y-109227178D01*
X95980989Y-109071156D01*
X96000178Y-109052000D01*
X98482781Y-109052000D01*
X98369673Y-109065402D01*
X98163512Y-109150796D01*
X98086758Y-109381389D01*
X98810000Y-110104630D01*
X98824142Y-110090488D01*
X99139512Y-110405858D01*
X99125370Y-110420000D01*
X99848611Y-111143242D01*
X100079204Y-111066488D01*
X100229992Y-110531573D01*
X100164598Y-109979673D01*
X100101324Y-109826914D01*
X100403387Y-109827178D01*
X100780989Y-109671156D01*
X101070140Y-109382508D01*
X101226821Y-109005179D01*
X101227178Y-108596613D01*
X101071156Y-108219011D01*
X100782508Y-107929860D01*
X100405179Y-107773179D01*
X100378065Y-107773155D01*
X100202455Y-107597545D01*
X99926046Y-107412855D01*
X99600000Y-107348000D01*
X96000616Y-107348000D01*
X95982508Y-107329860D01*
X95605179Y-107173179D01*
X95452000Y-107173045D01*
X95452000Y-103263602D01*
X95387145Y-102937556D01*
X95202455Y-102661147D01*
X94996914Y-102455606D01*
X95070140Y-102382508D01*
X95226821Y-102005179D01*
X95227178Y-101596613D01*
X95071156Y-101219011D01*
X94782508Y-100929860D01*
X94405179Y-100773179D01*
X94378065Y-100773155D01*
X94102443Y-100497533D01*
X93826034Y-100312843D01*
X93499988Y-100247988D01*
X92652898Y-100247988D01*
X92352000Y-99947090D01*
X92352000Y-96503387D01*
X98772822Y-96503387D01*
X98928844Y-96880989D01*
X99217492Y-97170140D01*
X99272831Y-97193119D01*
X99272822Y-97203387D01*
X99428844Y-97580989D01*
X99717492Y-97870140D01*
X100094821Y-98026821D01*
X100503387Y-98027178D01*
X100880989Y-97871156D01*
X100900178Y-97852000D01*
X101147090Y-97852000D01*
X101348000Y-98052910D01*
X101348000Y-98599384D01*
X101329860Y-98617492D01*
X101173179Y-98994821D01*
X101172822Y-99403387D01*
X101328844Y-99780989D01*
X101617492Y-100070140D01*
X101994821Y-100226821D01*
X102403387Y-100227178D01*
X102780989Y-100071156D01*
X103070140Y-99782508D01*
X103141111Y-99611591D01*
X103480989Y-99471156D01*
X103770140Y-99182508D01*
X103926821Y-98805179D01*
X103927178Y-98396613D01*
X103771156Y-98019011D01*
X103752000Y-97999822D01*
X103752000Y-97600000D01*
X103687145Y-97273954D01*
X103502455Y-96997545D01*
X102202455Y-95697545D01*
X101926046Y-95512855D01*
X101600000Y-95448000D01*
X100400616Y-95448000D01*
X100382508Y-95429860D01*
X100005179Y-95273179D01*
X99596613Y-95272822D01*
X99219011Y-95428844D01*
X98929860Y-95717492D01*
X98773179Y-96094821D01*
X98772822Y-96503387D01*
X92352000Y-96503387D01*
X92352000Y-95303387D01*
X95872822Y-95303387D01*
X96028844Y-95680989D01*
X96317492Y-95970140D01*
X96694821Y-96126821D01*
X97103387Y-96127178D01*
X97480989Y-95971156D01*
X97770140Y-95682508D01*
X97907379Y-95352000D01*
X98800000Y-95352000D01*
X99126046Y-95287145D01*
X99402455Y-95102455D01*
X99477754Y-95027156D01*
X99503387Y-95027178D01*
X99880989Y-94871156D01*
X100170140Y-94582508D01*
X100326821Y-94205179D01*
X100327178Y-93796613D01*
X100171156Y-93419011D01*
X99882508Y-93129860D01*
X99505179Y-92973179D01*
X99096613Y-92972822D01*
X98719011Y-93128844D01*
X98429860Y-93417492D01*
X98334145Y-93648000D01*
X97500000Y-93648000D01*
X97173954Y-93712855D01*
X96897545Y-93897545D01*
X96722246Y-94072844D01*
X96696613Y-94072822D01*
X96319011Y-94228844D01*
X96029860Y-94517492D01*
X95873179Y-94894821D01*
X95872822Y-95303387D01*
X92352000Y-95303387D01*
X92352000Y-91500000D01*
X92287145Y-91173954D01*
X92102455Y-90897545D01*
X91228743Y-90023833D01*
X91270140Y-89982508D01*
X91426821Y-89605179D01*
X91427178Y-89196613D01*
X91271156Y-88819011D01*
X91204262Y-88752000D01*
X95199384Y-88752000D01*
X95217492Y-88770140D01*
X95594821Y-88926821D01*
X96003387Y-88927178D01*
X96380989Y-88771156D01*
X96670140Y-88482508D01*
X96826821Y-88105179D01*
X96827178Y-87696613D01*
X96671156Y-87319011D01*
X96382508Y-87029860D01*
X96005179Y-86873179D01*
X95596613Y-86872822D01*
X95219011Y-87028844D01*
X95199822Y-87048000D01*
X94067516Y-87048000D01*
X94117717Y-86927103D01*
X94203387Y-86927178D01*
X94580989Y-86771156D01*
X94870140Y-86482508D01*
X95026821Y-86105179D01*
X95027178Y-85696613D01*
X94871156Y-85319011D01*
X94852000Y-85299822D01*
X94852000Y-84300000D01*
X94787145Y-83973954D01*
X94602455Y-83697545D01*
X91427156Y-80522246D01*
X91427178Y-80496613D01*
X91271156Y-80119011D01*
X90982508Y-79829860D01*
X90605179Y-79673179D01*
X90196613Y-79672822D01*
X89899735Y-79795490D01*
X89605179Y-79673179D01*
X89196613Y-79672822D01*
X88819011Y-79828844D01*
X88529860Y-80117492D01*
X88373179Y-80494821D01*
X88372822Y-80903387D01*
X88528844Y-81280989D01*
X88817492Y-81570140D01*
X89194821Y-81726821D01*
X89221935Y-81726845D01*
X92448000Y-84952910D01*
X92448000Y-85899731D01*
X92229860Y-86117492D01*
X92073179Y-86494821D01*
X92072822Y-86903387D01*
X92132575Y-87048000D01*
X79100616Y-87048000D01*
X79082508Y-87029860D01*
X78705179Y-86873179D01*
X78296613Y-86872822D01*
X77919011Y-87028844D01*
X77899822Y-87048000D01*
X77400616Y-87048000D01*
X77382508Y-87029860D01*
X77005179Y-86873179D01*
X76596613Y-86872822D01*
X76219011Y-87028844D01*
X75929860Y-87317492D01*
X75773179Y-87694821D01*
X75772822Y-88103387D01*
X75928844Y-88480989D01*
X76217492Y-88770140D01*
X76594821Y-88926821D01*
X77003387Y-88927178D01*
X77380989Y-88771156D01*
X77400178Y-88752000D01*
X77648000Y-88752000D01*
X77648000Y-92299384D01*
X77629860Y-92317492D01*
X77473179Y-92694821D01*
X77472822Y-93103387D01*
X77628844Y-93480989D01*
X77917492Y-93770140D01*
X78294821Y-93926821D01*
X78703387Y-93927178D01*
X79080989Y-93771156D01*
X79370140Y-93482508D01*
X79526821Y-93105179D01*
X79527178Y-92696613D01*
X79371156Y-92319011D01*
X79352000Y-92299822D01*
X79352000Y-89826958D01*
X79603387Y-89827178D01*
X79980989Y-89671156D01*
X80000178Y-89652000D01*
X86772954Y-89652000D01*
X86772822Y-89803387D01*
X86793706Y-89853931D01*
X86629860Y-90017492D01*
X86473179Y-90394821D01*
X86472822Y-90803387D01*
X86628844Y-91180989D01*
X86917492Y-91470140D01*
X87294821Y-91626821D01*
X87472976Y-91626977D01*
X87472822Y-91803387D01*
X87628844Y-92180989D01*
X87648000Y-92200178D01*
X87648000Y-93047090D01*
X86522246Y-94172844D01*
X86496613Y-94172822D01*
X86119011Y-94328844D01*
X85829860Y-94617492D01*
X85673179Y-94994821D01*
X85672822Y-95403387D01*
X85828844Y-95780989D01*
X86117492Y-96070140D01*
X86494821Y-96226821D01*
X86903387Y-96227178D01*
X87280989Y-96071156D01*
X87570140Y-95782508D01*
X87726821Y-95405179D01*
X87726845Y-95378065D01*
X89102455Y-94002455D01*
X89287145Y-93726047D01*
X89352000Y-93400000D01*
X89352000Y-92200616D01*
X89370140Y-92182508D01*
X89387677Y-92140273D01*
X89417492Y-92170140D01*
X89794821Y-92326821D01*
X90203387Y-92327178D01*
X90580989Y-92171156D01*
X90648000Y-92104262D01*
X90648000Y-94672911D01*
X90546613Y-94672822D01*
X90249735Y-94795490D01*
X89955179Y-94673179D01*
X89546613Y-94672822D01*
X89169011Y-94828844D01*
X88879860Y-95117492D01*
X88723179Y-95494821D01*
X88722822Y-95903387D01*
X88878844Y-96280989D01*
X88898000Y-96300178D01*
X88898000Y-101350000D01*
X88947329Y-101597994D01*
X71439302Y-101597994D01*
X71102002Y-101260694D01*
X71102002Y-96386431D01*
X71380989Y-96271156D01*
X71670140Y-95982508D01*
X71826821Y-95605179D01*
X71827178Y-95196613D01*
X71671156Y-94819011D01*
X71382508Y-94529860D01*
X71005179Y-94373179D01*
X70596613Y-94372822D01*
X70219011Y-94528844D01*
X69999872Y-94747602D01*
X69782508Y-94529860D01*
X69405179Y-94373179D01*
X68996613Y-94372822D01*
X68619011Y-94528844D01*
X68329860Y-94817492D01*
X68173179Y-95194821D01*
X68172822Y-95603387D01*
X37776999Y-95603387D01*
X37776999Y-90000000D01*
X37762069Y-89924942D01*
X37762069Y-89848415D01*
X37685949Y-89465733D01*
X37685949Y-89465732D01*
X37569931Y-89185639D01*
X37353158Y-88861215D01*
X37138784Y-88646841D01*
X36814360Y-88430068D01*
X36534267Y-88314050D01*
X36534266Y-88314050D01*
X36151583Y-88237930D01*
X36075057Y-88237930D01*
X35999999Y-88223000D01*
X26076525Y-88223000D01*
X25920488Y-88191962D01*
X25853079Y-88146921D01*
X25808038Y-88079512D01*
X25777000Y-87923474D01*
X25777000Y-81326526D01*
X25808038Y-81170488D01*
X25853079Y-81103079D01*
X25920488Y-81058038D01*
X26076525Y-81027000D01*
X31952473Y-81027000D01*
X32363570Y-81172345D01*
X32470770Y-81243973D01*
X32573564Y-81286551D01*
X32671290Y-81339740D01*
X33136932Y-81484839D01*
X33438410Y-81516831D01*
X33438411Y-81516831D01*
X33924134Y-81472691D01*
X34214906Y-81386879D01*
X34646765Y-81160221D01*
X34830092Y-81012070D01*
X34882565Y-80969666D01*
X35194812Y-80594996D01*
X35281543Y-80435638D01*
X35339740Y-80328710D01*
X35484839Y-79863068D01*
X35516831Y-79561590D01*
X35516831Y-79561589D01*
X35472691Y-79075865D01*
X35434213Y-78945484D01*
X35386879Y-78785094D01*
X35160221Y-78353235D01*
X35025608Y-78186660D01*
X34969666Y-78117435D01*
X34594996Y-77805188D01*
X34427598Y-77714081D01*
X34328710Y-77660260D01*
X33863067Y-77515161D01*
X33561589Y-77483169D01*
X33075865Y-77527309D01*
X32990053Y-77552634D01*
X32785094Y-77613121D01*
X32402680Y-77813828D01*
X31952473Y-77973000D01*
X26076525Y-77973000D01*
X25920488Y-77941962D01*
X25853079Y-77896921D01*
X25808038Y-77829512D01*
X25777000Y-77673474D01*
X25777000Y-74203387D01*
X34172822Y-74203387D01*
X34328844Y-74580989D01*
X34617492Y-74870140D01*
X34994821Y-75026821D01*
X35403387Y-75027178D01*
X35780989Y-74871156D01*
X35800178Y-74852000D01*
X36247090Y-74852000D01*
X39972844Y-78577754D01*
X39972822Y-78603387D01*
X40128844Y-78980989D01*
X40417492Y-79270140D01*
X40794821Y-79426821D01*
X41203387Y-79427178D01*
X41580989Y-79271156D01*
X41870140Y-78982508D01*
X42026821Y-78605179D01*
X42027178Y-78196613D01*
X41975098Y-78070569D01*
X42126821Y-77705179D01*
X42127009Y-77490000D01*
X43383758Y-77490000D01*
X43383758Y-79240000D01*
X43434451Y-79509410D01*
X43593672Y-79756846D01*
X43836615Y-79922843D01*
X44125000Y-79981242D01*
X45875000Y-79981242D01*
X46144410Y-79930549D01*
X46391846Y-79771328D01*
X46557843Y-79528385D01*
X46616242Y-79240000D01*
X46616242Y-77803387D01*
X64272822Y-77803387D01*
X64428844Y-78180989D01*
X64717492Y-78470140D01*
X64897998Y-78545093D01*
X64897998Y-86686396D01*
X64962853Y-87012442D01*
X65147543Y-87288851D01*
X67261147Y-89402455D01*
X67537555Y-89587145D01*
X67863602Y-89652000D01*
X68199384Y-89652000D01*
X68217492Y-89670140D01*
X68594821Y-89826821D01*
X69003387Y-89827178D01*
X69380989Y-89671156D01*
X69670140Y-89382508D01*
X69826821Y-89005179D01*
X69827178Y-88596613D01*
X69725221Y-88349858D01*
X69826821Y-88105179D01*
X69827178Y-87696613D01*
X69671156Y-87319011D01*
X69382508Y-87029860D01*
X69005179Y-86873179D01*
X68596613Y-86872822D01*
X68219011Y-87028844D01*
X68199822Y-87048000D01*
X67952910Y-87048000D01*
X67052000Y-86147090D01*
X67052000Y-85503387D01*
X78772822Y-85503387D01*
X78928844Y-85880989D01*
X79217492Y-86170140D01*
X79594821Y-86326821D01*
X80003387Y-86327178D01*
X80380989Y-86171156D01*
X80670140Y-85882508D01*
X80826821Y-85505179D01*
X80827178Y-85096613D01*
X80671156Y-84719011D01*
X80652000Y-84699822D01*
X80652000Y-79252910D01*
X86577754Y-73327156D01*
X86603387Y-73327178D01*
X86980989Y-73171156D01*
X87270140Y-72882508D01*
X87426821Y-72505179D01*
X87427178Y-72096613D01*
X87271156Y-71719011D01*
X86982508Y-71429860D01*
X86605179Y-71273179D01*
X86196613Y-71272822D01*
X85819011Y-71428844D01*
X85529860Y-71717492D01*
X85373179Y-72094821D01*
X85373155Y-72121935D01*
X79197545Y-78297545D01*
X79012855Y-78573954D01*
X78948000Y-78900000D01*
X78948000Y-84699384D01*
X78929860Y-84717492D01*
X78773179Y-85094821D01*
X78772822Y-85503387D01*
X67052000Y-85503387D01*
X67052000Y-76900000D01*
X66987145Y-76573954D01*
X66802455Y-76297545D01*
X66627156Y-76122246D01*
X66627178Y-76096613D01*
X66471156Y-75719011D01*
X66182508Y-75429860D01*
X65805179Y-75273179D01*
X65396613Y-75272822D01*
X65019011Y-75428844D01*
X64729860Y-75717492D01*
X64573179Y-76094821D01*
X64572822Y-76503387D01*
X64681465Y-76766324D01*
X64429860Y-77017492D01*
X64273179Y-77394821D01*
X64272822Y-77803387D01*
X46616242Y-77803387D01*
X46616242Y-77490000D01*
X46565549Y-77220590D01*
X46406328Y-76973154D01*
X46203924Y-76834857D01*
X46244577Y-76794204D01*
X46121267Y-76670894D01*
X46363489Y-76579990D01*
X46533315Y-76003780D01*
X46469708Y-75406442D01*
X46363489Y-75150010D01*
X46121264Y-75059105D01*
X45315370Y-75865000D01*
X45329512Y-75879142D01*
X45014142Y-76194512D01*
X45000000Y-76180370D01*
X44985858Y-76194512D01*
X44670488Y-75879142D01*
X44684630Y-75865000D01*
X43878736Y-75059105D01*
X43636511Y-75150010D01*
X43466685Y-75726220D01*
X43530292Y-76323558D01*
X43636511Y-76579990D01*
X43878733Y-76670894D01*
X43755423Y-76794204D01*
X43797835Y-76836616D01*
X43608154Y-76958672D01*
X43442157Y-77201615D01*
X43383758Y-77490000D01*
X42127009Y-77490000D01*
X42127178Y-77296613D01*
X41971156Y-76919011D01*
X41682508Y-76629860D01*
X41305179Y-76473179D01*
X41278065Y-76473155D01*
X39548646Y-74743736D01*
X44194105Y-74743736D01*
X45000000Y-75549630D01*
X45805895Y-74743736D01*
X45714990Y-74501511D01*
X45138780Y-74331685D01*
X44541442Y-74395292D01*
X44285010Y-74501511D01*
X44194105Y-74743736D01*
X39548646Y-74743736D01*
X36727156Y-71922246D01*
X36727178Y-71896613D01*
X36571156Y-71519011D01*
X36282508Y-71229860D01*
X35905179Y-71073179D01*
X35496613Y-71072822D01*
X35119011Y-71228844D01*
X34829860Y-71517492D01*
X34673179Y-71894821D01*
X34672822Y-72303387D01*
X34828844Y-72680989D01*
X35117492Y-72970140D01*
X35124219Y-72972934D01*
X34996613Y-72972822D01*
X34619011Y-73128844D01*
X34329860Y-73417492D01*
X34173179Y-73794821D01*
X34172822Y-74203387D01*
X25777000Y-74203387D01*
X25777000Y-63719105D01*
X26673000Y-63719105D01*
X26673000Y-64280895D01*
X26774012Y-64788716D01*
X27061669Y-65219226D01*
X27492179Y-65506883D01*
X28000000Y-65607895D01*
X28507821Y-65506883D01*
X28938331Y-65219226D01*
X29000000Y-65126932D01*
X29061669Y-65219226D01*
X29492179Y-65506883D01*
X30000000Y-65607895D01*
X30507821Y-65506883D01*
X30938331Y-65219226D01*
X31066690Y-65027123D01*
X31250812Y-65235234D01*
X31589725Y-65414860D01*
X31777000Y-65302894D01*
X31777000Y-64223000D01*
X31757000Y-64223000D01*
X31757000Y-63777000D01*
X31777000Y-63777000D01*
X31777000Y-62697106D01*
X32223000Y-62697106D01*
X32223000Y-63777000D01*
X32243000Y-63777000D01*
X32243000Y-64223000D01*
X32223000Y-64223000D01*
X32223000Y-65302894D01*
X32410275Y-65414860D01*
X32749188Y-65235234D01*
X32769331Y-65212466D01*
X32868672Y-65366846D01*
X33111615Y-65532843D01*
X33400000Y-65591242D01*
X34600000Y-65591242D01*
X34869410Y-65540549D01*
X35116846Y-65381328D01*
X35282843Y-65138385D01*
X35341242Y-64850000D01*
X35341242Y-63150000D01*
X35290549Y-62880590D01*
X35131328Y-62633154D01*
X34888385Y-62467157D01*
X34600000Y-62408758D01*
X33400000Y-62408758D01*
X33130590Y-62459451D01*
X32883154Y-62618672D01*
X32768453Y-62786541D01*
X32749188Y-62764766D01*
X32410275Y-62585140D01*
X32223000Y-62697106D01*
X31777000Y-62697106D01*
X31589725Y-62585140D01*
X31250812Y-62764766D01*
X31066690Y-62972877D01*
X30938331Y-62780774D01*
X30507821Y-62493117D01*
X30000000Y-62392105D01*
X29492179Y-62493117D01*
X29061669Y-62780774D01*
X29000000Y-62873068D01*
X28938331Y-62780774D01*
X28507821Y-62493117D01*
X28000000Y-62392105D01*
X27492179Y-62493117D01*
X27061669Y-62780774D01*
X26774012Y-63211284D01*
X26673000Y-63719105D01*
X25777000Y-63719105D01*
X25777000Y-62076527D01*
X25884159Y-61537803D01*
X26145972Y-61145972D01*
X26537802Y-60884159D01*
X27076527Y-60777000D01*
X40500000Y-60777000D01*
X40797345Y-60717854D01*
X41049422Y-60549422D01*
X41217854Y-60297345D01*
X41251738Y-60127000D01*
X42748262Y-60127000D01*
X42782146Y-60297345D01*
M02*
